<?xml version="1.0" encoding="UTF-8" standalone="no"?>
<svg
   sodipodi:docname="cocoa_press_ui.svg"
   inkscape:version="1.1.1 (3bf5ae0d25, 2021-09-20)"
   id="svg8"
   version="1.1"
   viewBox="0 0 800 480"
   height="480"
   width="800"
   inkscape:export-filename="\\wsl$\Ubuntu\home\marciot\drunken-octopus-marlin\extras-tools\ftdi-eve-lib-examples\cocoa_press_ui\svg\cocoa_press_ui.png"
   inkscape:export-xdpi="96"
   inkscape:export-ydpi="96"
   xmlns:inkscape="http://www.inkscape.org/namespaces/inkscape"
   xmlns:sodipodi="http://sodipodi.sourceforge.net/DTD/sodipodi-0.dtd"
   xmlns="http://www.w3.org/2000/svg"
   xmlns:svg="http://www.w3.org/2000/svg"
   xmlns:rdf="http://www.w3.org/1999/02/22-rdf-syntax-ns#"
   xmlns:cc="http://creativecommons.org/ns#"
   xmlns:dc="http://purl.org/dc/elements/1.1/">
  <sodipodi:namedview
     inkscape:bbox-nodes="true"
     inkscape:snap-bbox="true"
     inkscape:document-rotation="0"
     inkscape:snap-nodes="false"
     inkscape:snap-global="true"
     inkscape:window-maximized="0"
     inkscape:window-y="18"
     inkscape:window-x="220"
     inkscape:window-height="1028"
     inkscape:window-width="1684"
     units="px"
     showgrid="true"
     inkscape:current-layer="layer2"
     inkscape:document-units="px"
     inkscape:cy="184.58321"
     inkscape:cx="394.76989"
     inkscape:zoom="0.83972969"
     inkscape:pageshadow="2"
     inkscape:pageopacity="1"
     borderopacity="1.0"
     bordercolor="#666666"
     pagecolor="#ffffff"
     id="base"
     inkscape:snap-smooth-nodes="true"
     inkscape:snap-others="false"
     inkscape:snap-grids="true"
     inkscape:pagecheckerboard="0">
    <inkscape:grid
       units="px"
       spacingy="0.25"
       spacingx="0.25"
       id="grid3680"
       type="xygrid"
       empspacing="1"
       dotted="false"
       snapvisiblegridlinesonly="true" />
  </sodipodi:namedview>
  <defs
     id="defs2">
    <linearGradient
       id="linearGradient1777"
       inkscape:swatch="solid">
      <stop
         style="stop-color:#58d32e;stop-opacity:1;"
         offset="0"
         id="stop1775" />
    </linearGradient>
    <linearGradient
       gradientTransform="matrix(35795499,0,0,23312662,1.3637422e14,2.14795e12)"
       id="linearGradient4768"
       inkscape:swatch="solid">
      <stop
         id="stop4766"
         offset="0"
         style="stop-color:#ffd32e;stop-opacity:1;" />
    </linearGradient>
    <linearGradient
       gradientTransform="matrix(9.1914415e-5,0,0,9.1914415e-5,182.43353,74.92765)"
       id="linearGradient4762"
       inkscape:swatch="solid">
      <stop
         id="stop4760"
         offset="0"
         style="stop-color:#000000;stop-opacity:1;" />
    </linearGradient>
  </defs>
  <metadata
     id="metadata5">
    <rdf:RDF>
      <cc:Work
         rdf:about="">
        <dc:format>image/svg+xml</dc:format>
        <dc:type
           rdf:resource="http://purl.org/dc/dcmitype/StillImage" />
      </cc:Work>
    </rdf:RDF>
  </metadata>
  <g
     inkscape:groupmode="layer"
     id="layer1"
     inkscape:label="Cocoa Press Main PNG"
     style="display:none">
    <g
       id="g25033"
       transform="matrix(1.4930946,0,0,1.5639024,62.318884,0.33567665)">
      <text
         xml:space="preserve"
         style="font-style:normal;font-variant:normal;font-weight:bold;font-stretch:normal;font-size:24px;line-height:1.25;font-family:'Museo Sans Rounded';-inkscape-font-specification:'Museo Sans Rounded Bold';letter-spacing:3.5px;fill:#6a2c1a;fill-opacity:1"
         x="251.22433"
         y="44.712002"
         id="text2925"><tspan
           sodipodi:role="line"
           id="tspan2923"
           x="251.22433"
           y="44.712002"
           style="font-style:normal;font-variant:normal;font-weight:bold;font-stretch:normal;font-size:24px;font-family:'Museo Sans Rounded';-inkscape-font-specification:'Museo Sans Rounded Bold';fill:#6a2c1a;fill-opacity:1">COCOA PRESS</tspan></text>
      <g
         id="g13453"
         transform="matrix(0.04805768,0,0,0.04805768,208.27556,17.711925)">
        <path
           class="st1"
           d="m 659.82,471.2 c 0.02,0.27 0.05,0.54 0.07,0.8 0.03,0.2 0.04,0.4 0.05,0.6 0.03,0.52 0.04,1.02 0.06,1.51 0,0.04 0,0.09 0,0.13 0.01,0.79 -0.01,1.56 -0.05,2.29 -0.01,0.16 -0.02,0.32 -0.03,0.49 -0.01,0.15 -0.01,0.31 -0.03,0.45 -0.01,0.16 -0.02,0.33 -0.03,0.49 -0.01,0.15 -0.01,0.31 -0.03,0.45 -0.01,0.17 -0.02,0.33 -0.03,0.49 0,0.16 -0.01,0.32 -0.02,0.48 -0.01,0.15 -0.02,0.31 -0.02,0.45 -0.01,0.16 -0.02,0.32 -0.03,0.49 0,0.15 -0.01,0.31 -0.03,0.45 -0.01,0.17 -0.02,0.33 -0.03,0.49 0,0.16 -0.01,0.31 -0.03,0.45 -0.01,0.17 -0.02,0.33 -0.03,0.49 0,0.16 -0.01,0.31 -0.02,0.47 -0.01,0.16 -0.01,0.32 -0.02,0.49 -0.01,0.15 -0.03,0.3 -0.03,0.45 -0.01,0.16 -0.02,0.32 -0.03,0.48 -0.01,0.16 -0.02,0.32 -0.03,0.48 0,0.16 -0.01,0.32 -0.02,0.48 -0.01,0.16 -0.02,0.32 -0.02,0.48 -0.01,0.15 -0.02,0.31 -0.02,0.45 -0.01,0.16 -0.02,0.32 -0.03,0.49 -0.01,0.15 -0.02,0.31 -0.03,0.45 -0.01,0.17 -0.02,0.33 -0.03,0.49 -0.01,0.15 -0.01,0.31 -0.02,0.45 -0.01,0.16 -0.02,0.33 -0.03,0.49 0,0.16 -0.01,0.32 -0.02,0.47 -0.01,0.16 -0.02,0.32 -0.03,0.48 0,0.16 -0.01,0.32 -0.02,0.47 -0.01,0.16 -0.01,0.32 -0.02,0.47 -0.01,0.17 -0.02,0.33 -0.03,0.49 0,0.16 -0.01,0.31 -0.02,0.47 -0.01,0.16 -0.02,0.32 -0.03,0.48 0,0.16 -0.01,0.31 -0.02,0.47 0,0.16 -0.01,0.32 -0.02,0.49 -0.01,0.15 -0.02,0.31 -0.03,0.47 0,0.16 -0.01,0.31 -0.02,0.47 -0.01,0.16 -0.02,0.32 -0.03,0.49 0,0.15 -0.01,0.29 -0.02,0.45 -0.01,0.16 -0.01,0.32 -0.02,0.48 -0.01,0.16 -0.02,0.32 -0.03,0.47 0,0.16 -0.01,0.32 -0.02,0.48 -0.01,0.16 -0.01,0.31 -0.02,0.47 -0.01,0.16 -0.02,0.32 -0.03,0.48 -0.01,0.16 -0.02,0.32 -0.02,0.48 -0.01,0.16 -0.02,0.31 -0.03,0.45 -0.01,0.17 -0.02,0.33 -0.02,0.51 -0.01,0.15 -0.02,0.31 -0.03,0.45 -0.01,0.16 -0.02,0.32 -0.03,0.48 -0.01,0.16 -0.01,0.32 -0.02,0.47 -0.01,0.17 -0.02,0.33 -0.03,0.49 -0.01,0.16 -0.01,0.31 -0.02,0.47 -0.01,0.16 -0.02,0.32 -0.03,0.48 0,0.16 -0.01,0.32 -0.02,0.48 -0.01,0.15 -0.01,0.31 -0.02,0.47 -0.01,0.16 -0.02,0.32 -0.03,0.48 -0.01,0.16 -0.01,0.31 -0.03,0.45 -0.01,0.17 -0.02,0.33 -0.02,0.51 0,0.15 -0.01,0.29 -0.03,0.45 -0.02,0.16 -0.01,0.32 -0.02,0.48 -0.01,0.16 -0.02,0.31 -0.03,0.47 0,0.16 -0.01,0.32 -0.02,0.49 -0.01,0.15 -0.02,0.31 -0.03,0.47 0,0.16 -0.01,0.31 -0.02,0.47 -0.01,0.16 -0.02,0.33 -0.03,0.49 0,0.15 -0.02,0.29 -0.03,0.45 0,0.16 -0.01,0.32 -0.02,0.48 -0.01,0.16 -0.02,0.31 -0.02,0.47 -0.01,0.16 -0.02,0.33 -0.03,0.49 -0.01,0.15 -0.01,0.31 -0.02,0.45 -0.01,0.17 -0.02,0.33 -0.03,0.49 -0.01,0.16 -0.01,0.32 -0.02,0.47 -0.01,0.16 -0.02,0.32 -0.02,0.47 -0.01,0.17 -0.02,0.33 -0.03,0.49 -0.01,0.16 -0.02,0.31 -0.03,0.45 -0.01,0.17 -0.02,0.33 -0.03,0.49 -0.01,0.15 -0.01,0.31 -0.02,0.47 -0.01,0.16 -0.02,0.32 -0.03,0.48 0,0.16 -0.01,0.31 -0.03,0.45 0.01,0.17 0,0.33 -0.02,0.49 -0.01,0.15 -0.02,0.31 -0.03,0.47 0,0.16 -0.01,0.32 -0.02,0.48 -0.01,0.16 -0.02,0.32 -0.03,0.48 0,0.15 -0.01,0.31 -0.02,0.47 -0.01,0.16 -0.02,0.32 -0.03,0.49 0,0.15 -0.01,0.29 -0.03,0.45 0,0.16 -0.01,0.32 -0.02,0.48 -0.01,0.16 -0.02,0.32 -0.03,0.47 0,0.16 0,0.33 -0.02,0.49 -0.01,0.15 -0.01,0.31 -0.03,0.45 -0.01,0.16 -0.02,0.33 -0.03,0.49 -0.01,0.16 -0.02,0.32 -0.03,0.48 0,0.16 -0.01,0.31 -0.02,0.47 0,0.16 -0.01,0.32 -0.02,0.47 -0.01,0.16 -0.02,0.32 -0.02,0.47 -0.01,0.16 -0.02,0.32 -0.03,0.48 -0.01,0.16 -0.01,0.31 -0.02,0.47 -0.01,0.16 -0.02,0.33 -0.03,0.49 0,0.16 -0.01,0.31 -0.02,0.47 -0.01,0.16 -0.02,0.32 -0.02,0.48 -0.01,0.16 -0.02,0.32 -0.03,0.48 -0.01,0.15 -0.01,0.31 -0.02,0.47 -0.01,0.16 -0.02,0.32 -0.03,0.48 0,0.15 -0.01,0.31 -0.03,0.45 -0.01,0.17 -0.02,0.33 -0.03,0.49 0,0.16 -0.01,0.31 -0.02,0.47 0,0.16 -0.01,0.32 -0.02,0.48 -0.01,0.16 -0.02,0.31 -0.02,0.47 -0.01,0.16 -0.02,0.33 -0.03,0.49 -0.01,0.16 -0.02,0.31 -0.03,0.47 0,0.16 -0.01,0.31 -0.02,0.47 -0.01,0.16 -0.01,0.32 -0.02,0.49 -0.01,0.15 -0.03,0.3 -0.04,0.46 0,0.16 -0.01,0.32 -0.02,0.48 -0.01,0.16 -0.01,0.32 -0.02,0.47 -0.01,0.16 -0.02,0.33 -0.03,0.49 -0.01,0.15 -0.01,0.31 -0.03,0.45 -0.01,0.16 -0.02,0.33 -0.03,0.49 -0.01,0.16 -0.01,0.32 -0.02,0.48 -0.01,0.15 -0.02,0.29 -0.03,0.44 -0.01,0.17 -0.02,0.33 -0.02,0.51 -0.01,0.15 -0.01,0.31 -0.02,0.45 -0.01,0.17 -0.02,0.33 -0.03,0.49 -0.01,0.16 -0.01,0.31 -0.02,0.45 -0.01,0.17 -0.02,0.33 -0.03,0.49 0,0.16 -0.01,0.32 -0.02,0.47 -0.01,0.16 -0.01,0.32 -0.03,0.48 0,0.16 -0.01,0.32 -0.02,0.48 -0.01,0.16 -0.01,0.31 -0.02,0.47 -0.01,0.16 -0.02,0.32 -0.03,0.48 0,0.16 -0.01,0.31 -0.02,0.47 -0.01,0.16 -0.02,0.32 -0.03,0.48 0,0.16 -0.01,0.31 -0.02,0.47 0,0.16 -0.01,0.32 -0.02,0.48 -0.01,0.16 -0.02,0.32 -0.02,0.47 -0.01,0.16 -0.02,0.33 -0.03,0.49 -0.01,0.16 -0.02,0.31 -0.02,0.47 -0.01,0.16 -0.02,0.31 -0.03,0.47 0,0.16 0,0.33 -0.02,0.49 -0.01,0.15 -0.02,0.31 -0.02,0.45 -0.01,0.16 -0.02,0.33 -0.03,0.49 -0.01,0.15 -0.01,0.31 -0.02,0.45 -0.01,0.17 -0.02,0.33 -0.03,0.49 0,0.15 -0.01,0.31 -0.03,0.45 -0.01,0.16 -0.02,0.33 -0.03,0.49 0,0.16 -0.01,0.31 -0.02,0.47 -0.01,0.16 -0.01,0.32 -0.02,0.48 -0.01,0.16 -0.02,0.32 -0.03,0.48 -0.01,0.16 -0.01,0.31 -0.03,0.45 -0.01,0.17 -0.02,0.33 -0.03,0.49 0,0.16 -0.01,0.31 -0.03,0.45 -0.01,0.17 0,0.33 -0.03,0.49 0,0.16 -0.01,0.31 -0.02,0.47 0,0.16 -0.01,0.32 -0.02,0.48 -0.01,0.16 -0.02,0.31 -0.02,0.47 -0.01,0.16 -0.02,0.32 -0.03,0.49 -0.01,0.16 -0.02,0.32 -0.03,0.48 0,0.15 -0.01,0.31 -0.02,0.47 -0.01,0.16 -0.01,0.32 -0.02,0.47 -0.01,0.16 -0.02,0.32 -0.02,0.47 -0.01,0.16 -0.02,0.33 -0.03,0.49 -0.01,0.15 -0.01,0.31 -0.03,0.45 -0.01,0.17 -0.02,0.33 -0.03,0.49 -0.01,0.16 -0.01,0.31 -0.02,0.45 -0.01,0.17 -0.02,0.33 -0.03,0.49 -0.01,0.16 -0.01,0.32 -0.02,0.48 -0.01,0.16 -0.02,0.31 -0.03,0.45 -0.01,0.17 -0.02,0.33 -0.03,0.49 0,0.15 -0.01,0.31 -0.02,0.45 -0.01,0.16 -0.02,0.33 -0.03,0.49 0,0.16 -0.01,0.31 -0.03,0.45 -0.01,0.17 -0.02,0.33 -0.03,0.49 0,0.16 -0.01,0.31 -0.02,0.47 0,0.16 -0.01,0.32 -0.02,0.48 -0.01,0.16 -0.02,0.32 -0.03,0.48 0,0.16 -0.01,0.31 -0.02,0.47 -0.01,0.16 -0.02,0.32 -0.03,0.48 0,0.16 -0.01,0.31 -0.02,0.47 0,0.16 -0.01,0.32 -0.02,0.48 -0.01,0.16 -0.02,0.32 -0.03,0.47 0,0.16 -0.01,0.32 -0.02,0.49 -0.01,0.15 -0.02,0.31 -0.02,0.45 -0.01,0.17 -0.02,0.33 -0.03,0.49 -0.01,0.16 -0.02,0.32 -0.02,0.47 -0.01,0.16 -0.02,0.31 -0.03,0.45 -0.01,0.17 -0.02,0.33 -0.02,0.51 -0.01,0.15 -0.02,0.31 -0.03,0.45 -0.01,0.16 -0.02,0.32 -0.03,0.49 -0.01,0.15 -0.01,0.31 -0.03,0.45 -0.01,0.17 -0.02,0.33 -0.03,0.49 0,0.16 -0.01,0.31 -0.03,0.45 -0.01,0.17 -0.02,0.33 -0.03,0.49 0,0.16 -0.01,0.32 -0.02,0.48 -0.01,0.16 -0.01,0.31 -0.02,0.47 -0.01,0.16 -0.02,0.32 -0.03,0.48 0,0.16 -0.01,0.31 -0.03,0.45 -0.01,0.17 -0.02,0.33 -0.02,0.51 0,0.15 -0.01,0.29 -0.02,0.45 -0.01,0.16 -0.02,0.32 -0.03,0.49 0,0.15 -0.01,0.31 -0.03,0.45 0,0.16 -0.01,0.32 -0.02,0.49 -0.01,0.15 -0.02,0.31 -0.03,0.47 0,0.16 -0.01,0.31 -0.02,0.47 -0.01,0.16 -0.02,0.32 -0.03,0.48 0,0.16 -0.01,0.31 -0.01,0.46 -0.01,0.16 -0.02,0.32 -0.03,0.49 -0.01,0.15 -0.02,0.31 -0.03,0.45 -0.01,0.16 -0.02,0.32 -0.03,0.48 -0.01,0.16 -0.01,0.31 -0.02,0.47 -0.01,0.16 -0.02,0.32 -0.03,0.49 -0.01,0.16 -0.01,0.32 -0.02,0.47 -0.01,0.16 -0.02,0.32 -0.02,0.47 -0.01,0.16 -0.02,0.33 -0.03,0.49 -0.01,0.15 -0.01,0.31 -0.02,0.45 -0.01,0.17 -0.02,0.33 -0.03,0.49 -0.01,0.16 -0.01,0.31 -0.02,0.47 -0.01,0.16 -0.02,0.32 -0.03,0.48 0,0.16 -0.01,0.31 -0.02,0.47 -0.01,0.16 -0.02,0.32 -0.03,0.48 0,0.16 -0.01,0.31 -0.02,0.47 0,0.16 -0.01,0.32 -0.02,0.48 -0.01,0.16 -0.02,0.32 -0.03,0.48 0,0.16 -0.01,0.32 -0.02,0.48 -0.01,0.16 -0.02,0.32 -0.03,0.48 0,0.15 -0.01,0.29 -0.03,0.44 0.01,0.17 0,0.33 -0.01,0.5 -0.01,0.15 -0.02,0.31 -0.03,0.45 -0.01,0.16 -0.02,0.32 -0.03,0.48 -0.01,0.16 -0.01,0.32 -0.02,0.47 -0.01,0.17 -0.02,0.33 -0.03,0.49 -0.01,0.16 -0.02,0.32 -0.02,0.48 -0.01,0.15 -0.02,0.31 -0.02,0.45 -0.01,0.17 -0.02,0.33 -0.03,0.49 -0.01,0.15 -0.02,0.31 -0.03,0.45 -0.01,0.17 -0.02,0.33 -0.03,0.49 -0.01,0.15 -0.01,0.31 -0.03,0.45 -0.01,0.17 -0.02,0.33 -0.03,0.49 0,0.16 -0.01,0.31 -0.02,0.47 -0.01,0.16 -0.02,0.32 -0.03,0.48 0,0.16 -0.01,0.32 -0.02,0.48 -0.01,0.15 -0.01,0.31 -0.02,0.47 -0.01,0.16 -0.02,0.32 -0.03,0.48 0,0.15 -0.01,0.31 -0.02,0.47 -0.01,0.16 -0.02,0.32 -0.03,0.49 0,0.15 -0.01,0.29 -0.02,0.45 0,0.16 -0.01,0.32 -0.02,0.48 -0.01,0.16 -0.02,0.32 -0.03,0.47 0,0.16 -0.01,0.33 -0.02,0.49 -0.01,0.16 -0.02,0.31 -0.03,0.47 0,0.16 -0.01,0.31 -0.02,0.47 -0.01,0.16 -0.02,0.33 -0.03,0.49 0,0.15 -0.01,0.31 -0.01,0.45 -0.01,0.16 -0.02,0.33 -0.03,0.49 -0.01,0.16 -0.02,0.31 -0.02,0.47 -0.02,0.14 -0.02,0.28 -0.03,0.43 -0.32,9.29 -4.95,22.38 -24.99,32.51 -18.97,9.57 -43.86,19.91 -74.38,27.95 -34.64,9.13 -76.55,15.29 -125.25,14.04 C 324.48,668.7 238.95,636.9 188.06,581.89 154.19,545.24 137.63,500.18 140.18,451.58 v -0.19 c 0.01,-0.11 0.01,-0.21 0.01,-0.31 0.01,-0.08 0.02,-0.18 0.02,-0.27 l 0.03,-0.64 c 0,-0.09 0.02,-0.19 0.02,-0.27 0,-0.09 0.01,-0.17 0.01,-0.25 l 0.02,-0.43 c 0.01,-0.12 0.01,-0.21 0.02,-0.31 l -0.01,-0.17 c 0,-0.09 0.01,-0.17 0.02,-0.24 0.01,-0.08 0,-0.19 0.02,-0.28 0,-0.06 0.01,-0.16 0.01,-0.27 l 0.01,-0.16 c 0.01,-0.12 0.01,-0.21 0.02,-0.31 l 0.02,-0.37 c 0,-0.1 0,-0.21 0.01,-0.31 0.01,-0.08 0.01,-0.17 0.01,-0.27 l 0.03,-0.38 c 0,-0.12 0,-0.21 0.01,-0.32 0.01,-0.07 0,-0.15 0.01,-0.23 0.01,-0.08 0.01,-0.16 0.02,-0.24 0.01,-0.07 0.01,-0.15 0.02,-0.24 l 0.01,-0.2 c 0,-0.1 0.01,-0.21 0.01,-0.31 v -0.19 c 0.01,-0.07 0.01,-0.15 0.02,-0.23 l 0.02,-0.24 c 0,-0.1 0.01,-0.2 0.01,-0.29 v -0.19 c 0.01,-0.11 0.01,-0.2 0.01,-0.29 l 0.04,-0.66 c 0,-0.09 0.02,-0.19 0.01,-0.29 l 0.03,-0.64 c 0.01,-0.11 0.02,-0.22 0.02,-0.31 l 0.04,-0.67 c 0,-0.09 0,-0.19 0.02,-0.28 l 0.01,-0.17 c 0.01,-0.08 0.01,-0.16 0.02,-0.24 0,-0.09 0,-0.17 0,-0.25 0.01,-0.1 0.02,-0.19 0.03,-0.28 v -0.19 c 0,-0.11 0.01,-0.2 0.02,-0.29 l 0.03,-0.67 c 0,-0.09 0,-0.19 0.02,-0.28 l 0.02,-0.66 c 0.01,-0.1 0.02,-0.19 0.03,-0.28 l 0.02,-0.66 c 0.01,-0.1 0.02,-0.19 0.01,-0.29 l 0.02,-0.19 c 0.01,-0.07 0,-0.15 0.01,-0.21 0.01,-0.08 0.01,-0.17 0.01,-0.25 0,-0.11 0.01,-0.2 0.01,-0.29 l 0.02,-0.19 c -0.01,-0.08 0,-0.16 0.01,-0.24 0,-0.12 0,-0.24 0.01,-0.36 l 0.01,-0.35 c 0.01,-0.11 0.01,-0.2 0.02,-0.29 l 0.04,-0.66 c 0,-0.09 0.01,-0.2 0.01,-0.29 l 0.03,-0.64 c 0.01,-0.11 0.02,-0.22 0.02,-0.31 v -0.19 c 0,-0.08 0.01,-0.15 0.02,-0.23 0.01,-0.08 0.01,-0.16 0.01,-0.25 0,-0.09 0,-0.19 0.02,-0.28 v -0.19 c 0,-0.09 0.01,-0.17 0.01,-0.25 0.01,-0.12 0.01,-0.24 0.02,-0.36 l 0.02,-0.33 c 0,-0.09 0.01,-0.2 0.01,-0.29 l 0.03,-0.64 c 0.01,-0.12 0.01,-0.21 0.02,-0.31 l 0.04,-0.67 c 0,-0.09 0,-0.19 0.02,-0.28 l -0.01,-0.17 c 0.02,-0.08 0.02,-0.16 0.02,-0.24 0,-0.09 0.01,-0.17 0.01,-0.25 0.01,-0.1 0.02,-0.19 0.02,-0.29 l 0.02,-0.19 c 0.01,-0.08 0.01,-0.16 0.02,-0.23 0,-0.13 0,-0.25 0.01,-0.37 h 0.01 l 0.01,-0.35 c 0,-0.09 0,-0.19 0.02,-0.28 l 0.02,-0.66 c 0.01,-0.1 0.02,-0.19 0.02,-0.28 l 0.04,-0.67 c 0,-0.09 0.02,-0.19 0.01,-0.29 l 0.02,-0.19 c -0.01,-0.08 0,-0.15 0.01,-0.21 0.01,-0.08 0.01,-0.17 0.01,-0.25 0,-0.11 0.01,-0.2 0.01,-0.29 v -0.19 c 0.01,-0.08 0.01,-0.16 0.02,-0.24 0.01,-0.12 0.02,-0.24 0.02,-0.36 l 0.01,-0.35 c 0.01,-0.1 0.02,-0.19 0.02,-0.28 l 0.04,-0.67 c 0,-0.09 0.01,-0.2 0.01,-0.29 l 0.03,-0.64 c 0.01,-0.12 0.02,-0.22 0.02,-0.31 l 0.03,-0.67 c 0,-0.09 0,-0.19 0.02,-0.28 v -0.19 c 0.01,-0.08 0.01,-0.16 0.02,-0.23 -0.01,-0.09 0,-0.17 0,-0.25 l 0.03,-0.48 c 0,-0.09 0,-0.19 0.02,-0.28 l 0.03,-0.64 c 0.01,-0.12 0.01,-0.21 0.02,-0.31 l 0.02,-0.66 c 0.01,-0.1 0.02,-0.19 0.02,-0.28 l 0.04,-0.67 c 0,-0.09 0.02,-0.19 0.02,-0.29 l 0.02,-0.19 c -0.01,-0.08 0,-0.15 0.01,-0.21 0,-0.09 0.01,-0.17 0.01,-0.25 0,-0.11 0.01,-0.2 0.01,-0.29 v -0.19 c 0.01,-0.1 0.02,-0.19 0.03,-0.28 l 0.02,-0.66 c 0.01,-0.1 0.02,-0.19 0.02,-0.28 l 0.03,-0.67 c 0,-0.09 0.01,-0.2 0.02,-0.29 l 0.04,-0.66 c 0,-0.1 0.01,-0.2 0.01,-0.29 v -0.19 c 0.01,-0.08 0.01,-0.15 0.02,-0.23 0.01,-0.08 0.01,-0.17 0.01,-0.25 0,-0.09 0,-0.19 0.02,-0.28 v -0.19 c 0,-0.11 0.01,-0.2 0.02,-0.28 l 0.04,-0.67 c 0,-0.09 0.01,-0.2 0.01,-0.29 l 0.03,-0.64 c 0.01,-0.12 0.01,-0.21 0.02,-0.31 l 0.02,-0.66 c 0.01,-0.1 0.02,-0.19 0.03,-0.28 v -0.19 c 0.01,-0.08 0.01,-0.16 0.02,-0.24 -0.01,-0.08 0,-0.16 0,-0.24 0.01,-0.1 0.02,-0.19 0.01,-0.29 l 0.02,-0.19 c 0,-0.09 0,-0.19 0.02,-0.28 l 0.03,-0.64 c 0.01,-0.12 0.01,-0.21 0.02,-0.31 l 0.02,-0.66 c 0.01,-0.1 0.02,-0.19 0.02,-0.28 l 0.04,-0.67 c 0,-0.09 0.02,-0.19 0.01,-0.29 l 0.02,-0.19 c -0.01,-0.08 0,-0.15 0.01,-0.23 0.01,-0.08 0.01,-0.16 0.02,-0.24 0,-0.11 0.01,-0.2 0.01,-0.29 v -0.19 c 0.01,-0.08 0.01,-0.16 0.02,-0.24 0.01,-0.12 0.02,-0.24 0.02,-0.37 l 0.02,-0.33 c 0,-0.11 0.01,-0.2 0.02,-0.28 l 0.03,-0.67 c 0,-0.09 0.01,-0.2 0.02,-0.29 l 0.03,-0.67 c 0,-0.09 0,-0.19 0.02,-0.28 v -0.19 c 0.01,-0.08 0.01,-0.15 0.02,-0.23 0,-0.09 0.01,-0.17 0,-0.25 0.01,-0.1 0.02,-0.19 0.03,-0.3 l 0.01,-0.17 c 0,-0.09 0.01,-0.17 0.01,-0.24 0,-0.12 0,-0.24 0.01,-0.35 l 0.02,-0.37 c 0,-0.09 0,-0.19 0.02,-0.28 l 0.03,-0.64 c 0.01,-0.12 0.01,-0.21 0.02,-0.32 l 0.03,-0.65 c 0.01,-0.1 0.01,-0.2 0.02,-0.28 l 0.01,-0.2 c 0.01,-0.07 0,-0.15 0.01,-0.23 0.01,-0.08 0.01,-0.16 0.02,-0.24 0,-0.09 0.02,-0.19 0.02,-0.29 l 0.02,-0.19 c -0.01,-0.08 0,-0.16 0,-0.24 0.01,-0.12 0.01,-0.24 0.02,-0.36 l 0.02,-0.32 c 0.01,-0.12 0.01,-0.21 0.01,-0.32 l 0.04,-0.66 c 0.01,-0.11 0.01,-0.2 0.01,-0.29 l 0.04,-0.66 c 0,-0.09 0.01,-0.2 0.01,-0.29 l 0.04,-0.67 c 0,-0.09 0.02,-0.19 0.02,-0.28 v -0.19 c 0.01,-0.08 0.01,-0.15 0.02,-0.23 0.01,-0.08 0.01,-0.17 0.01,-0.25 l 0.02,-0.47 c 0,-0.11 0.01,-0.2 0.02,-0.28 l 0.03,-0.68 c 0,-0.09 0,-0.19 0.02,-0.28 l 0.03,-0.67 c 0,-0.09 0,-0.19 0.02,-0.28 l 0.02,-0.66 c 0.01,-0.1 0.02,-0.19 0.01,-0.29 l 0.02,-0.19 c 0.01,-0.07 0.01,-0.15 0.01,-0.23 0.01,-0.07 0.01,-0.15 0.02,-0.23 0,-0.11 0.01,-0.21 0.01,-0.31 l 0.02,-0.19 c 0,-0.09 0,-0.19 0.02,-0.28 l 0.03,-0.64 c 0.01,-0.12 0.01,-0.21 0.02,-0.32 l 0.03,-0.65 c 0.01,-0.11 0.01,-0.2 0.02,-0.29 l 0.04,-0.66 c 0,-0.09 0.01,-0.2 0.01,-0.29 v -0.19 c 0.01,-0.07 0.01,-0.15 0.02,-0.23 0.01,-0.08 0.01,-0.16 0.01,-0.25 0,-0.09 0,-0.19 0.02,-0.28 l 0.01,-0.17 c 0,-0.1 0.01,-0.21 0.01,-0.31 l 0.04,-0.66 c 0,-0.11 0.01,-0.2 0.02,-0.29 l 0.04,-0.67 c 0,-0.08 0,-0.19 0.02,-0.28 l 0.04,-0.67 c 0,-0.09 0,-0.19 0.02,-0.28 v -0.19 c 0.01,-0.08 0.01,-0.15 0.02,-0.23 0,-0.09 -0.01,-0.17 0,-0.25 0.01,-0.1 0.02,-0.19 0.03,-0.3 v -0.19 c 0,-0.09 0.02,-0.19 0.02,-0.28 l 0.04,-0.67 c 0,-0.09 0,-0.19 0.02,-0.28 l 0.02,-0.66 c 0.01,-0.1 0.01,-0.2 0.03,-0.3 l 0.03,-0.65 c 0,-0.09 0.02,-0.19 0.01,-0.29 l 0.02,-0.19 c 0.01,-0.08 0,-0.15 0.01,-0.23 0.01,-0.07 0.01,-0.15 0.02,-0.23 0,-0.11 0.01,-0.21 0.01,-0.31 v -0.19 c 0.01,-0.08 0.01,-0.16 0.02,-0.24 0.01,-0.08 0.01,-0.16 0.02,-0.24 0,-0.04 0.01,-0.08 0.01,-0.12 l 0.02,-0.32 c 0.01,-0.12 0.01,-0.23 0.01,-0.32 l 0.04,-0.66 c 0,-0.11 0.01,-0.2 0.01,-0.29 l 0.04,-0.66 c 0,-0.09 0.01,-0.2 0.01,-0.29 v -0.19 c 0.01,-0.08 0.01,-0.15 0.02,-0.23 0.01,-0.08 0.01,-0.17 0.01,-0.25 0,-0.09 0,-0.19 0.02,-0.28 l 0.01,-0.17 c 0,-0.09 0.01,-0.17 0.01,-0.25 0,-0.13 0.01,-0.25 0.02,-0.37 l 0.02,-0.33 c 0,-0.11 0.01,-0.2 0.02,-0.29 l 0.04,-0.67 c 0,-0.09 0,-0.19 0.02,-0.28 l 0.02,-0.66 c 0.01,-0.1 0.02,-0.19 0.02,-0.28 l 0.01,-0.17 c 0.01,-0.1 0.02,-0.18 0.02,-0.24 0,-0.09 0.01,-0.17 0.01,-0.25 0.01,-0.1 0.02,-0.19 0.01,-0.29 l 0.02,-0.19 c 0.01,-0.08 0.01,-0.16 0.02,-0.24 0,-0.11 0.01,-0.23 0.01,-0.35 l 0.02,-0.36 c 0,-0.09 0,-0.19 0.02,-0.28 l 0.02,-0.66 c 0.01,-0.11 0.01,-0.2 0.03,-0.3 l 0.03,-0.65 c 0,-0.09 0.02,-0.19 0.01,-0.29 l 0.03,-0.64 c 0.01,-0.11 0.02,-0.22 0.02,-0.31 v -0.19 c 0.01,-0.08 0.01,-0.16 0.02,-0.24 0.01,-0.12 0.02,-0.24 0.02,-0.37 l 0.02,-0.32 c 0,-0.11 0.01,-0.21 0.01,-0.31 l 0.04,-0.66 c 0,-0.1 0.01,-0.2 0.01,-0.29 l 0.04,-0.67 c 0,-0.09 0,-0.19 0.02,-0.28 l 0.04,-0.67 c 0,-0.09 0,-0.19 0.02,-0.28 v -0.17 c 0.01,-0.1 0.02,-0.18 0.03,-0.24 -0.01,-0.09 0,-0.17 0,-0.25 0.01,-0.1 0.02,-0.19 0.03,-0.3 v -0.19 c 0,-0.09 0.02,-0.19 0.02,-0.28 l 0.03,-0.67 c 0,-0.09 0,-0.19 0.02,-0.28 l 0.02,-0.66 c 0.01,-0.1 0.02,-0.19 0.02,-0.28 l 0.04,-0.67 c 0,-0.09 0.02,-0.19 0.01,-0.29 l 0.02,-0.19 c -0.01,-0.08 0,-0.15 0.01,-0.23 0.01,-0.07 0.01,-0.15 0.01,-0.23 0.01,-0.11 0.02,-0.22 0.02,-0.31 v -0.19 c 0.01,-0.1 0.02,-0.19 0.03,-0.3 l 0.03,-0.65 c 0.01,-0.11 0.01,-0.2 0.02,-0.29 l 0.04,-0.66 c 0,-0.09 0.01,-0.2 0.02,-0.29 l 0.03,-0.64 c 0.01,-0.12 0.02,-0.22 0.02,-0.31 v -0.19 c 0,-0.08 0.01,-0.15 0.02,-0.23 0.01,-0.08 0.01,-0.17 0.01,-0.25 0,-0.09 0,-0.19 0.02,-0.28 v -0.19 c 0,-0.11 0.01,-0.2 0.01,-0.29 l 0.04,-0.67 c 0,-0.09 0.02,-0.19 0.02,-0.28 l 0.04,-0.67 c 0,-0.09 0,-0.19 0.02,-0.28 l 0.02,-0.66 c 0.01,-0.1 0.02,-0.19 0.02,-0.28 l 0.01,-0.17 c 0,-0.09 0.02,-0.18 0.01,-0.25 0,-0.08 0.01,-0.16 0.01,-0.24 0,-0.09 0.02,-0.19 0.02,-0.29 l 0.02,-0.19 c 0.01,-0.08 0.01,-0.16 0.02,-0.24 0,-0.12 0,-0.24 0.01,-0.36 l 0.01,-0.35 c 0.01,-0.1 0.02,-0.19 0.03,-0.3 l 0.03,-0.65 c 0.01,-0.1 0.02,-0.19 0.02,-0.28 l 0.04,-0.67 c 0,-0.09 0.01,-0.2 0.01,-0.29 v -0.19 c 0.01,-0.08 0.01,-0.15 0.02,-0.23 0.01,-0.07 0,-0.15 0.01,-0.23 0.01,-0.11 0.02,-0.22 0.02,-0.31 v -0.19 c 0.01,-0.08 0.01,-0.16 0.02,-0.24 0.01,-0.12 0.01,-0.25 0.02,-0.37 l 0.02,-0.33 c 0,-0.11 0.01,-0.2 0.02,-0.29 l 0.04,-0.66 c 0,-0.09 0.01,-0.2 0.01,-0.29 l 0.03,-0.64 c 0.01,-0.12 0.01,-0.21 0.02,-0.31 v -0.19 c 0,-0.08 0.01,-0.15 0.02,-0.23 0,-0.06 0,-0.13 0,-0.19 0.01,-0.03 0,-0.05 0.01,-0.07 0.1,-2.02 0.24,-4.03 0.43,-6.03 l 25.13,19.19 53.74,41.03 262.69,122.15 140.94,-41.13 25.91,-7.56 c 2.45,4.52 3.9,9.08 4.37,13.63 z"
           id="path13437" />
        <path
           class="st2"
           d="m 658.23,195 c 0.15,0.51 0.28,1.01 0.4,1.52 l 0.09,0.36 c 0.12,0.57 0.23,1.14 0.33,1.69 0.01,0.1 0.04,0.19 0.05,0.28 0.01,0.1 0.03,0.2 0.04,0.31 0.06,0.42 0.11,0.83 0.15,1.25 0.05,0.44 0.08,0.86 0.11,1.3 0.01,0.09 0.01,0.19 0.02,0.28 0.07,1.31 0.05,2.62 -0.06,3.93 0,0.09 0,0.19 -0.02,0.28 0,0.15 -0.01,0.31 -0.02,0.47 -0.01,0.16 -0.02,0.32 -0.02,0.48 -0.01,0.16 -0.02,0.32 -0.03,0.47 0,0.16 -0.01,0.32 -0.02,0.48 -0.01,0.16 -0.02,0.32 -0.03,0.47 0,0.16 -0.01,0.32 -0.02,0.48 -0.01,0.16 -0.02,0.32 -0.03,0.49 0,0.15 -0.01,0.31 -0.03,0.45 0,0.16 -0.01,0.32 -0.02,0.48 -0.01,0.16 -0.02,0.31 -0.03,0.47 0,0.16 -0.01,0.32 -0.02,0.48 -0.01,0.16 -0.01,0.32 -0.02,0.47 -0.01,0.16 -0.02,0.33 -0.03,0.49 -0.01,0.15 -0.01,0.31 -0.02,0.47 -0.01,0.15 -0.02,0.31 -0.02,0.47 -0.01,0.16 -0.02,0.32 -0.03,0.48 -0.01,0.16 -0.01,0.32 -0.02,0.48 -0.01,0.16 -0.02,0.31 -0.03,0.47 -0.01,0.16 -0.01,0.32 -0.02,0.48 -0.01,0.16 -0.02,0.32 -0.03,0.48 0,0.15 -0.01,0.31 -0.02,0.47 -0.01,0.16 -0.02,0.32 -0.03,0.48 0,0.16 -0.01,0.31 -0.02,0.47 0,0.16 -0.01,0.31 -0.02,0.47 -0.01,0.16 -0.02,0.32 -0.03,0.48 0,0.16 -0.01,0.32 -0.02,0.47 -0.01,0.17 -0.02,0.33 -0.02,0.51 0,0.15 -0.01,0.31 -0.03,0.45 -0.01,0.16 -0.01,0.32 -0.02,0.48 -0.01,0.16 -0.02,0.32 -0.03,0.47 0,0.16 -0.01,0.32 -0.02,0.48 -0.01,0.16 -0.02,0.32 -0.02,0.47 -0.01,0.16 -0.02,0.32 -0.03,0.47 0,0.17 -0.01,0.33 -0.02,0.49 -0.01,0.15 -0.02,0.31 -0.03,0.47 0,0.16 0,0.33 -0.02,0.49 -0.01,0.15 -0.02,0.31 -0.03,0.45 -0.01,0.16 -0.02,0.32 -0.03,0.49 -0.01,0.15 -0.01,0.31 -0.03,0.45 -0.01,0.17 -0.02,0.33 -0.03,0.49 0,0.15 -0.01,0.31 -0.02,0.47 -0.01,0.16 -0.01,0.31 -0.02,0.47 -0.01,0.16 -0.02,0.32 -0.03,0.48 -0.01,0.16 -0.01,0.31 -0.02,0.47 -0.01,0.17 -0.02,0.33 -0.03,0.49 -0.01,0.16 -0.01,0.31 -0.02,0.47 -0.01,0.16 -0.02,0.32 -0.03,0.48 0,0.16 -0.01,0.31 -0.02,0.47 0,0.16 -0.01,0.32 -0.02,0.48 -0.01,0.16 -0.02,0.32 -0.03,0.47 0,0.16 -0.01,0.32 -0.02,0.47 -0.01,0.16 -0.02,0.32 -0.03,0.49 0,0.15 -0.01,0.31 -0.03,0.45 -0.01,0.17 -0.01,0.35 -0.02,0.51 0,0.15 -0.01,0.31 -0.03,0.45 0,0.16 -0.01,0.32 -0.02,0.48 -0.01,0.16 -0.02,0.32 -0.03,0.48 0,0.15 -0.01,0.31 -0.02,0.47 -0.01,0.16 -0.01,0.32 -0.02,0.48 -0.01,0.16 -0.02,0.32 -0.03,0.48 0,0.15 -0.01,0.31 -0.02,0.47 -0.01,0.15 -0.02,0.31 -0.02,0.47 -0.01,0.16 -0.02,0.33 -0.03,0.49 -0.01,0.16 -0.01,0.31 -0.03,0.45 -0.01,0.16 -0.02,0.33 -0.03,0.49 0,0.15 -0.01,0.31 -0.02,0.47 -0.01,0.16 -0.02,0.32 -0.03,0.48 0,0.16 -0.01,0.31 -0.02,0.47 -0.01,0.16 -0.02,0.32 -0.03,0.48 0,0.16 -0.01,0.32 -0.02,0.47 0,0.16 -0.01,0.32 -0.02,0.47 -0.01,0.17 -0.02,0.33 -0.02,0.51 0,0.15 -0.01,0.29 -0.03,0.45 -0.01,0.16 -0.02,0.32 -0.02,0.48 -0.01,0.16 -0.02,0.31 -0.03,0.47 0,0.16 -0.01,0.32 -0.02,0.48 -0.01,0.16 -0.02,0.32 -0.02,0.47 -0.01,0.16 -0.02,0.32 -0.03,0.48 -0.01,0.16 -0.01,0.32 -0.02,0.48 -0.01,0.15 -0.02,0.31 -0.04,0.46 0.01,0.17 0,0.33 -0.02,0.49 -0.01,0.16 -0.02,0.32 -0.03,0.47 0,0.16 -0.01,0.32 -0.02,0.48 -0.01,0.16 -0.02,0.32 -0.02,0.47 -0.01,0.17 -0.02,0.33 -0.03,0.49 -0.01,0.15 -0.01,0.31 -0.02,0.47 -0.01,0.16 -0.02,0.32 -0.03,0.48 0,0.15 -0.01,0.31 -0.02,0.47 -0.01,0.16 -0.01,0.31 -0.02,0.47 -0.01,0.16 -0.02,0.32 -0.03,0.48 0,0.16 -0.01,0.31 -0.02,0.47 -0.01,0.17 -0.02,0.33 -0.02,0.51 -0.01,0.15 -0.01,0.29 -0.02,0.45 -0.01,0.16 -0.02,0.32 -0.03,0.48 0,0.16 -0.01,0.31 -0.02,0.47 0,0.16 -0.01,0.32 -0.02,0.48 -0.01,0.16 -0.02,0.32 -0.03,0.47 0,0.16 -0.01,0.32 -0.02,0.47 0,0.16 -0.01,0.32 -0.02,0.48 -0.01,0.16 -0.02,0.32 -0.03,0.48 -0.01,0.16 -0.02,0.33 -0.03,0.49 0,0.15 -0.01,0.31 -0.02,0.45 0,0.16 -0.01,0.32 -0.02,0.48 -0.01,0.16 -0.01,0.32 -0.02,0.47 -0.01,0.16 -0.02,0.32 -0.03,0.48 -0.01,0.16 -0.01,0.32 -0.02,0.48 -0.01,0.15 -0.02,0.31 -0.02,0.47 -0.01,0.16 -0.02,0.32 -0.03,0.48 -0.01,0.16 -0.01,0.31 -0.02,0.47 -0.01,0.16 -0.02,0.33 -0.03,0.49 -0.01,0.16 -0.01,0.31 -0.02,0.47 -0.01,0.16 -0.02,0.32 -0.03,0.48 0,0.15 -0.01,0.31 -0.02,0.47 -0.01,0.16 -0.02,0.32 -0.03,0.48 0,0.16 -0.01,0.31 -0.02,0.47 0,0.16 -0.01,0.31 -0.02,0.47 -0.01,0.16 -0.02,0.32 -0.03,0.48 0,0.16 -0.01,0.32 -0.02,0.47 -0.01,0.17 -0.02,0.33 -0.02,0.51 0,0.15 -0.01,0.31 -0.02,0.45 -0.01,0.16 -0.01,0.32 -0.02,0.48 -0.01,0.16 -0.02,0.31 -0.03,0.47 0,0.16 -0.01,0.32 -0.02,0.48 -0.01,0.16 -0.02,0.32 -0.02,0.47 -0.01,0.16 -0.02,0.32 -0.03,0.48 -0.01,0.16 -0.01,0.32 -0.02,0.47 -0.01,0.16 -0.02,0.32 -0.02,0.48 -0.01,0.16 -0.02,0.33 -0.03,0.49 -0.01,0.16 -0.02,0.31 -0.03,0.45 -0.01,0.16 -0.02,0.32 -0.03,0.48 -0.01,0.16 -0.01,0.32 -0.02,0.47 -0.01,0.16 -0.02,0.32 -0.03,0.48 0,0.16 -0.01,0.32 -0.02,0.48 -0.01,0.16 -0.02,0.32 -0.03,0.48 0,0.16 -0.01,0.31 -0.02,0.47 -0.01,0.16 -0.01,0.32 -0.02,0.47 -0.01,0.17 -0.02,0.33 -0.02,0.51 -0.01,0.15 -0.01,0.29 -0.02,0.45 -0.01,0.16 -0.02,0.32 -0.03,0.48 0,0.16 -0.01,0.31 -0.02,0.47 -0.01,0.16 -0.02,0.32 -0.03,0.48 0,0.16 -0.01,0.31 -0.02,0.47 0,0.16 -0.01,0.32 -0.02,0.48 -0.01,0.16 -0.02,0.32 -0.03,0.47 0,0.16 -0.01,0.32 -0.02,0.48 -0.01,0.16 -0.02,0.32 -0.03,0.49 0,0.15 -0.01,0.31 -0.03,0.45 0,0.16 -0.01,0.32 -0.02,0.48 -0.01,0.16 -0.02,0.31 -0.02,0.47 -0.01,0.16 -0.02,0.32 -0.03,0.49 -0.01,0.15 -0.01,0.31 -0.03,0.45 -0.01,0.16 -0.02,0.33 -0.03,0.49 0,0.15 -0.01,0.31 -0.03,0.45 -0.01,0.16 -0.01,0.32 -0.02,0.48 -0.01,0.16 -0.02,0.32 -0.03,0.48 -0.01,0.16 -0.01,0.32 -0.02,0.48 -0.01,0.16 -0.02,0.32 -0.03,0.48 -0.01,0.16 -0.01,0.31 -0.02,0.47 -0.01,0.16 -0.02,0.32 -0.03,0.48 0,0.15 -0.01,0.31 -0.02,0.47 -0.01,0.16 -0.01,0.32 -0.02,0.48 -0.01,0.16 -0.02,0.31 -0.03,0.47 0,0.16 -0.01,0.31 -0.02,0.47 -0.01,0.16 -0.02,0.32 -0.03,0.48 0,0.16 -0.01,0.32 -0.02,0.47 -0.01,0.17 -0.02,0.33 -0.02,0.51 0,0.15 -0.01,0.31 -0.03,0.45 -0.01,0.16 -0.01,0.32 -0.02,0.48 -0.01,0.16 -0.02,0.32 -0.03,0.47 0,0.16 -0.01,0.32 -0.02,0.48 -0.01,0.16 -0.02,0.32 -0.02,0.48 -0.01,0.15 -0.02,0.31 -0.03,0.47 0,0.16 -0.01,0.32 -0.02,0.48 -0.01,0.15 -0.02,0.31 -0.02,0.47 -0.01,0.16 -0.02,0.33 -0.03,0.49 -0.01,0.16 -0.02,0.31 -0.03,0.45 -0.01,0.16 -0.02,0.33 -0.03,0.49 -0.01,0.15 -0.01,0.31 -0.03,0.45 -0.01,0.17 -0.02,0.33 -0.03,0.49 0,0.16 -0.01,0.31 -0.02,0.47 -0.01,0.16 -0.01,0.31 -0.02,0.47 -0.01,0.16 -0.02,0.32 -0.03,0.48 0,0.16 -0.01,0.31 -0.02,0.47 -0.01,0.17 -0.02,0.33 -0.02,0.51 -0.01,0.15 -0.01,0.31 -0.02,0.45 -0.01,0.16 -0.02,0.32 -0.02,0.48 -0.01,0.16 -0.02,0.31 -0.03,0.47 -0.01,0.16 -0.01,0.32 -0.02,0.48 -0.01,0.16 -0.02,0.32 -0.03,0.47 0,0.16 -0.01,0.32 -0.02,0.47 -0.01,0.16 -0.01,0.33 -0.03,0.49 0,0.15 -0.01,0.31 -0.03,0.45 0,0.17 -0.01,0.33 -0.02,0.51 0,0.15 -0.01,0.31 -0.03,0.45 0,0.16 -0.01,0.32 -0.02,0.48 -0.01,0.16 -0.02,0.32 -0.02,0.47 -0.01,0.16 -0.02,0.32 -0.03,0.48 -0.01,0.16 -0.01,0.32 -0.02,0.48 -0.01,0.16 -0.02,0.32 -0.03,0.48 0,0.15 -0.01,0.31 -0.02,0.47 -0.01,0.16 -0.01,0.31 -0.02,0.47 -0.01,0.17 -0.02,0.33 -0.03,0.49 -0.01,0.16 -0.01,0.31 -0.03,0.45 -0.01,0.16 -0.02,0.33 -0.03,0.49 0,0.15 -0.01,0.31 -0.03,0.45 -0.01,0.17 -0.02,0.33 -0.03,0.49 0,0.16 -0.01,0.31 -0.02,0.47 -0.01,0.16 -0.01,0.32 -0.02,0.48 -0.01,0.16 -0.02,0.32 -0.03,0.47 0,0.16 -0.01,0.32 -0.02,0.47 -0.01,0.17 -0.02,0.33 -0.02,0.51 -0.01,0.15 -0.01,0.31 -0.03,0.45 -0.01,0.16 -0.01,0.32 -0.02,0.48 -0.01,0.16 -0.02,0.31 -0.03,0.47 0,0.16 -0.01,0.32 -0.02,0.48 -0.01,0.16 -0.02,0.32 -0.02,0.47 -0.01,0.16 -0.02,0.32 -0.03,0.48 -0.01,0.16 -0.01,0.32 -0.02,0.48 -0.01,0.15 -0.02,0.31 -0.03,0.47 0,0.16 -0.01,0.32 -0.02,0.48 -0.01,0.16 -0.02,0.32 -0.03,0.48 0,0.16 -0.01,0.32 -0.02,0.48 -0.01,0.15 -0.01,0.31 -0.03,0.45 -0.01,0.16 -0.02,0.33 -0.03,0.48 0,0.16 -0.01,0.32 -0.02,0.48 -0.01,0.16 -0.02,0.32 -0.03,0.48 0,0.16 -0.01,0.31 -0.02,0.47 -0.01,0.16 -0.01,0.32 -0.02,0.47 -0.01,0.16 -0.02,0.32 -0.03,0.48 0,0.16 -0.01,0.32 -0.02,0.47 -0.01,0.17 -0.02,0.33 -0.02,0.51 0,0.15 -0.01,0.29 -0.03,0.45 -0.01,0.16 -0.02,0.32 -0.03,0.48 0,0.16 -0.01,0.31 -0.02,0.47 0,0.16 -0.01,0.32 -0.02,0.48 -0.01,0.16 -0.02,0.32 -0.03,0.47 0,0.16 -0.01,0.32 -0.02,0.47 -0.01,0.16 0,0.33 -0.02,0.49 -0.01,0.15 -0.02,0.31 -0.02,0.45 -0.01,0.17 -0.02,0.33 -0.04,0.51 0,0.16 -0.01,0.31 -0.02,0.45 0,0.16 -0.01,0.32 -0.02,0.48 -0.01,0.16 -0.02,0.32 -0.02,0.48 -0.01,0.16 -0.02,0.32 -0.03,0.48 0,0.15 -0.01,0.31 -0.02,0.45 -0.01,0.16 -0.02,0.32 -0.02,0.48 -0.01,0.16 -0.02,0.32 -0.03,0.48 -0.01,0.16 -0.01,0.31 -0.02,0.47 -0.01,0.17 -0.02,0.33 -0.02,0.51 -0.01,0.15 -0.02,0.29 -0.03,0.44 -0.01,0.16 -0.02,0.33 -0.03,0.49 0,0.13 -0.01,0.27 -0.02,0.39 -0.24,9.33 -4.77,18.65 -13.46,27.72 l -20.23,21.44 c -18.84,19.86 -43.2,23.04 -72.44,9.45 -32.9,-14.43 -65.05,-22.14 -95.55,-22.93 -37,-0.96 -86.25,4.38 -118.41,33.73 0.02,0.02 0.05,0.05 0.07,0.07 0.61,0.7 1.24,1.39 1.87,2.06 0.24,0.25 0.47,0.49 0.71,0.75 0.47,0.49 0.95,0.99 1.43,1.47 0.25,0.24 0.47,0.47 0.71,0.71 0.66,0.67 1.35,1.32 2.05,1.96 0.26,0.23 0.52,0.48 0.78,0.72 0.52,0.46 1.02,0.93 1.55,1.38 0.27,0.23 0.55,0.48 0.82,0.71 0.61,0.52 1.22,1.05 1.86,1.55 0.17,0.14 0.32,0.27 0.49,0.41 4.27,3.45 8.89,6.63 13.83,9.54 19.71,11.61 44.59,18.86 73.38,21.22 0.2,0.01 0.38,0.03 0.58,0.05 1.2,0.11 2.41,0.18 3.63,0.27 0.74,0.04 1.48,0.08 2.23,0.12 0.84,0.04 1.69,0.1 2.54,0.13 1.69,0.08 3.41,0.14 5.15,0.19 44.13,1.14 82.73,-12.03 107.35,-23.27 37.44,-16.98 60.54,-4.05 73.34,9.79 l 20.51,21.68 c 0.47,0.52 0.92,1.05 1.35,1.57 0.15,0.18 0.3,0.35 0.45,0.54 0.29,0.35 0.56,0.69 0.84,1.04 0.16,0.21 0.33,0.41 0.49,0.62 0.33,0.44 0.65,0.87 0.96,1.29 0.25,0.36 0.49,0.71 0.74,1.06 0.07,0.1 0.13,0.19 0.2,0.29 0.97,1.42 1.83,2.84 2.59,4.27 2.44,4.52 3.89,9.08 4.37,13.63 0.02,0.27 0.05,0.54 0.07,0.8 0.03,0.2 0.04,0.4 0.05,0.6 0.03,0.52 0.04,1.02 0.06,1.51 0,0.04 0,0.09 0,0.13 0.01,0.79 -0.01,1.56 -0.05,2.29 -0.01,0.16 -0.02,0.32 -0.03,0.49 -0.01,0.15 -0.01,0.31 -0.03,0.45 -0.01,0.16 -0.02,0.33 -0.03,0.49 -0.01,0.15 -0.01,0.31 -0.03,0.45 -0.01,0.17 -0.02,0.33 -0.03,0.49 0,0.16 -0.01,0.32 -0.02,0.48 -0.01,0.15 -0.02,0.31 -0.02,0.45 -0.01,0.16 -0.02,0.32 -0.03,0.49 0,0.15 -0.01,0.31 -0.03,0.45 -0.01,0.17 -0.02,0.33 -0.03,0.49 0,0.16 -0.01,0.31 -0.03,0.45 -0.01,0.17 -0.02,0.33 -0.03,0.49 0,0.16 -0.01,0.31 -0.02,0.47 -0.01,0.16 -0.01,0.32 -0.02,0.49 -0.01,0.15 -0.03,0.3 -0.03,0.45 -0.01,0.16 -0.02,0.32 -0.03,0.48 -0.01,0.16 -0.02,0.32 -0.03,0.48 0,0.11 0,0.21 -0.01,0.32 l -81.08,37.16 -160.49,15.93 -131.65,-24.6 -81.07,-57.69 -33.09,-50.57 -29.95,10.22 v -0.05 c 0.01,-0.1 0.02,-0.19 0.02,-0.28 l 0.04,-0.67 c 0,-0.09 0.02,-0.19 0.02,-0.29 l 0.02,-0.19 c -0.01,-0.08 0,-0.15 0.01,-0.21 0,-0.09 0.01,-0.17 0.01,-0.25 0,-0.11 0.01,-0.2 0.01,-0.29 v -0.19 c 0.01,-0.1 0.02,-0.19 0.03,-0.28 l 0.02,-0.66 c 0.01,-0.1 0.02,-0.19 0.02,-0.28 l 0.03,-0.67 c 0,-0.09 0.01,-0.2 0.02,-0.29 l 0.04,-0.66 c 0,-0.1 0.01,-0.2 0.01,-0.29 v -0.19 c 0.01,-0.08 0.01,-0.15 0.02,-0.23 0.01,-0.08 0.01,-0.17 0.01,-0.25 0,-0.09 0,-0.19 0.02,-0.28 v -0.19 c 0,-0.11 0.01,-0.2 0.02,-0.28 l 0.04,-0.67 c 0,-0.09 0.01,-0.2 0.01,-0.29 l 0.03,-0.64 c 0.01,-0.12 0.01,-0.21 0.02,-0.31 l 0.02,-0.66 c 0.01,-0.1 0.02,-0.19 0.03,-0.28 v -0.19 c 0.01,-0.08 0.01,-0.16 0.02,-0.24 -0.01,-0.08 0,-0.16 0,-0.24 0.01,-0.1 0.02,-0.19 0.01,-0.29 l 0.02,-0.19 c 0,-0.09 0,-0.19 0.02,-0.28 l 0.03,-0.64 c 0.01,-0.12 0.01,-0.21 0.02,-0.31 l 0.02,-0.66 c 0.01,-0.1 0.02,-0.19 0.02,-0.28 l 0.04,-0.67 c 0,-0.09 0.02,-0.19 0.01,-0.29 l 0.02,-0.19 c -0.01,-0.08 0,-0.15 0.01,-0.23 0.01,-0.08 0.01,-0.16 0.02,-0.24 0,-0.11 0.01,-0.2 0.01,-0.29 v -0.19 c 0.01,-0.08 0.01,-0.16 0.02,-0.24 0.01,-0.12 0.02,-0.24 0.02,-0.37 l 0.02,-0.33 c 0,-0.11 0.01,-0.2 0.02,-0.28 l 0.03,-0.67 c 0,-0.09 0.01,-0.2 0.02,-0.29 l 0.03,-0.67 c 0,-0.09 0,-0.19 0.02,-0.28 v -0.19 c 0.01,-0.08 0.01,-0.15 0.02,-0.23 0,-0.09 0.01,-0.17 0,-0.25 0.01,-0.1 0.02,-0.19 0.03,-0.3 l 0.01,-0.17 c 0,-0.09 0.01,-0.17 0.01,-0.24 0,-0.12 0,-0.24 0.01,-0.35 l 0.02,-0.37 c 0,-0.09 0,-0.19 0.02,-0.28 l 0.03,-0.64 c 0.01,-0.12 0.01,-0.21 0.02,-0.32 l 0.03,-0.65 c 0.01,-0.1 0.01,-0.2 0.02,-0.28 l 0.01,-0.2 c 0.01,-0.07 0,-0.15 0.01,-0.23 0.01,-0.08 0.01,-0.16 0.02,-0.24 0,-0.09 0.02,-0.19 0.02,-0.29 l 0.02,-0.19 c -0.01,-0.08 0,-0.16 0,-0.24 0.01,-0.12 0.01,-0.24 0.02,-0.36 l 0.02,-0.32 c 0.01,-0.12 0.01,-0.21 0.01,-0.32 l 0.04,-0.66 c 0.01,-0.11 0.01,-0.2 0.01,-0.29 l 0.04,-0.66 c 0,-0.09 0.01,-0.2 0.01,-0.29 l 0.04,-0.67 c 0,-0.09 0.02,-0.19 0.02,-0.28 v -0.19 c 0.01,-0.08 0.01,-0.15 0.02,-0.23 0.01,-0.08 0.01,-0.17 0.01,-0.25 l 0.02,-0.47 c 0,-0.11 0.01,-0.2 0.02,-0.28 l 0.03,-0.68 c 0,-0.09 0,-0.19 0.02,-0.28 l 0.03,-0.67 c 0,-0.09 0,-0.19 0.02,-0.28 l 0.02,-0.66 c 0.01,-0.1 0.02,-0.19 0.01,-0.29 l 0.02,-0.19 c 0.01,-0.07 0.01,-0.15 0.01,-0.23 0.01,-0.07 0.01,-0.15 0.02,-0.23 0,-0.11 0.01,-0.21 0.01,-0.31 l 0.02,-0.19 c 0,-0.09 0,-0.19 0.02,-0.28 l 0.03,-0.64 c 0.01,-0.12 0.01,-0.21 0.02,-0.32 l 0.03,-0.65 c 0.01,-0.11 0.01,-0.2 0.02,-0.29 l 0.04,-0.66 c 0,-0.09 0.01,-0.2 0.01,-0.29 v -0.19 c 0.01,-0.07 0.01,-0.15 0.02,-0.23 0.01,-0.08 0.01,-0.16 0.01,-0.25 0,-0.09 0,-0.19 0.02,-0.28 l 0.01,-0.17 c 0,-0.1 0.01,-0.21 0.01,-0.31 l 0.04,-0.66 c 0,-0.11 0.01,-0.2 0.02,-0.29 l 0.04,-0.67 c 0,-0.08 0,-0.19 0.02,-0.28 l 0.04,-0.67 c 0,-0.09 0,-0.19 0.02,-0.28 v -0.19 c 0.01,-0.08 0.01,-0.15 0.02,-0.23 0,-0.09 -0.01,-0.17 0,-0.25 0.01,-0.1 0.02,-0.19 0.03,-0.3 v -0.19 c 0,-0.09 0.02,-0.19 0.02,-0.28 l 0.04,-0.67 c 0,-0.09 0,-0.19 0.02,-0.28 l 0.02,-0.66 c 0.01,-0.1 0.01,-0.2 0.03,-0.3 l 0.03,-0.65 c 0,-0.09 0.02,-0.19 0.01,-0.29 l 0.02,-0.19 c 0.01,-0.08 0,-0.15 0.01,-0.23 0.01,-0.07 0.01,-0.15 0.02,-0.23 0,-0.11 0.01,-0.21 0.01,-0.31 v -0.19 c 0.01,-0.08 0.01,-0.16 0.02,-0.24 0.01,-0.08 0.01,-0.16 0.02,-0.24 0,-0.04 0.01,-0.08 0.01,-0.12 l 0.02,-0.32 c 0.01,-0.12 0.01,-0.23 0.01,-0.32 l 0.04,-0.66 c 0,-0.11 0.01,-0.2 0.01,-0.29 l 0.04,-0.66 c 0,-0.09 0.01,-0.2 0.01,-0.29 v -0.19 c 0.01,-0.08 0.01,-0.15 0.02,-0.23 0.01,-0.08 0.01,-0.17 0.01,-0.25 0,-0.09 0,-0.19 0.02,-0.28 l 0.01,-0.17 c 0,-0.09 0.01,-0.17 0.01,-0.25 0,-0.13 0.01,-0.25 0.02,-0.37 l 0.02,-0.33 c 0,-0.11 0.01,-0.2 0.02,-0.29 l 0.04,-0.67 c 0,-0.09 0,-0.19 0.02,-0.28 l 0.02,-0.66 c 0.01,-0.1 0.02,-0.19 0.02,-0.28 l 0.01,-0.17 c 0.01,-0.1 0.02,-0.18 0.02,-0.24 0,-0.09 0.01,-0.17 0.01,-0.25 0.01,-0.1 0.02,-0.19 0.01,-0.29 l 0.02,-0.19 c 0.01,-0.08 0.01,-0.16 0.02,-0.24 0,-0.11 0.01,-0.23 0.01,-0.35 l 0.02,-0.36 c 0,-0.09 0,-0.19 0.02,-0.28 l 0.02,-0.66 c 0.01,-0.11 0.01,-0.2 0.03,-0.3 l 0.03,-0.65 c 0,-0.09 0.02,-0.19 0.01,-0.29 l 0.03,-0.64 c 0.01,-0.11 0.02,-0.22 0.02,-0.31 v -0.19 c 0.01,-0.08 0.01,-0.16 0.02,-0.24 0.01,-0.12 0.02,-0.24 0.02,-0.37 l 0.02,-0.32 c 0,-0.11 0.01,-0.21 0.01,-0.31 l 0.04,-0.66 c 0,-0.1 0.01,-0.2 0.01,-0.29 l 0.04,-0.67 c 0,-0.09 0,-0.19 0.02,-0.28 l 0.04,-0.67 c 0,-0.09 0,-0.19 0.02,-0.28 v -0.17 c 0.01,-0.1 0.02,-0.18 0.03,-0.24 -0.01,-0.09 0,-0.17 0,-0.25 0.01,-0.1 0.02,-0.19 0.03,-0.3 v -0.19 c 0,-0.09 0.02,-0.19 0.02,-0.28 l 0.03,-0.67 c 0,-0.09 0,-0.19 0.02,-0.28 l 0.02,-0.66 c 0.01,-0.1 0.02,-0.19 0.02,-0.28 l 0.04,-0.67 c 0,-0.09 0.02,-0.19 0.01,-0.29 l 0.02,-0.19 c -0.01,-0.08 0,-0.15 0.01,-0.23 0.01,-0.07 0.01,-0.15 0.01,-0.23 0.01,-0.11 0.02,-0.22 0.02,-0.31 v -0.19 c 0.01,-0.1 0.02,-0.19 0.03,-0.3 l 0.03,-0.65 c 0.01,-0.11 0.01,-0.2 0.02,-0.29 l 0.04,-0.66 c 0,-0.09 0.01,-0.2 0.02,-0.29 l 0.03,-0.64 c 0.01,-0.12 0.02,-0.22 0.02,-0.31 v -0.19 c 0,-0.08 0.01,-0.15 0.02,-0.23 0.01,-0.08 0.01,-0.17 0.01,-0.25 0,-0.09 0,-0.19 0.02,-0.28 v -0.19 c 0,-0.11 0.01,-0.2 0.01,-0.29 l 0.04,-0.67 c 0,-0.09 0.02,-0.19 0.02,-0.28 l 0.04,-0.67 c 0,-0.09 0,-0.19 0.02,-0.28 l 0.02,-0.66 c 0.01,-0.1 0.02,-0.19 0.02,-0.28 l 0.01,-0.17 c 0,-0.09 0.02,-0.18 0.01,-0.25 0,-0.08 0.01,-0.16 0.01,-0.24 0,-0.09 0.02,-0.19 0.02,-0.29 l 0.02,-0.19 c 0.01,-0.08 0.01,-0.16 0.02,-0.24 0,-0.12 0,-0.24 0.01,-0.36 l 0.01,-0.35 c 0.01,-0.1 0.02,-0.19 0.03,-0.3 l 0.03,-0.65 c 0.01,-0.1 0.02,-0.19 0.02,-0.28 l 0.04,-0.67 c 0,-0.09 0.01,-0.2 0.01,-0.29 v -0.19 c 0.01,-0.08 0.01,-0.15 0.02,-0.23 0.01,-0.07 0,-0.15 0.01,-0.23 0.01,-0.11 0.02,-0.22 0.02,-0.31 v -0.19 c 0.01,-0.08 0.01,-0.16 0.02,-0.24 0.01,-0.12 0.01,-0.25 0.02,-0.37 l 0.02,-0.33 c 0,-0.11 0.01,-0.2 0.02,-0.29 l 0.04,-0.66 c 0,-0.09 0.01,-0.2 0.01,-0.29 l 0.03,-0.64 c 0.01,-0.12 0.01,-0.21 0.02,-0.31 v -0.19 c 0,-0.08 0.01,-0.15 0.02,-0.23 0,-0.06 0,-0.13 0,-0.19 0.01,-0.03 0,-0.05 0.01,-0.07 0.1,-2.02 0.24,-4.03 0.43,-6.03 4.15,-47.17 27.83,-90.2 67.8,-123.97 7.72,-6.51 16.04,-12.7 24.95,-18.48 5.58,-3.63 11.35,-7.09 17.3,-10.35 23.71,-13.07 50.33,-23.36 79.38,-30.66 37.4,-9.41 77.88,-13.63 120.32,-12.52 84.93,2.2 144.09,24.29 178.77,42.44 l 0.15,0.08 c 0.77,0.43 1.52,0.85 2.24,1.27 0.22,0.14 0.44,0.27 0.66,0.39 0.52,0.31 1.01,0.62 1.5,0.94 0.24,0.15 0.47,0.3 0.71,0.45 0.6,0.39 1.2,0.79 1.76,1.2 0.31,0.22 0.62,0.44 0.91,0.67 0.28,0.2 0.55,0.41 0.82,0.61 0.36,0.26 0.71,0.54 1.06,0.82 0.12,0.09 0.22,0.19 0.34,0.28 0.79,0.64 1.52,1.27 2.23,1.93 0.02,0.02 0.05,0.04 0.07,0.06 4,3.68 6.95,7.69 8.85,12.04 0.11,0.22 0.2,0.45 0.3,0.67 0.16,0.39 0.31,0.79 0.46,1.18 0.14,0.37 0.26,0.75 0.38,1.11 -0.14,0.31 -0.07,0.52 -0.01,0.75 z"
           id="path13439" />
        <polygon
           class="st3"
           points="321.91,398.66 314.13,394.12 298.23,358.79 309.56,276.75 360.13,243.67 409.41,230.68 516.08,235.52 581.26,257.87 648.69,213.75 640.94,334.37 593.62,379.78 565.73,373.95 477.2,337.98 370.86,359.41 "
           id="polygon13441" />
        <path
           class="st0"
           d="m 658.03,194.34 c -0.12,-0.36 -0.25,-0.74 -0.38,-1.11 -0.14,-0.4 -0.3,-0.79 -0.46,-1.18 -0.1,-0.22 -0.18,-0.45 -0.3,-0.67 -1.9,-4.35 -4.85,-8.37 -8.85,-12.04 -0.02,-0.02 -0.05,-0.04 -0.07,-0.06 -0.71,-0.66 -1.45,-1.29 -2.23,-1.93 -0.12,-0.09 -0.22,-0.19 -0.34,-0.28 -0.35,-0.28 -0.7,-0.55 -1.06,-0.82 -0.27,-0.21 -0.54,-0.41 -0.82,-0.61 -0.3,-0.22 -0.61,-0.45 -0.91,-0.67 -0.57,-0.4 -1.16,-0.8 -1.76,-1.2 -0.24,-0.15 -0.47,-0.3 -0.71,-0.45 -0.49,-0.32 -0.98,-0.62 -1.5,-0.94 -0.22,-0.13 -0.44,-0.25 -0.66,-0.39 -0.73,-0.41 -1.47,-0.84 -2.24,-1.27 l -0.15,-0.08 C 600.91,152.49 541.75,130.4 456.82,128.2 c -42.44,-1.11 -82.92,3.11 -120.32,12.52 -29.05,7.3 -55.67,17.59 -79.38,30.66 -5.95,3.27 -11.72,6.72 -17.3,10.35 -8.91,5.79 -17.23,11.97 -24.95,18.48 -39.97,33.77 -63.65,76.81 -67.8,123.97 -0.18,2 -0.33,4.01 -0.43,6.03 -0.01,0.02 0,0.04 -0.01,0.07 0,0.05 -0.01,0.12 0,0.19 -0.01,0.08 -0.01,0.15 -0.02,0.23 v 0.19 c -0.01,0.1 -0.02,0.19 -0.02,0.31 l -0.03,0.64 c 0,0.09 -0.01,0.2 -0.01,0.29 l -0.04,0.66 c 0,0.09 -0.02,0.19 -0.02,0.29 l -0.02,0.33 c -0.01,0.12 -0.01,0.25 -0.02,0.37 -0.01,0.08 -0.01,0.16 -0.02,0.24 v 0.19 c 0,0.09 -0.01,0.2 -0.02,0.31 -0.01,0.08 0,0.16 -0.01,0.23 -0.01,0.08 -0.01,0.15 -0.02,0.23 v 0.19 c 0,0.09 -0.01,0.2 -0.01,0.29 l -0.04,0.67 c 0,0.09 0,0.19 -0.02,0.28 l -0.03,0.65 c -0.01,0.11 -0.01,0.2 -0.03,0.3 l -0.01,0.35 c -0.01,0.12 -0.02,0.24 -0.01,0.36 -0.01,0.08 -0.01,0.16 -0.02,0.24 l -0.02,0.19 c 0,0.11 -0.01,0.2 -0.02,0.29 -0.01,0.08 -0.01,0.16 -0.01,0.24 0.01,0.08 -0.01,0.16 -0.01,0.25 l -0.01,0.17 c 0,0.09 0,0.19 -0.02,0.28 l -0.02,0.66 c -0.01,0.1 -0.02,0.19 -0.02,0.28 l -0.04,0.67 c 0,0.09 -0.02,0.19 -0.02,0.28 l -0.04,0.67 c 0,0.09 -0.02,0.19 -0.01,0.29 v 0.19 c -0.01,0.1 -0.02,0.19 -0.02,0.28 -0.01,0.08 -0.01,0.17 -0.01,0.25 0,0.08 -0.01,0.15 -0.02,0.23 v 0.19 c 0,0.09 -0.02,0.19 -0.02,0.31 l -0.03,0.64 c 0,0.09 -0.01,0.2 -0.02,0.29 l -0.04,0.66 c 0,0.09 0,0.19 -0.02,0.29 l -0.03,0.65 c -0.01,0.11 -0.01,0.2 -0.03,0.3 v 0.19 c 0,0.09 -0.01,0.2 -0.02,0.31 0.01,0.08 0,0.16 -0.01,0.23 -0.01,0.08 -0.01,0.15 -0.01,0.23 l -0.02,0.19 c 0,0.11 -0.01,0.2 -0.01,0.29 l -0.04,0.67 c 0,0.09 0,0.19 -0.02,0.28 l -0.02,0.66 c -0.01,0.1 -0.02,0.19 -0.02,0.28 l -0.03,0.67 c 0,0.09 -0.02,0.19 -0.02,0.28 v 0.19 c -0.01,0.11 -0.01,0.2 -0.03,0.3 0,0.08 -0.01,0.16 0,0.25 -0.01,0.07 -0.01,0.15 -0.03,0.24 v 0.17 c -0.01,0.1 -0.02,0.19 -0.02,0.28 l -0.04,0.67 c -0.01,0.1 -0.02,0.19 -0.02,0.28 l -0.04,0.67 c 0,0.09 -0.02,0.19 -0.01,0.29 l -0.04,0.66 c 0,0.09 -0.01,0.2 -0.01,0.31 l -0.02,0.32 c 0,0.13 -0.01,0.25 -0.02,0.37 -0.01,0.08 -0.01,0.16 -0.02,0.24 v 0.19 c 0,0.09 -0.01,0.2 -0.02,0.31 l -0.03,0.64 c 0,0.11 -0.01,0.2 -0.01,0.29 l -0.03,0.65 c -0.01,0.1 -0.02,0.19 -0.03,0.3 l -0.02,0.66 c -0.01,0.1 -0.02,0.19 -0.02,0.28 l -0.02,0.36 c -0.01,0.12 -0.02,0.24 -0.01,0.35 -0.01,0.08 -0.01,0.16 -0.02,0.24 l -0.02,0.19 c 0,0.1 0,0.2 -0.01,0.29 -0.01,0.08 -0.01,0.16 -0.01,0.25 0,0.06 0,0.15 -0.02,0.24 l -0.01,0.17 c 0,0.09 0,0.19 -0.02,0.28 l -0.02,0.66 c -0.01,0.1 -0.02,0.19 -0.02,0.28 l -0.04,0.67 c 0,0.09 -0.02,0.19 -0.02,0.29 l -0.02,0.33 c -0.01,0.12 -0.01,0.24 -0.02,0.37 -0.01,0.08 -0.01,0.16 -0.01,0.25 l -0.01,0.17 c -0.01,0.1 -0.02,0.19 -0.02,0.28 -0.01,0.08 -0.01,0.17 -0.01,0.25 0,0.08 -0.01,0.15 -0.02,0.23 v 0.19 c 0,0.09 -0.01,0.2 -0.01,0.29 l -0.04,0.66 c 0,0.09 -0.02,0.19 -0.01,0.29 l -0.04,0.66 c 0,0.09 0,0.2 -0.01,0.32 l -0.02,0.32 c 0,0.04 -0.01,0.08 -0.01,0.12 -0.01,0.08 -0.01,0.16 -0.02,0.24 -0.01,0.08 -0.01,0.16 -0.02,0.24 v 0.19 c 0,0.09 -0.01,0.2 -0.01,0.31 -0.01,0.08 -0.01,0.16 -0.02,0.23 -0.01,0.08 0,0.15 -0.01,0.23 l -0.02,0.19 c 0,0.11 -0.01,0.2 -0.01,0.29 l -0.03,0.65 c -0.01,0.1 -0.01,0.2 -0.03,0.3 l -0.02,0.66 c -0.01,0.1 -0.02,0.19 -0.02,0.28 l -0.04,0.67 c 0,0.09 -0.02,0.19 -0.02,0.28 v 0.19 c -0.01,0.11 -0.01,0.2 -0.03,0.3 -0.01,0.08 0,0.16 0,0.25 -0.01,0.08 -0.01,0.15 -0.02,0.23 v 0.19 c -0.01,0.1 -0.02,0.19 -0.02,0.28 l -0.04,0.67 c -0.01,0.1 -0.01,0.2 -0.02,0.28 l -0.04,0.67 c 0,0.09 -0.02,0.19 -0.02,0.29 l -0.04,0.66 c 0,0.09 -0.01,0.2 -0.01,0.31 l -0.01,0.17 c -0.01,0.1 -0.02,0.19 -0.02,0.28 0,0.09 -0.01,0.17 -0.01,0.25 0,0.08 -0.01,0.16 -0.02,0.23 v 0.19 c 0,0.09 -0.01,0.2 -0.01,0.29 l -0.04,0.66 c 0,0.09 0,0.19 -0.02,0.29 l -0.03,0.65 c -0.01,0.11 -0.01,0.2 -0.02,0.32 l -0.03,0.64 c -0.01,0.1 -0.02,0.19 -0.02,0.28 l -0.02,0.19 c 0,0.09 -0.01,0.2 -0.01,0.31 -0.01,0.08 -0.01,0.16 -0.02,0.23 0.01,0.08 0,0.16 -0.01,0.23 l -0.02,0.19 c 0,0.11 0,0.2 -0.01,0.29 l -0.02,0.66 c -0.01,0.1 -0.02,0.19 -0.02,0.28 l -0.03,0.67 c -0.01,0.1 -0.02,0.19 -0.02,0.28 l -0.03,0.68 c 0,0.08 -0.02,0.18 -0.02,0.28 l -0.02,0.47 c -0.01,0.08 -0.01,0.17 -0.01,0.25 0,0.08 -0.01,0.15 -0.02,0.23 v 0.19 c 0,0.09 -0.02,0.19 -0.02,0.28 l -0.04,0.67 c 0,0.09 -0.01,0.2 -0.01,0.29 l -0.04,0.66 c 0,0.09 0,0.19 -0.01,0.29 l -0.04,0.66 c 0,0.11 0,0.2 -0.01,0.32 l -0.02,0.32 c -0.01,0.12 -0.02,0.24 -0.02,0.36 -0.01,0.08 -0.01,0.16 0,0.24 l -0.02,0.19 c 0,0.11 -0.01,0.2 -0.02,0.29 -0.01,0.08 -0.01,0.16 -0.02,0.24 0,0.08 0,0.16 -0.01,0.23 l -0.01,0.2 c -0.01,0.08 0,0.19 -0.02,0.28 l -0.03,0.65 c -0.01,0.11 -0.01,0.2 -0.02,0.32 l -0.03,0.64 c -0.01,0.1 -0.02,0.19 -0.02,0.28 l -0.02,0.37 c -0.01,0.11 -0.02,0.23 -0.01,0.35 -0.01,0.07 -0.01,0.15 -0.01,0.24 l -0.01,0.17 c -0.01,0.11 -0.01,0.2 -0.03,0.3 0.01,0.08 0,0.16 0,0.25 -0.01,0.08 -0.01,0.15 -0.02,0.23 v 0.19 c -0.01,0.1 -0.02,0.19 -0.02,0.28 l -0.03,0.67 c 0,0.09 -0.01,0.2 -0.02,0.29 l -0.03,0.67 c -0.01,0.08 -0.02,0.18 -0.02,0.28 l -0.02,0.33 c 0,0.13 -0.01,0.25 -0.02,0.37 -0.01,0.08 -0.01,0.16 -0.02,0.24 v 0.19 c 0,0.09 -0.02,0.19 -0.01,0.29 -0.01,0.08 -0.01,0.16 -0.02,0.24 -0.01,0.08 -0.01,0.15 -0.01,0.23 l -0.02,0.19 c 0,0.11 -0.01,0.2 -0.01,0.29 l -0.04,0.67 c 0,0.09 0,0.19 -0.02,0.28 l -0.02,0.66 c -0.01,0.1 -0.02,0.19 -0.02,0.31 l -0.03,0.64 c -0.01,0.1 -0.02,0.19 -0.02,0.28 l -0.02,0.19 c 0,0.11 0,0.2 -0.01,0.29 -0.01,0.08 -0.01,0.16 0,0.24 -0.01,0.08 -0.01,0.16 -0.02,0.24 v 0.19 c -0.01,0.1 -0.02,0.19 -0.03,0.28 l -0.02,0.66 c -0.01,0.1 -0.02,0.19 -0.02,0.31 l -0.03,0.64 c 0,0.09 -0.01,0.2 -0.01,0.29 l -0.04,0.67 c -0.01,0.08 -0.02,0.18 -0.02,0.28 v 0.19 c -0.01,0.1 -0.02,0.19 -0.02,0.28 0,0.08 -0.01,0.17 -0.01,0.25 -0.01,0.08 -0.01,0.15 -0.02,0.23 v 0.19 c 0,0.09 -0.02,0.19 -0.01,0.29 l -0.04,0.66 c 0,0.09 -0.01,0.2 -0.02,0.29 l -0.03,0.67 c 0,0.09 0,0.19 -0.02,0.28 l -0.02,0.66 c -0.01,0.1 -0.02,0.19 -0.03,0.28 v 0.19 c 0,0.09 -0.02,0.19 -0.01,0.29 -0.01,0.08 -0.01,0.16 -0.01,0.25 -0.01,0.07 -0.02,0.14 -0.01,0.21 l -0.02,0.19 c 0,0.11 -0.01,0.2 -0.02,0.29 l -0.04,0.67 c 0,0.09 0,0.19 -0.02,0.28 v 0.05 l -0.02,0.61 c -0.01,0.1 -0.02,0.19 -0.02,0.31 l -0.03,0.64 c -0.01,0.1 -0.02,0.19 -0.02,0.28 l -0.03,0.48 c -0.01,0.08 -0.01,0.16 0,0.25 -0.01,0.07 -0.01,0.15 -0.02,0.23 v 0.19 c -0.01,0.1 -0.02,0.19 -0.02,0.28 l -0.03,0.67 c 0,0.09 -0.02,0.19 -0.02,0.31 l -0.03,0.64 c 0,0.09 -0.01,0.2 -0.01,0.29 l -0.04,0.67 c 0,0.09 0,0.19 -0.02,0.28 l -0.01,0.35 c -0.01,0.12 -0.02,0.24 -0.02,0.36 -0.01,0.08 -0.01,0.16 -0.02,0.24 v 0.19 c 0,0.09 -0.02,0.19 -0.01,0.29 -0.01,0.08 -0.01,0.17 -0.01,0.25 -0.01,0.07 -0.02,0.14 -0.01,0.21 l -0.02,0.19 c 0,0.11 -0.01,0.2 -0.01,0.29 l -0.04,0.67 c 0,0.09 0,0.19 -0.02,0.28 l -0.02,0.66 c -0.01,0.1 -0.02,0.19 -0.02,0.28 l -0.01,0.35 h -0.01 c -0.01,0.12 0,0.24 -0.01,0.37 -0.01,0.07 -0.01,0.15 -0.02,0.23 l -0.02,0.19 c 0,0.11 0,0.2 -0.02,0.29 -0.01,0.08 -0.01,0.16 -0.01,0.25 0.01,0.08 0,0.16 -0.02,0.24 l 0.01,0.17 c -0.01,0.1 -0.02,0.19 -0.02,0.28 l -0.04,0.67 c -0.01,0.1 -0.02,0.19 -0.02,0.31 l -0.03,0.64 c 0,0.09 -0.01,0.2 -0.01,0.29 l -0.02,0.33 c -0.01,0.12 -0.02,0.24 -0.02,0.36 -0.01,0.08 -0.01,0.16 -0.01,0.25 v 0.19 c -0.01,0.1 -0.02,0.19 -0.02,0.28 0,0.09 -0.01,0.17 -0.01,0.25 0,0.08 -0.01,0.15 -0.02,0.23 v 0.19 c 0,0.09 -0.01,0.2 -0.02,0.31 l -0.03,0.64 c 0,0.09 -0.01,0.2 -0.01,0.29 l -0.04,0.66 c 0,0.09 0,0.19 -0.02,0.29 l -0.01,0.35 c -0.01,0.12 -0.01,0.24 -0.01,0.36 -0.02,0.08 -0.02,0.16 -0.01,0.24 l -0.02,0.19 c 0,0.09 -0.02,0.19 -0.01,0.29 -0.01,0.08 -0.01,0.17 -0.01,0.25 -0.01,0.07 0,0.15 -0.01,0.21 l -0.02,0.19 c 0,0.1 0,0.2 -0.01,0.29 l -0.02,0.66 c -0.01,0.1 -0.02,0.19 -0.03,0.28 l -0.02,0.66 c -0.01,0.1 -0.02,0.19 -0.02,0.28 l -0.03,0.67 c 0,0.09 -0.02,0.19 -0.02,0.29 v 0.19 c -0.01,0.1 -0.02,0.19 -0.03,0.28 0,0.08 0,0.16 0,0.25 -0.01,0.08 -0.01,0.16 -0.02,0.24 l -0.01,0.17 c -0.01,0.1 -0.02,0.19 -0.02,0.28 l -0.04,0.67 c 0,0.09 -0.01,0.2 -0.02,0.31 l -0.03,0.64 c 0,0.11 -0.01,0.2 -0.01,0.29 l -0.04,0.66 c 0,0.09 0,0.19 -0.01,0.29 v 0.19 c 0,0.09 -0.02,0.19 -0.01,0.29 l -0.02,0.24 c 0,0.08 -0.01,0.16 -0.02,0.23 v 0.19 c 0,0.09 -0.01,0.2 -0.01,0.31 l -0.01,0.2 c 0,0.09 -0.01,0.17 -0.02,0.24 -0.01,0.08 -0.01,0.16 -0.02,0.24 -0.01,0.08 0,0.16 -0.01,0.23 -0.01,0.11 -0.01,0.2 -0.01,0.32 l -0.03,0.38 c 0,0.09 0,0.19 -0.01,0.27 -0.01,0.1 -0.01,0.2 -0.01,0.31 l -0.02,0.37 c -0.01,0.1 -0.02,0.19 -0.02,0.31 l -0.01,0.16 c 0,0.11 -0.01,0.2 -0.01,0.27 -0.01,0.1 -0.01,0.2 -0.02,0.28 -0.01,0.07 -0.01,0.15 -0.02,0.24 l 0.01,0.17 c -0.01,0.1 -0.02,0.19 -0.02,0.31 l -0.02,0.43 c -0.01,0.08 -0.01,0.16 -0.01,0.25 -0.01,0.08 -0.02,0.18 -0.02,0.27 l -0.03,0.64 c 0,0.09 -0.02,0.19 -0.02,0.27 0,0.09 0,0.2 -0.01,0.31 v 0.19 c -2.56,48.6 14,93.66 47.88,130.31 50.88,55.01 136.41,86.81 240.86,89.52 48.7,1.25 90.6,-4.91 125.25,-14.04 30.52,-8.04 55.41,-18.38 74.38,-27.95 20.04,-10.13 24.67,-23.22 24.99,-32.51 0.01,-0.15 0.01,-0.29 0.03,-0.43 0,-0.16 0.01,-0.31 0.02,-0.47 0.01,-0.16 0.02,-0.33 0.03,-0.49 0,-0.15 0.01,-0.31 0.01,-0.45 0.01,-0.16 0.02,-0.33 0.03,-0.49 0.01,-0.16 0.02,-0.31 0.02,-0.47 0.01,-0.16 0.02,-0.31 0.03,-0.47 0.01,-0.16 0.02,-0.33 0.02,-0.49 0.01,-0.15 0.02,-0.31 0.03,-0.47 0.01,-0.16 0.02,-0.32 0.02,-0.48 0.01,-0.16 0.02,-0.31 0.02,-0.45 0.01,-0.17 0.02,-0.33 0.03,-0.49 0.01,-0.16 0.02,-0.32 0.02,-0.47 0.01,-0.16 0.02,-0.32 0.03,-0.48 0.01,-0.16 0.01,-0.32 0.02,-0.47 0.01,-0.16 0.02,-0.32 0.02,-0.48 0.01,-0.16 0.02,-0.32 0.03,-0.48 0.01,-0.16 0.02,-0.31 0.02,-0.47 0.01,-0.16 0.02,-0.32 0.03,-0.49 0.01,-0.15 0.01,-0.31 0.03,-0.45 0.01,-0.16 0.02,-0.32 0.03,-0.49 0,-0.15 0.01,-0.31 0.03,-0.45 0.01,-0.16 0.02,-0.32 0.03,-0.49 0,-0.15 0.01,-0.31 0.02,-0.45 0,-0.16 0.01,-0.32 0.02,-0.48 0.01,-0.16 0.02,-0.32 0.03,-0.49 0.01,-0.15 0.01,-0.31 0.02,-0.47 0.01,-0.16 0.02,-0.32 0.03,-0.48 0,-0.15 0.01,-0.31 0.03,-0.45 0.01,-0.17 0.02,-0.33 0.01,-0.5 0.01,-0.15 0.03,-0.3 0.03,-0.44 0.01,-0.16 0.02,-0.32 0.03,-0.48 0.01,-0.16 0.02,-0.32 0.02,-0.48 0.01,-0.16 0.02,-0.32 0.03,-0.48 0.01,-0.16 0.02,-0.32 0.02,-0.48 0.01,-0.16 0.02,-0.31 0.02,-0.47 0.01,-0.16 0.02,-0.32 0.03,-0.48 0.01,-0.16 0.02,-0.31 0.02,-0.47 0.01,-0.16 0.02,-0.32 0.03,-0.48 0.01,-0.16 0.01,-0.31 0.02,-0.47 0.01,-0.16 0.02,-0.32 0.03,-0.49 0.01,-0.15 0.01,-0.31 0.02,-0.45 0.01,-0.16 0.02,-0.33 0.03,-0.49 0,-0.15 0.01,-0.31 0.02,-0.47 0.01,-0.15 0.01,-0.31 0.02,-0.47 0.01,-0.17 0.02,-0.33 0.03,-0.49 0.01,-0.16 0.01,-0.31 0.02,-0.47 0.01,-0.16 0.02,-0.32 0.03,-0.48 0,-0.15 0.01,-0.31 0.03,-0.45 0.01,-0.17 0.02,-0.33 0.03,-0.49 0,-0.16 0.01,-0.31 0.01,-0.46 0.01,-0.16 0.02,-0.32 0.03,-0.48 0.01,-0.16 0.02,-0.31 0.02,-0.47 0.01,-0.16 0.02,-0.32 0.03,-0.47 0.01,-0.17 0.02,-0.33 0.02,-0.49 0.01,-0.15 0.02,-0.31 0.03,-0.45 0.01,-0.17 0.02,-0.33 0.03,-0.49 0.01,-0.16 0.02,-0.31 0.02,-0.45 0.01,-0.17 0.02,-0.33 0.02,-0.51 0.01,-0.15 0.03,-0.3 0.03,-0.45 0.01,-0.16 0.02,-0.32 0.03,-0.48 0.01,-0.16 0.01,-0.31 0.02,-0.47 0.01,-0.16 0.02,-0.32 0.02,-0.48 0.01,-0.16 0.02,-0.32 0.03,-0.49 0.01,-0.15 0.03,-0.3 0.03,-0.45 0.01,-0.16 0.02,-0.32 0.03,-0.49 0.01,-0.15 0.01,-0.31 0.03,-0.45 0.01,-0.17 0.02,-0.33 0.03,-0.49 0,-0.15 0.01,-0.31 0.03,-0.45 0.01,-0.17 0.02,-0.33 0.02,-0.51 0,-0.15 0.02,-0.29 0.03,-0.45 0,-0.15 0.01,-0.31 0.02,-0.47 0.01,-0.16 0.02,-0.32 0.03,-0.49 0,-0.15 0.01,-0.31 0.02,-0.45 0.01,-0.17 0.02,-0.33 0.02,-0.49 0.01,-0.15 0.02,-0.31 0.03,-0.47 0.01,-0.16 0.02,-0.32 0.02,-0.48 0.01,-0.16 0.02,-0.31 0.02,-0.47 0.01,-0.16 0.02,-0.32 0.03,-0.48 0.01,-0.16 0.02,-0.31 0.02,-0.47 0.01,-0.16 0.02,-0.32 0.03,-0.48 0.01,-0.16 0.02,-0.32 0.02,-0.48 0.01,-0.16 0.02,-0.31 0.02,-0.47 0.01,-0.16 0.02,-0.32 0.03,-0.49 0.01,-0.15 0.03,-0.3 0.03,-0.45 0.01,-0.16 0.02,-0.33 0.03,-0.49 0.01,-0.15 0.02,-0.31 0.02,-0.45 0.01,-0.16 0.02,-0.32 0.03,-0.49 0,-0.15 0.01,-0.29 0.03,-0.45 0.02,-0.16 0.01,-0.32 0.02,-0.48 0.01,-0.16 0.02,-0.32 0.03,-0.49 0.01,-0.15 0.01,-0.29 0.02,-0.45 0.01,-0.16 0.02,-0.32 0.03,-0.49 0.01,-0.15 0.01,-0.31 0.03,-0.45 0.01,-0.16 0.02,-0.33 0.03,-0.49 0,-0.15 0.01,-0.31 0.02,-0.47 0.01,-0.15 0.01,-0.31 0.02,-0.47 0.01,-0.16 0.02,-0.32 0.02,-0.47 0.01,-0.16 0.02,-0.32 0.03,-0.48 0.01,-0.17 0.02,-0.33 0.03,-0.49 0,-0.16 0.01,-0.31 0.02,-0.47 0.01,-0.16 0.02,-0.32 0.02,-0.48 0.01,-0.16 0.02,-0.31 0.02,-0.47 0.02,-0.16 0.02,-0.32 0.03,-0.49 0.01,-0.15 0.03,-0.3 0.03,-0.45 0.01,-0.16 0.02,-0.32 0.03,-0.49 0.01,-0.15 0.02,-0.29 0.03,-0.45 0.01,-0.16 0.02,-0.32 0.03,-0.48 0.01,-0.16 0.01,-0.32 0.02,-0.48 0.01,-0.16 0.02,-0.31 0.02,-0.47 0.01,-0.16 0.02,-0.33 0.03,-0.49 0.01,-0.15 0.02,-0.31 0.03,-0.45 0.01,-0.16 0.02,-0.32 0.03,-0.49 0.01,-0.15 0.01,-0.31 0.02,-0.45 0.01,-0.16 0.02,-0.33 0.03,-0.49 0,-0.15 0.01,-0.31 0.02,-0.45 0.01,-0.16 0.02,-0.33 0.02,-0.49 0.01,-0.16 0.02,-0.31 0.03,-0.47 0,-0.16 0.01,-0.31 0.02,-0.47 0.01,-0.16 0.02,-0.33 0.03,-0.49 0,-0.15 0.01,-0.31 0.02,-0.47 0.01,-0.16 0.02,-0.32 0.02,-0.48 0.01,-0.16 0.02,-0.31 0.02,-0.47 0.01,-0.16 0.02,-0.32 0.03,-0.48 0.01,-0.16 0.02,-0.31 0.02,-0.47 0.01,-0.16 0.02,-0.32 0.03,-0.48 0.01,-0.16 0.01,-0.31 0.02,-0.47 0.01,-0.16 0.02,-0.32 0.02,-0.48 0.02,-0.16 0.02,-0.32 0.03,-0.48 0.01,-0.15 0.02,-0.31 0.02,-0.47 0.01,-0.16 0.02,-0.32 0.03,-0.49 0.01,-0.15 0.02,-0.29 0.02,-0.45 0.01,-0.16 0.02,-0.32 0.03,-0.49 0.01,-0.15 0.01,-0.31 0.02,-0.45 0.01,-0.17 0.02,-0.33 0.02,-0.51 0.01,-0.15 0.02,-0.29 0.03,-0.44 0.01,-0.16 0.01,-0.32 0.02,-0.48 0.01,-0.16 0.02,-0.33 0.03,-0.49 0.01,-0.15 0.01,-0.31 0.03,-0.45 0.01,-0.16 0.02,-0.33 0.03,-0.49 0.01,-0.15 0.01,-0.31 0.02,-0.47 0.01,-0.16 0.02,-0.32 0.02,-0.48 0.01,-0.16 0.02,-0.31 0.04,-0.46 0.01,-0.17 0,-0.33 0.02,-0.49 0.02,-0.16 0.02,-0.31 0.02,-0.47 0.01,-0.16 0.02,-0.31 0.03,-0.47 0.01,-0.16 0.02,-0.33 0.03,-0.49 0,-0.16 0.01,-0.31 0.02,-0.47 0.01,-0.16 0.02,-0.32 0.02,-0.48 0.01,-0.16 0.02,-0.31 0.02,-0.47 0.01,-0.16 0.02,-0.32 0.03,-0.49 0.01,-0.15 0.02,-0.31 0.03,-0.45 0.01,-0.16 0.02,-0.32 0.03,-0.48 0.01,-0.16 0.01,-0.32 0.02,-0.47 0.01,-0.16 0.02,-0.32 0.03,-0.48 0,-0.16 0.01,-0.32 0.02,-0.48 0.01,-0.16 0.02,-0.31 0.02,-0.47 0.01,-0.16 0.02,-0.33 0.03,-0.49 0.01,-0.16 0.01,-0.31 0.02,-0.47 0.01,-0.16 0.02,-0.32 0.03,-0.48 0,-0.15 0.01,-0.31 0.02,-0.47 0.01,-0.15 0.02,-0.31 0.02,-0.47 0.01,-0.16 0.02,-0.31 0.02,-0.47 0.01,-0.16 0.02,-0.32 0.03,-0.48 0.01,-0.16 0.02,-0.33 0.03,-0.49 0.01,-0.15 0.01,-0.31 0.03,-0.45 0.01,-0.16 0.02,-0.33 0.02,-0.49 0.01,-0.15 0.02,-0.31 0.03,-0.47 0.01,-0.16 0.02,-0.32 0.02,-0.48 0.01,-0.16 0.02,-0.31 0.03,-0.45 0.01,-0.17 0.02,-0.33 0.03,-0.49 0.01,-0.16 0.02,-0.32 0.02,-0.47 0.01,-0.16 0.02,-0.32 0.03,-0.48 0.01,-0.16 0.02,-0.32 0.02,-0.48 0.01,-0.16 0.02,-0.32 0.03,-0.47 0.01,-0.16 0.02,-0.32 0.02,-0.49 0.01,-0.15 0.03,-0.3 0.03,-0.45 0.01,-0.16 0.02,-0.32 0.03,-0.48 0.01,-0.16 0.01,-0.32 0.02,-0.47 0.01,-0.16 0.02,-0.32 0.03,-0.49 0,-0.15 0.02,-0.29 0.03,-0.45 0.01,-0.16 0.02,-0.32 0.03,-0.49 0,-0.15 0.01,-0.31 0.02,-0.47 0.01,-0.15 0.01,-0.31 0.02,-0.47 0.01,-0.16 0.02,-0.32 0.03,-0.49 0.01,-0.15 0.01,-0.31 0.02,-0.45 0.01,-0.16 0.02,-0.33 0.03,-0.49 0,-0.16 0.01,-0.31 0.02,-0.47 0.01,-0.16 0.02,-0.32 0.02,-0.48 0.01,-0.16 0.02,-0.31 0.03,-0.45 0.01,-0.16 0.02,-0.33 0.03,-0.49 0.01,-0.16 0.02,-0.31 0.02,-0.47 0.01,-0.16 0.02,-0.32 0.03,-0.47 0.01,-0.17 0.02,-0.33 0.02,-0.49 0.01,-0.16 0.02,-0.31 0.03,-0.47 0.01,-0.16 0.01,-0.32 0.02,-0.48 0.01,-0.16 0.02,-0.31 0.03,-0.45 0.01,-0.17 0.02,-0.33 0.02,-0.51 0.01,-0.15 0.01,-0.29 0.03,-0.45 0.01,-0.16 0.02,-0.32 0.03,-0.48 0.01,-0.16 0.01,-0.32 0.02,-0.47 0.01,-0.16 0.02,-0.32 0.02,-0.48 0.01,-0.16 0.02,-0.32 0.03,-0.48 0.01,-0.16 0.01,-0.31 0.02,-0.47 0.01,-0.16 0.02,-0.32 0.03,-0.49 0.01,-0.15 0.01,-0.31 0.02,-0.47 0.01,-0.16 0.02,-0.32 0.03,-0.48 0,-0.15 0.01,-0.31 0.03,-0.45 0.01,-0.17 0.02,-0.33 0.02,-0.51 0,-0.15 0.02,-0.29 0.03,-0.45 0,-0.16 0.01,-0.32 0.02,-0.48 0.01,-0.16 0.02,-0.32 0.03,-0.48 0.01,-0.16 0.01,-0.31 0.02,-0.47 0.01,-0.16 0.02,-0.32 0.02,-0.48 0.01,-0.15 0.02,-0.31 0.03,-0.47 0.01,-0.16 0.01,-0.32 0.02,-0.48 0.01,-0.16 0.02,-0.31 0.02,-0.45 0.01,-0.17 0.02,-0.33 0.03,-0.49 0.01,-0.16 0.02,-0.31 0.02,-0.47 0.01,-0.16 0.02,-0.32 0.03,-0.47 0.01,-0.17 0.02,-0.33 0.02,-0.49 0.01,-0.16 0.02,-0.31 0.02,-0.47 0.01,-0.16 0.02,-0.32 0.03,-0.48 0.01,-0.16 0.02,-0.31 0.02,-0.47 0.01,-0.16 0.02,-0.32 0.03,-0.49 0.01,-0.15 0.01,-0.31 0.02,-0.47 0.01,-0.15 0.02,-0.31 0.02,-0.47 0.01,-0.16 0.02,-0.32 0.03,-0.48 0.01,-0.15 0.02,-0.31 0.02,-0.47 0.01,-0.16 0.02,-0.33 0.03,-0.49 0.01,-0.15 0.01,-0.31 0.02,-0.45 0.01,-0.16 0.02,-0.32 0.03,-0.49 0,-0.15 0.01,-0.31 0.03,-0.45 0.01,-0.17 0.02,-0.33 0.03,-0.49 0,-0.15 0.01,-0.31 0.02,-0.45 0,-0.16 0.01,-0.32 0.02,-0.48 0,-0.05 0.01,-0.11 0.01,-0.16 0.01,-0.11 0.01,-0.21 0.01,-0.32 0.01,-0.16 0.02,-0.32 0.03,-0.48 0.01,-0.16 0.02,-0.32 0.03,-0.48 0,-0.16 0.01,-0.31 0.03,-0.45 0.01,-0.17 0,-0.33 0.02,-0.49 0.01,-0.16 0.02,-0.31 0.02,-0.47 0.01,-0.16 0.02,-0.32 0.03,-0.49 0.01,-0.15 0.03,-0.3 0.03,-0.45 0.01,-0.16 0.02,-0.32 0.03,-0.49 0.01,-0.15 0.02,-0.31 0.03,-0.45 0.01,-0.17 0.02,-0.33 0.03,-0.49 0,-0.15 0.01,-0.31 0.02,-0.45 0.01,-0.16 0.02,-0.32 0.02,-0.48 0.01,-0.16 0.02,-0.32 0.03,-0.49 0.01,-0.15 0.01,-0.31 0.03,-0.45 0.01,-0.16 0.02,-0.33 0.03,-0.49 0.01,-0.15 0.01,-0.31 0.03,-0.45 0.01,-0.17 0.02,-0.33 0.03,-0.49 0.04,-0.74 0.06,-1.51 0.05,-2.29 0,-0.04 0,-0.09 0,-0.13 -0.01,-0.5 -0.02,-0.99 -0.06,-1.51 -0.02,-0.21 -0.03,-0.4 -0.05,-0.6 -0.02,-0.26 -0.05,-0.53 -0.07,-0.8 -0.47,-4.55 -1.93,-9.11 -4.37,-13.63 -0.76,-1.43 -1.62,-2.85 -2.59,-4.27 -0.07,-0.1 -0.13,-0.19 -0.2,-0.29 -0.25,-0.34 -0.49,-0.7 -0.74,-1.06 -0.31,-0.42 -0.63,-0.85 -0.96,-1.29 -0.16,-0.21 -0.33,-0.41 -0.49,-0.62 -0.28,-0.35 -0.55,-0.7 -0.84,-1.04 -0.14,-0.19 -0.29,-0.36 -0.45,-0.54 -0.43,-0.52 -0.88,-1.05 -1.35,-1.57 L 627.35,425.5 c -12.8,-13.85 -35.91,-26.77 -73.34,-9.79 -24.61,11.24 -63.21,24.41 -107.35,23.27 -1.74,-0.04 -3.45,-0.1 -5.15,-0.19 -0.85,-0.04 -1.7,-0.09 -2.54,-0.13 -0.75,-0.04 -1.5,-0.08 -2.23,-0.12 -1.22,-0.09 -2.43,-0.16 -3.63,-0.27 -0.2,-0.01 -0.38,-0.03 -0.58,-0.05 -28.79,-2.36 -53.67,-9.62 -73.38,-21.22 -2.79,-1.65 -5.48,-3.38 -8.05,-5.19 -2,-1.4 -3.93,-2.85 -5.78,-4.35 -0.17,-0.14 -0.32,-0.27 -0.49,-0.41 -0.63,-0.5 -1.25,-1.03 -1.86,-1.55 -0.27,-0.23 -0.55,-0.48 -0.82,-0.71 -0.53,-0.45 -1.03,-0.93 -1.55,-1.38 -0.26,-0.23 -0.52,-0.48 -0.78,-0.72 -0.7,-0.65 -1.38,-1.3 -2.05,-1.96 -0.25,-0.24 -0.47,-0.47 -0.71,-0.71 -0.48,-0.48 -0.96,-0.97 -1.43,-1.47 -0.24,-0.25 -0.47,-0.49 -0.71,-0.75 -0.64,-0.67 -1.27,-1.37 -1.87,-2.06 -0.02,-0.02 -0.05,-0.05 -0.07,-0.07 13.56,-12.36 30.13,-20.47 47.54,-25.63 23.94,-7.1 49.46,-8.66 70.87,-8.09 30.5,0.79 62.65,8.5 95.55,22.93 29.23,13.59 53.6,10.41 72.44,-9.45 l 20.23,-21.44 c 8.69,-9.07 13.22,-18.4 13.46,-27.72 0.01,-0.12 0.01,-0.25 0.02,-0.39 0.01,-0.16 0.02,-0.33 0.03,-0.49 0.01,-0.15 0.02,-0.29 0.03,-0.44 0.01,-0.17 0.02,-0.33 0.02,-0.51 0.01,-0.16 0.01,-0.31 0.02,-0.47 0.01,-0.16 0.02,-0.32 0.03,-0.48 0,-0.16 0.01,-0.32 0.02,-0.48 0.01,-0.15 0.02,-0.31 0.02,-0.45 0.01,-0.16 0.02,-0.32 0.03,-0.48 0,-0.16 0.01,-0.32 0.02,-0.48 0.01,-0.16 0.02,-0.32 0.02,-0.48 0.01,-0.15 0.03,-0.3 0.02,-0.45 0.02,-0.18 0.03,-0.34 0.04,-0.51 0,-0.15 0.01,-0.31 0.02,-0.45 0.01,-0.16 0.01,-0.33 0.02,-0.49 0.01,-0.15 0.02,-0.31 0.02,-0.47 0.01,-0.15 0.02,-0.31 0.03,-0.47 0.01,-0.16 0.02,-0.32 0.02,-0.48 0.01,-0.16 0.02,-0.31 0.02,-0.47 0.01,-0.16 0.02,-0.32 0.03,-0.48 0.01,-0.16 0.02,-0.31 0.03,-0.45 0.01,-0.17 0.02,-0.33 0.02,-0.51 0.01,-0.15 0.02,-0.31 0.02,-0.47 0.01,-0.16 0.02,-0.32 0.03,-0.48 0.01,-0.15 0.01,-0.31 0.02,-0.47 0.01,-0.16 0.02,-0.31 0.02,-0.47 0.01,-0.16 0.02,-0.32 0.03,-0.48 0.01,-0.16 0.02,-0.32 0.02,-0.48 0.01,-0.15 0.02,-0.32 0.03,-0.48 0.01,-0.15 0.01,-0.31 0.03,-0.45 0.01,-0.16 0.02,-0.32 0.02,-0.48 0.01,-0.16 0.02,-0.32 0.03,-0.48 0.01,-0.16 0.02,-0.32 0.02,-0.48 0.01,-0.16 0.02,-0.32 0.03,-0.47 0.01,-0.16 0.01,-0.32 0.02,-0.48 0.01,-0.16 0.02,-0.32 0.03,-0.48 0,-0.15 0.01,-0.31 0.02,-0.47 0.01,-0.16 0.02,-0.32 0.02,-0.48 0.01,-0.16 0.02,-0.31 0.03,-0.47 0.01,-0.16 0.01,-0.32 0.02,-0.48 0.01,-0.15 0.01,-0.31 0.03,-0.45 0.01,-0.17 0.02,-0.33 0.02,-0.51 0.01,-0.15 0.02,-0.31 0.02,-0.47 0.01,-0.15 0.02,-0.31 0.03,-0.47 0.01,-0.16 0.01,-0.32 0.02,-0.48 0.01,-0.16 0.02,-0.31 0.02,-0.47 0.01,-0.16 0.02,-0.32 0.03,-0.49 0.01,-0.15 0.02,-0.31 0.03,-0.45 0.01,-0.16 0.02,-0.33 0.03,-0.49 0.01,-0.15 0.01,-0.29 0.03,-0.45 0.02,-0.16 0.02,-0.32 0.03,-0.49 0.01,-0.16 0.01,-0.31 0.02,-0.47 0.01,-0.16 0.02,-0.32 0.02,-0.47 0.01,-0.16 0.02,-0.32 0.03,-0.48 0.01,-0.16 0.01,-0.32 0.02,-0.48 0.01,-0.16 0.02,-0.32 0.03,-0.48 0,-0.15 0.01,-0.31 0.02,-0.47 0.01,-0.16 0.02,-0.32 0.02,-0.48 0.01,-0.15 0.02,-0.31 0.03,-0.45 0.02,-0.18 0.03,-0.34 0.02,-0.51 0.01,-0.15 0.02,-0.31 0.03,-0.45 0.02,-0.16 0.02,-0.33 0.03,-0.49 0.01,-0.15 0.02,-0.31 0.02,-0.47 0.01,-0.15 0.02,-0.31 0.03,-0.47 0.01,-0.16 0.01,-0.32 0.02,-0.48 0.01,-0.16 0.02,-0.31 0.03,-0.47 0,-0.16 0.01,-0.32 0.02,-0.48 0.01,-0.15 0.01,-0.31 0.02,-0.45 0.01,-0.17 0.02,-0.33 0.02,-0.51 0.01,-0.16 0.02,-0.31 0.02,-0.47 0.01,-0.16 0.02,-0.32 0.03,-0.48 0.01,-0.16 0.01,-0.31 0.02,-0.47 0.01,-0.16 0.02,-0.31 0.02,-0.47 0.01,-0.16 0.02,-0.32 0.03,-0.49 0.01,-0.15 0.01,-0.31 0.03,-0.45 0.01,-0.16 0.02,-0.33 0.03,-0.49 0,-0.15 0.01,-0.29 0.03,-0.45 0.02,-0.16 0.02,-0.33 0.03,-0.49 0,-0.16 0.01,-0.32 0.02,-0.47 0.01,-0.16 0.02,-0.32 0.02,-0.48 0.01,-0.16 0.02,-0.32 0.03,-0.47 0,-0.16 0.01,-0.32 0.02,-0.48 0.01,-0.16 0.02,-0.32 0.02,-0.48 0.01,-0.15 0.02,-0.31 0.03,-0.47 0.01,-0.16 0.01,-0.32 0.02,-0.48 0.01,-0.15 0.02,-0.31 0.03,-0.45 0.01,-0.17 0.02,-0.33 0.02,-0.51 0.01,-0.15 0.02,-0.31 0.02,-0.47 0.01,-0.16 0.02,-0.32 0.03,-0.48 0.01,-0.16 0.02,-0.31 0.02,-0.47 0.01,-0.16 0.02,-0.31 0.03,-0.47 0.01,-0.16 0.01,-0.32 0.02,-0.48 0.01,-0.16 0.02,-0.32 0.02,-0.47 0.01,-0.16 0.02,-0.32 0.03,-0.48 0.01,-0.16 0.01,-0.31 0.02,-0.47 0.01,-0.16 0.02,-0.32 0.03,-0.48 0.01,-0.16 0.01,-0.32 0.02,-0.48 0.01,-0.16 0.02,-0.32 0.03,-0.48 0.01,-0.16 0.01,-0.32 0.02,-0.48 0.01,-0.15 0.02,-0.31 0.03,-0.45 0.01,-0.16 0.02,-0.33 0.03,-0.49 0.01,-0.15 0.01,-0.31 0.03,-0.45 0.01,-0.17 0.02,-0.33 0.03,-0.49 0,-0.16 0.01,-0.31 0.02,-0.47 0.01,-0.16 0.02,-0.32 0.02,-0.48 0.01,-0.15 0.02,-0.31 0.03,-0.45 0.01,-0.17 0.02,-0.33 0.03,-0.49 0.01,-0.16 0.02,-0.32 0.02,-0.48 0.01,-0.15 0.02,-0.31 0.03,-0.47 0.01,-0.16 0.02,-0.32 0.02,-0.48 0.01,-0.16 0.02,-0.31 0.02,-0.47 0.01,-0.16 0.02,-0.32 0.03,-0.48 0.01,-0.16 0.02,-0.31 0.02,-0.47 0.01,-0.16 0.02,-0.32 0.03,-0.48 0.01,-0.16 0.01,-0.31 0.02,-0.45 0.01,-0.17 0.02,-0.33 0.02,-0.51 0.01,-0.15 0.01,-0.31 0.02,-0.47 0.01,-0.16 0.02,-0.31 0.02,-0.47 0.01,-0.16 0.02,-0.32 0.03,-0.48 0.01,-0.16 0.02,-0.32 0.02,-0.48 0.01,-0.16 0.02,-0.32 0.03,-0.48 0.01,-0.15 0.01,-0.31 0.02,-0.47 0.01,-0.16 0.02,-0.32 0.03,-0.48 0,-0.15 0.01,-0.29 0.03,-0.45 0.02,-0.16 0.02,-0.33 0.03,-0.49 0,-0.16 0.01,-0.32 0.02,-0.48 0.01,-0.15 0.01,-0.31 0.02,-0.47 0.01,-0.16 0.02,-0.32 0.03,-0.48 0,-0.15 0.01,-0.31 0.02,-0.47 0.01,-0.16 0.02,-0.32 0.02,-0.48 0.01,-0.16 0.02,-0.31 0.03,-0.47 0.01,-0.16 0.01,-0.32 0.02,-0.48 0.01,-0.15 0.02,-0.31 0.02,-0.45 0.01,-0.17 0.02,-0.33 0.02,-0.51 0.01,-0.15 0.02,-0.31 0.02,-0.47 0.01,-0.16 0.02,-0.32 0.03,-0.48 0.01,-0.16 0.02,-0.31 0.02,-0.47 0.01,-0.16 0.02,-0.31 0.02,-0.47 0.01,-0.16 0.02,-0.32 0.03,-0.48 0.01,-0.16 0.02,-0.32 0.02,-0.47 0.01,-0.16 0.02,-0.32 0.03,-0.48 0.01,-0.16 0.01,-0.31 0.02,-0.47 0.01,-0.16 0.02,-0.33 0.03,-0.49 0.01,-0.16 0.01,-0.31 0.02,-0.47 0.01,-0.16 0.02,-0.32 0.03,-0.48 0,-0.16 0.01,-0.32 0.02,-0.47 0.01,-0.16 0.01,-0.32 0.02,-0.48 0.01,-0.16 0.02,-0.32 0.03,-0.48 0.01,-0.15 0.01,-0.31 0.02,-0.47 0.01,-0.16 0.02,-0.32 0.02,-0.48 0.01,-0.15 0.02,-0.31 0.02,-0.45 0.01,-0.16 0.02,-0.33 0.03,-0.49 0.01,-0.16 0.02,-0.32 0.03,-0.48 0.01,-0.16 0.02,-0.32 0.02,-0.48 0.01,-0.15 0.02,-0.31 0.02,-0.47 0.01,-0.15 0.02,-0.31 0.03,-0.47 0.01,-0.16 0.02,-0.32 0.02,-0.48 0.01,-0.16 0.02,-0.31 0.02,-0.47 0.01,-0.16 0.02,-0.32 0.03,-0.48 0.01,-0.16 0.01,-0.31 0.02,-0.45 0.01,-0.17 0.02,-0.33 0.02,-0.51 0.01,-0.16 0.02,-0.31 0.02,-0.47 0.01,-0.16 0.02,-0.32 0.03,-0.48 0.01,-0.16 0.01,-0.31 0.02,-0.47 0.01,-0.16 0.02,-0.32 0.02,-0.47 0.01,-0.16 0.02,-0.32 0.03,-0.48 0.01,-0.16 0.01,-0.32 0.02,-0.47 0.01,-0.16 0.02,-0.32 0.03,-0.49 0,-0.15 0.01,-0.31 0.02,-0.47 0.01,-0.16 0.02,-0.32 0.02,-0.48 0.01,-0.15 0.02,-0.31 0.03,-0.47 0.01,-0.16 0.02,-0.32 0.02,-0.49 0.01,-0.15 0.02,-0.31 0.04,-0.46 0.01,-0.16 0.01,-0.32 0.02,-0.48 0.01,-0.16 0.02,-0.32 0.03,-0.48 0,-0.15 0.01,-0.31 0.02,-0.47 0.01,-0.16 0.02,-0.32 0.02,-0.48 0.01,-0.16 0.02,-0.31 0.03,-0.47 0,-0.16 0.01,-0.32 0.02,-0.48 0.01,-0.16 0.02,-0.31 0.03,-0.45 0.01,-0.17 0.02,-0.33 0.02,-0.51 0.01,-0.15 0.02,-0.31 0.02,-0.47 0.01,-0.15 0.02,-0.31 0.02,-0.47 0.01,-0.16 0.02,-0.32 0.03,-0.48 0.01,-0.16 0.02,-0.31 0.02,-0.47 0.01,-0.16 0.02,-0.32 0.03,-0.48 0.01,-0.16 0.02,-0.32 0.02,-0.47 0.01,-0.16 0.02,-0.33 0.03,-0.49 0.01,-0.15 0.02,-0.29 0.03,-0.45 0.01,-0.16 0.02,-0.33 0.03,-0.49 0,-0.16 0.01,-0.32 0.02,-0.47 0.01,-0.16 0.02,-0.32 0.02,-0.47 0.01,-0.16 0.02,-0.32 0.03,-0.48 0.01,-0.16 0.01,-0.32 0.02,-0.48 0.01,-0.16 0.02,-0.32 0.02,-0.47 0.01,-0.16 0.02,-0.32 0.03,-0.48 0.01,-0.16 0.02,-0.32 0.02,-0.48 0.01,-0.15 0.02,-0.31 0.03,-0.45 0.01,-0.16 0.02,-0.33 0.02,-0.51 0.01,-0.15 0.02,-0.31 0.03,-0.45 0.01,-0.17 0.02,-0.33 0.03,-0.49 0.01,-0.15 0.02,-0.31 0.02,-0.47 0.01,-0.15 0.02,-0.31 0.03,-0.47 0.01,-0.16 0.02,-0.32 0.02,-0.48 0.01,-0.16 0.02,-0.31 0.02,-0.47 0.01,-0.16 0.02,-0.32 0.03,-0.48 0.01,-0.16 0.01,-0.31 0.02,-0.47 0.01,-0.16 0.02,-0.32 0.03,-0.49 0.01,-0.16 0.01,-0.31 0.02,-0.47 0.01,-0.16 0.02,-0.32 0.03,-0.48 0.01,-0.16 0.01,-0.31 0.02,-0.47 0.01,-0.16 0.02,-0.32 0.02,-0.47 0.01,-0.16 0.02,-0.32 0.03,-0.49 0.01,-0.15 0.01,-0.31 0.03,-0.45 0.01,-0.17 0.02,-0.33 0.03,-0.49 0,-0.15 0.01,-0.31 0.03,-0.45 0.01,-0.16 0.02,-0.33 0.02,-0.49 0.01,-0.16 0.02,-0.32 0.03,-0.47 0.01,-0.16 0.02,-0.32 0.02,-0.49 0.01,-0.15 0.02,-0.31 0.03,-0.47 0,-0.15 0.01,-0.31 0.02,-0.47 0.01,-0.16 0.02,-0.32 0.02,-0.48 0.01,-0.15 0.02,-0.31 0.03,-0.47 0.01,-0.16 0.01,-0.32 0.02,-0.48 0.01,-0.15 0.02,-0.31 0.03,-0.45 0.01,-0.17 0.02,-0.33 0.02,-0.51 0.01,-0.15 0.02,-0.31 0.02,-0.47 0.01,-0.16 0.02,-0.32 0.03,-0.48 0.01,-0.16 0.02,-0.31 0.02,-0.47 0.01,-0.16 0.02,-0.31 0.02,-0.47 0.01,-0.16 0.02,-0.32 0.03,-0.48 0.01,-0.16 0.02,-0.32 0.02,-0.47 0.01,-0.16 0.02,-0.32 0.03,-0.48 0.01,-0.16 0.01,-0.32 0.02,-0.48 0.01,-0.16 0.02,-0.31 0.03,-0.47 0.01,-0.16 0.01,-0.32 0.02,-0.48 0.01,-0.16 0.02,-0.32 0.03,-0.48 0,-0.16 0.01,-0.32 0.02,-0.47 0.01,-0.16 0.01,-0.32 0.02,-0.47 0.01,-0.16 0.02,-0.33 0.03,-0.49 0.01,-0.15 0.01,-0.31 0.02,-0.47 0.01,-0.16 0.02,-0.32 0.02,-0.48 0.01,-0.16 0.02,-0.31 0.03,-0.47 0.01,-0.16 0.02,-0.32 0.02,-0.48 0.01,-0.15 0.02,-0.31 0.03,-0.45 0.01,-0.17 0.02,-0.33 0.03,-0.49 0.01,-0.16 0.02,-0.32 0.02,-0.48 0.01,-0.15 0.02,-0.31 0.03,-0.47 0.01,-0.16 0.02,-0.32 0.02,-0.48 0.01,-0.15 0.02,-0.31 0.03,-0.47 0,-0.16 0.01,-0.32 0.02,-0.48 0.01,-0.16 0.02,-0.32 0.02,-0.47 0.01,-0.1 0.02,-0.19 0.02,-0.28 0.1,-1.31 0.13,-2.62 0.06,-3.93 -0.01,-0.09 -0.01,-0.19 -0.02,-0.28 -0.02,-0.44 -0.06,-0.87 -0.11,-1.3 -0.03,-0.43 -0.09,-0.83 -0.15,-1.25 -0.01,-0.1 -0.03,-0.2 -0.04,-0.31 -0.01,-0.09 -0.03,-0.18 -0.05,-0.28 -0.09,-0.56 -0.2,-1.12 -0.33,-1.69 l -0.09,-0.36 c -0.12,-0.51 -0.25,-1 -0.4,-1.52 0.04,-0.62 -0.03,-0.83 -0.1,-1.05 z m -25.68,315.94 -0.09,1.8 -0.05,0.95 -0.07,1.43 -0.05,1.05 -0.1,1.88 -0.05,0.87 -0.04,0.56 -0.05,0.96 -0.14,2.75 -0.02,0.51 -0.05,0.92 -0.05,1.05 -0.1,1.88 -0.01,-0.09 -0.02,0.58 -0.03,0.47 -0.02,0.37 v 0.01 l -0.01,0.07 -0.04,0.96 -0.01,-0.09 -0.11,2.41 -0.03,0.44 -0.07,1.43 -0.05,1.05 -0.07,1.43 -0.03,0.45 -0.01,-0.09 -0.07,1.43 -0.04,1.04 -0.01,-0.09 -0.07,1.47 -0.05,1.01 -0.09,1.8 -0.05,1.05 -0.07,1.32 -0.15,2.94 -0.01,-0.09 -0.05,1.05 -0.02,0.41 -0.05,1.01 -0.09,1.8 -0.05,1.05 -0.03,0.45 -0.01,-0.04 -0.04,0.91 -0.16,2.94 -0.02,0.49 -0.03,0.47 -0.02,0.37 -0.05,1.05 -0.09,1.8 -0.03,0.58 -0.02,0.37 -0.02,0.56 -0.01,-0.09 -0.04,0.96 -0.14,2.47 -0.02,0.37 -0.07,1.43 -0.05,1.05 -0.07,1.43 -0.02,0.37 -0.12,2.38 -0.05,0.95 -0.02,0.56 -0.01,-0.04 -0.05,1 -0.09,1.8 -0.05,1.05 -0.08,1.36 -0.15,2.9 -0.05,0.87 -0.03,0.52 -0.05,1 -0.09,1.8 -0.05,0.95 -0.02,0.51 -0.05,0.92 -0.15,2.94 -0.03,0.49 -0.02,0.37 -0.04,0.56 -0.05,0.96 -0.05,0.97 c -0.09,3.17 -4.04,6.97 -10.85,10.41 C 579.15,625.79 515.9,648.12 429.69,645.9 332.27,643.37 253.21,614.52 207.1,564.65 178.06,533.24 163.87,494.71 166.03,453.23 l 0.03,-0.45 c 0,-0.09 0.01,-0.2 0.02,-0.31 l 0.02,-0.44 c 0.01,-0.08 0.01,-0.16 0.02,-0.24 0,-0.09 0.01,-0.17 0.01,-0.28 l 0.03,-0.43 c 0,-0.08 0,-0.16 0,-0.24 0,-0.08 0.01,-0.16 0.02,-0.24 0.01,-0.08 0.01,-0.17 0.01,-0.25 l 0.02,-0.47 c 0.01,-0.08 0.01,-0.15 0.02,-0.23 0.01,-0.08 0.01,-0.16 0.02,-0.24 0,-0.09 0.01,-0.17 0.01,-0.28 l 0.04,-0.64 c 0,-0.09 0.01,-0.17 0.01,-0.27 0.01,-0.1 0.01,-0.2 0.01,-0.31 l 0.02,-0.37 c 0.01,-0.1 0.02,-0.19 0.02,-0.31 l 0.02,-0.43 c 0.01,-0.08 0.01,-0.16 0.01,-0.25 0.01,-0.08 0.01,-0.16 0.01,-0.25 l 0.04,-0.7 c 0.01,-0.08 0.01,-0.17 0.02,-0.27 l -0.01,-0.17 c 0.01,-0.1 0.02,-0.19 0.02,-0.28 l 0.04,-0.67 c 0.01,-0.1 0.02,-0.19 0.02,-0.29 l 0.03,-0.67 c 0.01,-0.08 0.02,-0.18 0.02,-0.28 l 0.04,-0.66 c 0,-0.09 0.01,-0.2 0.01,-0.31 l 0.04,-0.7 c 0.01,-0.08 0.01,-0.16 0.02,-0.24 v -0.19 c 0,-0.09 0.02,-0.19 0.01,-0.29 l 0.04,-0.67 c 0.01,-0.08 0.01,-0.17 0.02,-0.28 l 0.03,-0.65 c 0.01,-0.11 0.01,-0.2 0.02,-0.32 l 0.03,-0.64 c 0.01,-0.1 0.02,-0.19 0.02,-0.28 l 0.04,-0.71 c 0.01,-0.08 0.01,-0.16 0.02,-0.24 l 0.01,-0.2 c 0,-0.09 0,-0.19 0.02,-0.28 0,-0.09 0,-0.19 0.01,-0.28 l 0.02,-0.39 c 0.01,-0.1 0.02,-0.19 0.02,-0.31 l 0.03,-0.64 c 0.01,-0.1 0.02,-0.19 0.02,-0.28 l 0.04,-0.67 c 0,-0.09 0.02,-0.19 0.01,-0.29 l 0.04,-0.7 c 0.01,-0.08 0.01,-0.17 0.01,-0.27 l 0.01,-0.17 c 0.01,-0.1 0.02,-0.19 0.02,-0.28 0.01,-0.1 0.02,-0.19 0.02,-0.29 l 0.02,-0.37 c 0,-0.09 0.02,-0.19 0.02,-0.29 l 0.03,-0.67 c 0,-0.09 0.02,-0.19 0.02,-0.28 l 0.04,-0.66 c 0,-0.09 0,-0.2 0.01,-0.32 l 0.03,-0.68 c 0.02,-0.08 0.01,-0.16 0.03,-0.24 v -0.19 c 0,-0.09 0.02,-0.19 0.02,-0.29 0,-0.09 0,-0.19 0.01,-0.28 l 0.03,-0.39 c 0,-0.09 0,-0.19 0.02,-0.28 l 0.02,-0.66 c 0.01,-0.1 0.02,-0.19 0.02,-0.31 l 0.03,-0.64 c 0.01,-0.1 0.02,-0.19 0.02,-0.28 l 0.04,-0.71 c 0.01,-0.08 0.01,-0.16 0.01,-0.25 v -0.19 c 0.01,-0.1 0.02,-0.19 0.03,-0.28 0,-0.09 0,-0.19 0.01,-0.28 v -0.05 c 7.21,13.16 16.2,25.64 26.96,37.26 50.87,55.03 136.4,86.82 240.84,89.52 48.71,1.25 90.6,-4.91 125.25,-14.04 29.15,-7.68 53.15,-17.45 71.78,-26.66 z m -1,-262.83 c 0,0.13 -0.01,0.27 -0.01,0.4 l -0.01,0.03 c -0.01,0.16 -0.01,0.31 -0.02,0.45 l -0.03,0.58 c -0.01,0.12 0,0.24 -0.01,0.36 l -0.03,0.6 c -0.02,0.12 -0.02,0.24 -0.02,0.36 l -0.04,0.6 c -0.01,0.12 0,0.24 -0.01,0.35 v 0.04 c 0,0.15 -0.02,0.29 -0.03,0.44 v 0.06 c 0,0.13 -0.02,0.27 -0.02,0.41 l 0.01,0.02 c -0.01,0.15 -0.03,0.3 -0.03,0.44 l -0.03,0.59 c -0.01,0.12 -0.02,0.24 -0.02,0.36 l -0.03,0.6 c -0.01,0.12 -0.02,0.24 -0.02,0.36 l -0.03,0.58 c -0.01,0.12 -0.02,0.24 -0.01,0.36 l -0.01,0.06 c 0,0.13 -0.02,0.28 -0.02,0.43 l -0.01,0.08 c 0,0.13 -0.01,0.27 -0.03,0.4 l 0.01,0.02 c -0.01,0.15 -0.01,0.31 -0.03,0.45 l -0.03,0.58 c 0,0.13 -0.01,0.25 -0.02,0.37 l -0.03,0.58 c -0.01,0.12 -0.01,0.24 -0.01,0.36 l -0.04,0.6 c -0.01,0.12 0,0.24 -0.01,0.36 l -0.01,0.03 c -0.01,0.15 -0.01,0.31 -0.03,0.45 v 0.06 c -0.02,0.14 -0.02,0.27 -0.03,0.4 v 0.04 c -0.01,0.15 -0.01,0.29 -0.03,0.44 l -0.02,0.57 c -0.01,0.12 -0.02,0.24 -0.02,0.36 l -0.03,0.6 c -0.01,0.12 -0.02,0.24 -0.02,0.36 l -0.04,0.6 c 0,0.12 0,0.24 -0.01,0.36 l -0.03,0.58 c -0.01,0.12 -0.01,0.25 -0.02,0.37 v 0.01 c -0.01,0.16 -0.02,0.31 -0.03,0.45 l -0.03,0.59 c -0.01,0.12 -0.02,0.24 -0.02,0.37 l -0.03,0.59 c -0.01,0.12 -0.02,0.24 -0.02,0.36 l -0.03,0.58 c -0.01,0.12 0,0.24 -0.01,0.36 l -0.04,0.6 c -0.01,0.12 -0.02,0.24 -0.01,0.36 v 0.04 c -0.01,0.15 -0.02,0.29 -0.03,0.44 l -0.03,0.59 c -0.01,0.12 -0.02,0.24 -0.02,0.36 l -0.03,0.58 c 0,0.12 0,0.24 -0.01,0.36 l -0.03,0.59 c 0,0.13 -0.01,0.25 -0.02,0.37 l -0.03,0.58 c 0,0.13 -0.01,0.25 -0.02,0.37 v 0.04 c 0,0.15 -0.01,0.29 -0.02,0.44 l -0.03,0.59 c -0.01,0.11 -0.02,0.23 -0.03,0.35 l -0.03,0.6 c -0.01,0.12 -0.02,0.24 -0.02,0.36 l -0.03,0.6 c -0.01,0.12 -0.02,0.24 -0.02,0.36 l -0.03,0.59 c -0.01,0.12 -0.02,0.24 -0.02,0.36 l 0.01,0.02 c -0.01,0.15 -0.03,0.3 -0.03,0.44 l -0.01,0.08 c 0,0.13 -0.01,0.27 -0.01,0.4 l -0.01,0.03 c -0.01,0.15 -0.01,0.31 -0.03,0.45 l -0.03,0.59 c -0.01,0.12 -0.01,0.24 -0.02,0.36 l -0.03,0.58 c 0,0.12 0,0.24 -0.01,0.36 l -0.03,0.6 c -0.01,0.12 -0.02,0.24 -0.02,0.36 v 0.04 c -0.01,0.15 -0.02,0.29 -0.03,0.44 v 0.05 c -0.01,0.15 -0.02,0.28 -0.02,0.41 v 0.04 c 0,0.15 -0.01,0.29 -0.02,0.44 l -0.03,0.59 c -0.01,0.12 -0.02,0.24 -0.03,0.35 l -0.03,0.6 c -0.01,0.12 -0.02,0.24 -0.02,0.36 l -0.03,0.59 c -0.01,0.12 -0.02,0.24 -0.02,0.37 l -0.01,0.03 c 0,0.15 -0.01,0.29 -0.02,0.44 l -0.01,0.08 c 0,0.13 -0.02,0.27 -0.03,0.4 l 0.01,0.02 c -0.01,0.15 -0.02,0.29 -0.03,0.44 l -0.03,0.59 c -0.01,0.12 -0.02,0.24 -0.02,0.37 l -0.03,0.6 c -0.01,0.11 -0.02,0.23 -0.03,0.35 l -0.03,0.59 c -0.01,0.12 -0.02,0.24 -0.02,0.36 l 0.01,0.02 c -0.01,0.15 -0.02,0.29 -0.03,0.45 l -0.01,0.07 c 0,0.13 -0.01,0.27 -0.01,0.4 v 0.04 c -0.01,0.15 -0.01,0.29 -0.03,0.44 l -0.03,0.6 c -0.01,0.11 -0.02,0.23 -0.03,0.35 l -0.02,0.57 c -0.01,0.12 -0.02,0.24 -0.02,0.36 l -0.03,0.6 c -0.01,0.12 -0.02,0.24 -0.02,0.36 v 0.04 c -0.01,0.15 -0.01,0.29 -0.03,0.44 v 0.06 c 0,0.13 -0.02,0.27 -0.03,0.4 v 0.04 c 0,0.15 -0.01,0.29 -0.02,0.44 l -0.03,0.58 c -0.01,0.12 -0.02,0.24 -0.02,0.37 l -0.03,0.59 c -0.01,0.12 -0.01,0.24 -0.02,0.37 l -0.03,0.58 c -0.01,0.12 -0.02,0.24 -0.02,0.37 l -0.03,0.59 c -0.01,0.12 -0.01,0.24 -0.02,0.36 l 0.01,0.02 c -0.01,0.15 -0.01,0.29 -0.03,0.44 l -0.03,0.59 c 0,0.13 -0.01,0.25 -0.02,0.37 l -0.03,0.6 c -0.01,0.11 -0.02,0.23 -0.03,0.35 l -0.02,0.57 c 0,0.13 -0.01,0.25 -0.02,0.37 l -0.04,0.59 c 0,0.12 0,0.24 -0.01,0.36 v 0.04 c -0.01,0.15 -0.02,0.29 -0.03,0.44 l -0.03,0.6 c -0.01,0.11 -0.02,0.23 -0.01,0.35 l -0.03,0.58 c -0.01,0.12 -0.02,0.24 -0.02,0.36 l -0.03,0.6 c -0.01,0.12 -0.02,0.24 -0.02,0.37 l -0.03,0.58 c -0.01,0.12 -0.02,0.24 -0.02,0.36 v 0.04 c 0,0.15 -0.01,0.29 -0.02,0.44 l -0.01,0.07 c 0,0.15 -0.01,0.28 -0.02,0.41 l 0.01,0.02 c -0.01,0.15 -0.02,0.29 -0.03,0.44 l -0.03,0.59 c 0,0.13 -0.01,0.25 -0.02,0.37 l -0.03,0.58 c -0.01,0.12 -0.01,0.25 -0.02,0.37 l -0.03,0.59 c -0.01,0.12 -0.01,0.24 -0.01,0.36 l -0.01,0.03 c -0.01,0.15 -0.01,0.29 -0.03,0.44 l -0.01,0.08 c 0,0.13 -0.01,0.27 -0.01,0.4 l -0.01,0.03 c -0.01,0.16 -0.01,0.31 -0.03,0.45 l -0.03,0.6 c -0.01,0.12 -0.02,0.23 -0.01,0.35 l -0.03,0.59 c -0.01,0.12 -0.02,0.24 -0.02,0.36 l -0.03,0.59 c -0.01,0.12 -0.02,0.24 -0.02,0.36 v 0.04 c -0.01,0.15 -0.01,0.31 -0.03,0.45 v 0.05 c 0,0.13 -0.01,0.27 -0.03,0.4 v 0.04 c 0,0.16 -0.01,0.31 -0.03,0.45 l 0.01,0.04 c -0.01,0.12 -0.02,0.24 -0.02,0.36 l -0.01,0.16 c -0.01,0.12 -0.02,0.24 -0.02,0.37 l -0.03,0.58 c -0.01,0.12 -0.01,0.25 -0.02,0.37 l -0.02,0.61 c -0.01,0.12 -0.02,0.24 -0.02,0.36 v 0.01 c -0.01,0.15 -0.02,0.29 -0.03,0.44 v 0.08 c 0,0.13 -0.01,0.25 -0.02,0.39 v 0.05 c -0.01,0.15 -0.03,0.3 -0.03,0.44 l -0.03,0.59 c -0.01,0.12 -0.02,0.23 -0.01,0.35 l -0.03,0.58 c 0,0.13 -0.01,0.25 -0.02,0.37 l -0.01,0.35 c -0.02,1.23 -0.68,4.74 -6.33,10.63 l -20.32,21.55 c -13.76,14.52 -29.43,10.03 -42.94,3.74 l -0.27,-0.13 c -36.02,-15.81 -71.48,-24.28 -105.37,-25.15 -33.01,-0.86 -59.59,3.16 -80.95,9.81 -23.02,7.16 -39.96,17.39 -52.38,27.92 -5.88,-12.67 -8.63,-26.5 -7.89,-40.58 1.34,-25.62 13.81,-48.65 35.1,-64.85 11.35,-8.63 25.11,-15.35 40.98,-20.07 20.41,-6.1 44.27,-8.9 70.84,-8.2 30.5,0.79 62.65,8.5 95.55,22.93 29.25,13.59 53.6,10.41 72.44,-9.45 l 5.6,-5.94 z m 2.31,-43.85 -0.02,0.32 c -0.27,2.57 -2.54,6.27 -6.3,10.18 l -20.32,21.55 c -13.76,14.52 -29.43,10.03 -42.94,3.74 l -0.27,-0.13 c -36.02,-15.81 -71.48,-24.28 -105.37,-25.15 -8.74,-0.23 -17.25,-0.11 -25.49,0.38 -41.88,2.36 -77.02,13.66 -102.62,33.15 -27.42,20.86 -43.48,50.7 -45.23,84.02 -1.13,21.66 4.02,42.8 14.72,61.48 l -0.3,0.36 5.77,8.28 c 0.13,0.18 0.26,0.35 0.39,0.53 0.61,0.88 1.24,1.74 1.88,2.59 0.15,0.21 0.31,0.42 0.47,0.63 0.75,0.99 1.52,1.97 2.31,2.95 0.23,0.29 0.48,0.58 0.72,0.89 0.66,0.8 1.33,1.6 2.02,2.38 0.18,0.22 0.36,0.43 0.55,0.65 0.65,0.75 1.31,1.49 1.99,2.22 0.2,0.22 0.42,0.46 0.64,0.69 0.14,0.15 0.29,0.31 0.42,0.46 0.86,0.89 1.73,1.78 2.63,2.69 0.02,0.01 0.02,0.02 0.03,0.03 0.18,0.19 0.37,0.36 0.57,0.55 0.85,0.83 1.72,1.67 2.64,2.51 0.19,0.19 0.38,0.36 0.58,0.55 0.43,0.39 0.85,0.78 1.29,1.16 0.52,0.46 1.03,0.91 1.57,1.38 0.12,0.1 0.24,0.21 0.36,0.31 1.07,0.92 2.18,1.84 3.34,2.76 0.02,0.01 0.03,0.02 0.05,0.03 21.72,17.36 56.36,34.03 110.27,36.52 0.05,0 0.11,0.01 0.16,0.01 1.92,0.09 3.85,0.16 5.81,0.21 26.07,0.67 50.3,-3.1 71.35,-8.64 14.86,-3.91 28.13,-8.7 39.33,-13.43 2.8,-1.18 5.48,-2.37 8.01,-3.52 1.23,-0.56 2.51,-1.11 3.81,-1.64 9.08,-3.7 19.46,-6.19 29.21,-2.19 3.71,1.54 7.34,4 10.75,7.71 l 20.29,21.44 c 0.28,0.32 0.55,0.63 0.82,0.94 0.17,0.2 0.34,0.41 0.51,0.62 0.22,0.27 0.41,0.54 0.59,0.81 0.18,0.23 0.38,0.48 0.54,0.71 0.23,0.33 0.43,0.65 0.65,0.97 0.09,0.16 0.21,0.33 0.3,0.48 0.22,0.35 0.4,0.68 0.58,1.01 0.08,0.14 0.15,0.28 0.21,0.41 0.16,0.33 0.31,0.64 0.45,0.95 0.05,0.13 0.11,0.26 0.17,0.39 0.11,0.3 0.21,0.58 0.29,0.86 0.04,0.15 0.09,0.29 0.13,0.43 0.07,0.26 0.12,0.5 0.15,0.74 0.03,0.15 0.04,0.31 0.05,0.45 0.03,0.22 0.04,0.44 0.04,0.65 -0.01,0.27 -0.02,0.53 -0.06,0.78 -0.56,2.94 -4.58,6.56 -10.78,9.68 -37.87,19.13 -101.12,41.46 -187.33,39.24 -97.42,-2.53 -176.48,-31.38 -222.59,-81.25 -26.26,-28.42 -40.39,-62.65 -41.25,-99.65 -0.08,-3.91 -0.03,-7.85 0.18,-11.81 0.05,-1.11 0.15,-2.2 0.22,-3.3 0.03,-0.47 0.07,-0.95 0.1,-1.42 0.08,-0.96 0.2,-1.91 0.29,-2.86 0.06,-0.61 0.11,-1.22 0.19,-1.82 0.1,-0.82 0.21,-1.64 0.33,-2.45 0.1,-0.74 0.19,-1.47 0.3,-2.2 0.1,-0.68 0.23,-1.38 0.35,-2.07 0.13,-0.84 0.27,-1.69 0.43,-2.54 0.1,-0.55 0.23,-1.12 0.35,-1.67 0.19,-0.97 0.37,-1.94 0.58,-2.89 0.1,-0.43 0.21,-0.85 0.31,-1.27 0.25,-1.09 0.5,-2.19 0.77,-3.27 0.09,-0.31 0.18,-0.63 0.27,-0.94 0.31,-1.19 0.63,-2.38 0.97,-3.56 0.05,-0.2 0.13,-0.4 0.18,-0.61 0.39,-1.29 0.77,-2.57 1.2,-3.85 0.03,-0.09 0.06,-0.17 0.09,-0.26 0.45,-1.4 0.93,-2.77 1.43,-4.16 0.01,-0.03 0.01,-0.06 0.03,-0.09 8.51,-23.41 23.2,-45.07 43.41,-63.91 0.05,-0.05 0.12,-0.11 0.18,-0.17 1.21,-1.12 2.43,-2.25 3.68,-3.34 0.29,-0.26 0.59,-0.51 0.89,-0.77 1.02,-0.89 2.04,-1.79 3.09,-2.67 0.53,-0.44 1.07,-0.88 1.62,-1.32 0.84,-0.68 1.65,-1.37 2.51,-2.04 0.8,-0.63 1.62,-1.26 2.43,-1.89 0.6,-0.46 1.2,-0.95 1.8,-1.41 1.13,-0.85 2.29,-1.7 3.44,-2.54 0.31,-0.23 0.62,-0.45 0.93,-0.68 0.92,-0.66 1.86,-1.32 2.8,-1.98 0.2,-0.14 0.4,-0.28 0.6,-0.42 0.37,-0.24 0.74,-0.51 1.1,-0.76 1.52,-1.03 3.05,-2.07 4.62,-3.07 1.57,-1.03 3.18,-2.04 4.79,-3.04 0.53,-0.33 1.07,-0.64 1.6,-0.96 1.09,-0.66 2.19,-1.33 3.3,-1.98 0.65,-0.38 1.3,-0.75 1.95,-1.12 1.02,-0.58 2.04,-1.17 3.07,-1.74 0.7,-0.38 1.41,-0.77 2.11,-1.15 1,-0.54 2,-1.08 3.01,-1.61 0.73,-0.39 1.47,-0.77 2.21,-1.15 1,-0.51 2,-1.03 3,-1.53 0.76,-0.38 1.53,-0.76 2.3,-1.13 1,-0.49 2.01,-0.98 3.02,-1.45 0.79,-0.37 1.57,-0.73 2.36,-1.1 1.02,-0.47 2.03,-0.93 3.07,-1.39 0.79,-0.35 1.59,-0.71 2.39,-1.07 1.03,-0.44 2.07,-0.89 3.11,-1.33 0.81,-0.34 1.63,-0.68 2.43,-1.01 1.06,-0.44 2.12,-0.87 3.18,-1.3 0.82,-0.32 1.65,-0.65 2.46,-0.96 1.09,-0.42 2.17,-0.83 3.26,-1.24 0.83,-0.31 1.64,-0.62 2.47,-0.93 1.12,-0.41 2.23,-0.8 3.35,-1.2 0.82,-0.29 1.64,-0.58 2.46,-0.87 1.15,-0.39 2.31,-0.78 3.46,-1.16 0.81,-0.27 1.63,-0.53 2.44,-0.8 1.21,-0.4 2.43,-0.77 3.65,-1.15 0.78,-0.24 1.54,-0.5 2.32,-0.73 1.33,-0.4 2.69,-0.8 4.04,-1.18 0.67,-0.2 1.33,-0.39 2.01,-0.58 1.83,-0.52 3.67,-1.02 5.52,-1.52 l 0.6,-0.16 c 0.32,-0.08 0.64,-0.17 0.96,-0.24 1.86,-0.49 3.74,-0.97 5.63,-1.43 0.79,-0.2 1.59,-0.37 2.38,-0.56 1.43,-0.34 2.85,-0.67 4.3,-1 0.91,-0.2 1.83,-0.39 2.74,-0.59 1.33,-0.29 2.67,-0.57 4.02,-0.85 0.96,-0.2 1.94,-0.39 2.9,-0.58 1.32,-0.25 2.62,-0.51 3.94,-0.76 0.99,-0.18 2,-0.36 3.01,-0.53 1.3,-0.24 2.59,-0.46 3.9,-0.69 1.02,-0.16 2.05,-0.33 3.08,-0.5 1.29,-0.21 2.59,-0.41 3.9,-0.61 1.04,-0.16 2.09,-0.3 3.13,-0.46 1.31,-0.17 2.62,-0.36 3.93,-0.53 l 3.17,-0.4 c 1.31,-0.16 2.63,-0.32 3.95,-0.47 1.08,-0.11 2.14,-0.23 3.2,-0.34 1.33,-0.14 2.67,-0.28 4,-0.41 1.07,-0.1 2.14,-0.21 3.22,-0.29 1.35,-0.13 2.69,-0.23 4.05,-0.34 1.07,-0.08 2.15,-0.17 3.23,-0.24 1.37,-0.11 2.73,-0.19 4.1,-0.28 1.07,-0.07 2.15,-0.14 3.23,-0.2 1.39,-0.08 2.78,-0.14 4.18,-0.19 1.07,-0.06 2.13,-0.11 3.2,-0.15 1.43,-0.06 2.86,-0.09 4.3,-0.14 1.05,-0.03 2.08,-0.06 3.13,-0.09 1.5,-0.04 3.02,-0.06 4.51,-0.07 0.99,-0.01 1.98,-0.03 2.97,-0.04 1.67,-0.01 3.35,0 5.02,0.01 0.83,0 1.66,0 2.49,0 2.51,0.02 5.04,0.07 7.56,0.13 79.91,2.08 135.13,22.61 167.4,39.48 0.38,0.2 0.77,0.42 1.13,0.63 l 0.34,0.2 c 0.25,0.16 0.5,0.3 0.75,0.45 0.11,0.08 0.22,0.14 0.33,0.22 0.24,0.15 0.47,0.3 0.7,0.45 0.09,0.05 0.17,0.11 0.27,0.18 0.25,0.16 0.5,0.33 0.74,0.5 0.05,0.03 0.1,0.07 0.15,0.11 3.72,2.57 5.79,5.21 5.71,7.34 z"
           id="path13443" />
        <path
           class="st4"
           d="m 452.53,219.32 c -15.62,7.37 -15.23,17.19 -39.87,23.68 -28.02,7.38 -59.89,48.43 -25.27,79.12 17.19,15.23 18.13,25.3 22.06,33.71 -17.41,5.17 -62.92,27.17 -76.48,39.53 0.02,0.02 0.05,0.05 0.07,0.07 0.61,0.7 1.24,1.39 1.87,2.06 0.24,0.25 0.47,0.49 0.71,0.75 0.47,0.49 0.95,0.99 1.43,1.47 0.25,0.24 0.47,0.47 0.71,0.71 0.66,0.67 1.35,1.32 2.05,1.96 0.26,0.23 0.52,0.48 0.78,0.72 0.52,0.46 1.02,0.93 1.55,1.38 0.27,0.23 0.55,0.48 0.82,0.71 0.61,0.52 1.22,1.05 1.86,1.55 0.17,0.14 0.32,0.27 0.49,0.41 1.86,1.5 3.78,2.96 5.78,4.35 l -26.67,11.73 c -0.44,-0.38 -0.86,-0.77 -1.29,-1.16 -0.19,-0.19 -0.38,-0.36 -0.58,-0.55 -0.92,-0.84 -1.79,-1.68 -2.64,-2.51 -0.19,-0.19 -0.38,-0.36 -0.57,-0.55 -0.02,-0.01 -0.02,-0.02 -0.03,-0.03 -0.9,-0.91 -1.78,-1.8 -2.63,-2.69 -0.13,-0.15 -0.28,-0.31 -0.42,-0.46 -0.22,-0.23 -0.44,-0.46 -0.64,-0.69 -0.68,-0.73 -1.35,-1.46 -1.99,-2.22 -0.19,-0.21 -0.38,-0.43 -0.55,-0.65 -0.69,-0.78 -1.36,-1.58 -2.02,-2.38 -0.24,-0.31 -0.49,-0.6 -0.72,-0.89 -0.79,-0.98 -1.56,-1.96 -2.31,-2.95 -0.16,-0.21 -0.32,-0.42 -0.47,-0.63 -0.64,-0.84 -1.27,-1.71 -1.88,-2.59 -0.13,-0.18 -0.26,-0.35 -0.39,-0.53 l -5.77,-8.28 0.3,-0.36 c -10.71,-18.68 -15.86,-39.83 -14.72,-61.48 1.75,-33.32 17.81,-63.16 45.23,-84.02 25.6,-19.45 80.32,-25.92 122.2,-28.29 z"
           id="path13445" />
        <path
           class="st4"
           d="M 262.97,624.99 C 330.99,646.1 194.84,491.42 298.6,510.2 l -45.07,-21.06 -73.62,-79.42 -16.86,11.03 -7.12,47.99 0.66,52.53 37.62,42.79 20.43,27.55 c 0.01,0 -9.07,15.57 48.33,33.38 z"
           id="path13447" />
        <path
           class="st4"
           d="m 553.41,377.19 c 0,0 84.62,-28.88 10.66,-134.56 l 32.75,24.31 50.24,-59.35 -4.5,132.94 -48.95,39.25 z"
           id="path13449" />
        <path
           class="st4"
           d="m 553.78,528.61 c 0,0 67.46,81.04 33.75,103.1 l 53.82,-20.77 7.75,-120.62 z"
           id="path13451" />
      </g>
    </g>
    <g
       id="g101032"
       transform="matrix(0.71408397,0,0,0.74794834,13.536649,413.10433)"
       style="display:inline;stroke:#3c2015;stroke-opacity:1">
      <text
         xml:space="preserve"
         style="font-style:italic;font-variant:normal;font-weight:bold;font-stretch:normal;font-size:40px;line-height:1.25;font-family:'Berlin Sans FB Demi';-inkscape-font-specification:'Berlin Sans FB Demi Bold Italic';fill:#6a2c1a;fill-opacity:1;stroke:#6a2c1a;stroke-opacity:1"
         x="57.588673"
         y="-79.21804"
         id="text8263"><tspan
           sodipodi:role="line"
           id="tspan8261"
           x="57.588673"
           y="-79.21804"
           style="font-style:italic;font-variant:normal;font-weight:bold;font-stretch:normal;font-family:'Century Schoolbook';-inkscape-font-specification:'Century Schoolbook Bold Italic';fill:#6a2c1a;fill-opacity:1;stroke:#6a2c1a;stroke-opacity:1">i</tspan></text>
      <ellipse
         style="fill:none;stroke:#6a2c1a;stroke-width:2.05249;stroke-linecap:square;stroke-linejoin:bevel;stroke-miterlimit:4;stroke-dasharray:none;stroke-opacity:1"
         id="path29587"
         cx="66.530518"
         cy="-93.469482"
         rx="20.969522"
         ry="20.969481" />
    </g>
  </g>
  <g
     style="display:inline"
     inkscape:label="Cocoa Press Main BTN"
     id="layer2"
     inkscape:groupmode="layer">
    <path
       sodipodi:nodetypes="ccccc"
       inkscape:connector-curvature="0"
       style="display:inline;opacity:0.997;fill:url(#linearGradient4768);fill-opacity:1;stroke:#ff0000;stroke-width:2.27418;stroke-miterlimit:4;stroke-dasharray:none;stroke-opacity:1"
       d="M 33.352844,26.162411 H 341.66977 V 87.258863 H 33.352844 Z"
       id="menu_btn"
       inkscape:label="#menu_btn" />
    <path
       id="print_btn"
       d="M 225.00931,384.01306 H 400 v 61.09645 H 225.00931 Z"
       style="display:inline;opacity:0.997;fill:url(#linearGradient4768);fill-opacity:1;stroke:#ff0000;stroke-width:2.27418;stroke-miterlimit:4;stroke-dasharray:none;stroke-opacity:1"
       inkscape:connector-curvature="0"
       sodipodi:nodetypes="ccccc"
       inkscape:label="#print_btn" />
    <path
       id="load_chocolate_btn"
       d="M 33.352844,104.71499 H 341.66977 v 61.09646 H 33.352844 Z"
       style="display:inline;opacity:0.997;fill:url(#linearGradient4768);fill-opacity:1;stroke:#ff0000;stroke-width:2.27418;stroke-miterlimit:4;stroke-dasharray:none;stroke-opacity:1"
       inkscape:connector-curvature="0"
       sodipodi:nodetypes="ccccc"
       inkscape:label="#load_chocolate_btn" />
    <path
       sodipodi:nodetypes="ccccc"
       inkscape:connector-curvature="0"
       style="display:inline;opacity:0.997;fill:url(#linearGradient4768);fill-opacity:1;stroke:#ff0000;stroke-width:2.27418;stroke-miterlimit:4;stroke-dasharray:none;stroke-opacity:1"
       d="M 33.352844,174.53951 H 341.66977 v 61.09645 H 33.352844 Z"
       id="preheat_chocolate_btn"
       inkscape:label="#preheat_chocolate_btn" />
    <path
       id="extrude_btn"
       d="M 33.352844,244.36403 H 341.66977 v 61.09645 H 33.352844 Z"
       style="display:inline;opacity:0.997;fill:url(#linearGradient4768);fill-opacity:1;stroke:#ff0000;stroke-width:2.27418;stroke-miterlimit:4;stroke-dasharray:none;stroke-opacity:1"
       inkscape:connector-curvature="0"
       sodipodi:nodetypes="ccccc"
       inkscape:label="#extrude_btn" />
    <path
       sodipodi:nodetypes="ccccc"
       inkscape:connector-curvature="0"
       style="display:inline;opacity:0.997;fill:url(#linearGradient4768);fill-opacity:1;stroke:#ff0000;stroke-width:2.27418;stroke-miterlimit:4;stroke-dasharray:none;stroke-opacity:1"
       d="M 33.352844,384.01306 H 208.34353 v 61.09645 H 33.352844 Z"
       id="media_btn"
       inkscape:label="#media_btn" />
    <path
       sodipodi:nodetypes="ccccc"
       inkscape:connector-curvature="0"
       style="display:inline;opacity:0.997;fill:url(#linearGradient4768);fill-opacity:1;stroke:#ff0000;stroke-width:2.27418;stroke-miterlimit:4;stroke-dasharray:none;stroke-opacity:1"
       d="m 416.66577,384.01306 h 174.99069 v 61.09645 H 416.66577 Z"
       id="pause_btn"
       inkscape:label="#pause_btn" />
    <path
       sodipodi:nodetypes="ccccc"
       inkscape:connector-curvature="0"
       style="display:inline;opacity:0.997;fill:url(#linearGradient4768);fill-opacity:1;stroke:#ff0000;stroke-width:2.23021;stroke-miterlimit:4;stroke-dasharray:none;stroke-opacity:1"
       d="m 534.41579,245.50524 h 181.14448 v 58.81405 H 534.41579 Z"
       id="print_time_hms" />
    <path
       sodipodi:nodetypes="ccccc"
       inkscape:connector-curvature="0"
       style="display:inline;opacity:0.997;fill:url(#linearGradient4768);fill-opacity:1;stroke:#ff0000;stroke-width:2.06349;stroke-miterlimit:4;stroke-dasharray:none;stroke-opacity:1"
       d="m 361.03174,245.41808 h 154.61879 v 58.98835 H 361.03174 Z"
       id="print_time_pct"
       inkscape:label="" />
    <path
       sodipodi:nodetypes="ccccc"
       inkscape:connector-curvature="0"
       style="display:inline;opacity:0.997;fill:url(#linearGradient4768);fill-opacity:1;stroke:#ff0000;stroke-width:2.2985;stroke-miterlimit:4;stroke-dasharray:none;stroke-opacity:1"
       d="M 34.475779,315.36474 H 765.52419 V 374.1088 H 34.475779 Z"
       id="file_name"
       inkscape:label="#file_name" />
    <path
       id="h0_label"
       d="M 417.86943,105.97574 H 548.78836 V 164.5507 H 417.86943 Z"
       style="display:inline;opacity:0.997;fill:url(#linearGradient4768);fill-opacity:1;stroke:#ff0000;stroke-width:2.27418;stroke-miterlimit:4;stroke-dasharray:none;stroke-opacity:1"
       inkscape:connector-curvature="0"
       sodipodi:nodetypes="ccccc"
       inkscape:transform-center-x="-8.578552"
       inkscape:transform-center-y="175.72136" />
    <path
       inkscape:transform-center-y="175.72129"
       inkscape:transform-center-x="-8.578553"
       sodipodi:nodetypes="ccccc"
       inkscape:connector-curvature="0"
       style="display:inline;opacity:0.997;fill:url(#linearGradient4768);fill-opacity:1;stroke:#ff0000;stroke-width:2.27418;stroke-miterlimit:4;stroke-dasharray:none;stroke-opacity:1"
       d="m 417.86944,175.80028 h 130.9189 v 58.57493 h -130.9189 z"
       id="h0_temp" />
    <path
       inkscape:transform-center-y="175.72157"
       inkscape:transform-center-x="-8.5785723"
       sodipodi:nodetypes="ccccc"
       inkscape:connector-curvature="0"
       style="display:inline;opacity:0.997;fill:url(#linearGradient4768);fill-opacity:1;stroke:#ff0000;stroke-width:2.27418;stroke-miterlimit:4;stroke-dasharray:none;stroke-opacity:1"
       d="m 584.52721,105.97571 h 130.91896 v 58.57502 H 584.52721 Z"
       id="h1_label" />
    <path
       id="h1_temp"
       d="m 584.52719,175.80021 h 130.919 v 58.57505 h -130.919 z"
       style="display:inline;opacity:0.997;fill:url(#linearGradient4768);fill-opacity:1;stroke:#ff0000;stroke-width:2.27418;stroke-miterlimit:4;stroke-dasharray:none;stroke-opacity:1"
       inkscape:connector-curvature="0"
       sodipodi:nodetypes="ccccc"
       inkscape:transform-center-x="-8.5785793"
       inkscape:transform-center-y="175.72162" />
    <path
       sodipodi:nodetypes="ccccc"
       inkscape:connector-curvature="0"
       style="display:inline;opacity:0.997;fill:url(#linearGradient4768);fill-opacity:1;stroke:#ff0000;stroke-width:2.27418;stroke-miterlimit:4;stroke-dasharray:none;stroke-opacity:1"
       d="m 608.32224,384.01306 h 158.32491 v 61.09645 H 608.32224 Z"
       id="stop_btn"
       inkscape:label="#stop_btn" />
  </g>
  <g
     inkscape:groupmode="layer"
     id="layer4"
     inkscape:label="Cocoa Press Z Offset BTN"
     style="display:none">
    <path
       id="z_wizard_heading"
       d="M 260,30 H 560 V 80 H 260 Z"
       style="display:inline;opacity:0.997;fill:url(#linearGradient4768);fill-opacity:1;stroke:none;stroke-width:3.47118;stroke-miterlimit:4;stroke-dasharray:none"
       inkscape:connector-curvature="0"
       sodipodi:nodetypes="ccccc" />
    <path
       id="z_wizard_plus_btn"
       d="m 490,110 h 60 v 50 h -60 z"
       style="display:inline;opacity:0.997;fill:url(#linearGradient4768);fill-opacity:1;stroke:none;stroke-width:1.55235;stroke-miterlimit:4;stroke-dasharray:none"
       inkscape:connector-curvature="0"
       sodipodi:nodetypes="ccccc" />
    <path
       id="z_wizard_edit_box"
       d="m 40,300 h 220 v 70 H 40 Z"
       style="display:inline;opacity:0.997;fill:url(#linearGradient4768);fill-opacity:1;stroke:none;stroke-width:3.51714;stroke-miterlimit:4;stroke-dasharray:none"
       inkscape:connector-curvature="0"
       sodipodi:nodetypes="ccccc" />
    <path
       id="z_wizard_inc1_btn"
       d="M 280,300.17549 H 430 V 370 H 280 Z"
       style="display:inline;opacity:0.997;fill:url(#linearGradient4768);fill-opacity:1;stroke:none;stroke-width:2.90053;stroke-miterlimit:4;stroke-dasharray:none"
       inkscape:connector-curvature="0"
       sodipodi:nodetypes="ccccc" />
    <path
       id="z_wizard_inc2_btn"
       d="M 450,300.17549 H 600 V 370 H 450 Z"
       style="display:inline;opacity:0.997;fill:url(#linearGradient4768);fill-opacity:1;stroke:none;stroke-width:2.90055;stroke-miterlimit:4;stroke-dasharray:none"
       inkscape:connector-curvature="0"
       sodipodi:nodetypes="ccccc" />
    <path
       id="z_wizard_inc3_btn"
       d="M 620,300.17549 H 770 V 370 H 620 Z"
       style="display:inline;opacity:0.997;fill:url(#linearGradient4768);fill-opacity:1;stroke:none;stroke-width:2.90053;stroke-miterlimit:4;stroke-dasharray:none"
       inkscape:connector-curvature="0"
       sodipodi:nodetypes="ccccc" />
    <path
       id="z_wizard_done_btn"
       d="m 600,390 h 170 v 70 H 600 Z"
       style="display:inline;opacity:0.997;fill:url(#linearGradient4768);fill-opacity:1;stroke:none;stroke-width:3.09174;stroke-miterlimit:4;stroke-dasharray:none"
       inkscape:connector-curvature="0"
       sodipodi:nodetypes="ccccc" />
    <path
       id="z_wizard_neg_btn"
       d="m 490,180 h 60 v 50 h -60 z"
       style="display:inline;opacity:0.997;fill:url(#linearGradient4768);fill-opacity:1;stroke:none;stroke-width:1.55235;stroke-miterlimit:4;stroke-dasharray:none"
       inkscape:connector-curvature="0"
       sodipodi:nodetypes="ccccc" />
    <path
       id="z_wizard_diagram"
       style="display:inline;opacity:0.997;fill:url(#linearGradient4768);fill-opacity:1;stroke:none;stroke-width:4.49683;stroke-miterlimit:4;stroke-dasharray:none"
       d="m 341.87175,145.77314 v 34.38779 h 42.06481 l 13.33263,23.12346 h 12.16406 l 13.33263,-23.12346 h 42.06806 V 145.77314 Z M 40.705694,249.67208 V 280 H 770 v -30.32792 z"
       sodipodi:nodetypes="cccccccccccccc" />
  </g>
  <g
     style="display:none"
     inkscape:label="Cocoa Press Load BTN"
     id="layer3"
     inkscape:groupmode="layer">
    <path
       style="display:inline;fill:url(#linearGradient4768);stroke:#000000;stroke-width:4.74592;stroke-linecap:butt;stroke-linejoin:miter;stroke-miterlimit:4;stroke-dasharray:none;stroke-opacity:1"
       d="m 175.55842,257.80671 h 29.25545 v 61.73011 h 14.62789 l -29.25561,30.86593 -29.25544,-30.86593 h 14.62771 z"
       id="load_screen_extrude"
       inkscape:connector-curvature="0"
       sodipodi:nodetypes="cccccccc" />
    <path
       style="display:inline;fill:url(#linearGradient4768);stroke:#000000;stroke-width:4.74462;stroke-linecap:butt;stroke-linejoin:miter;stroke-miterlimit:4;stroke-dasharray:none;stroke-opacity:1"
       d="m 175.55852,226.94079 h 29.25545 v -61.73031 h 14.62772 l -29.25544,-30.86522 -29.25545,30.86522 h 14.62772 z"
       id="load_screen_retract"
       inkscape:connector-curvature="0"
       sodipodi:nodetypes="cccccccc" />
    <path
       inkscape:label="#load_screen_back_btn"
       id="load_screen_back_btn"
       d="M 66.684403,375.285 H 733.31559 v 69.82451 H 66.684403 Z"
       style="display:inline;opacity:0.997;fill:url(#linearGradient4768);fill-opacity:1;stroke:none;stroke-width:6.11473;stroke-miterlimit:4;stroke-dasharray:none"
       inkscape:connector-curvature="0"
       sodipodi:nodetypes="ccccc" />
    <path
       sodipodi:nodetypes="ccccc"
       inkscape:connector-curvature="0"
       style="display:inline;opacity:0.997;fill:url(#linearGradient4768);fill-opacity:1;stroke:none;stroke-width:4.78552;stroke-miterlimit:4;stroke-dasharray:none"
       d="m 325.00399,209.45177 h 408.3116 v 69.82452 h -408.3116 z"
       id="load_screen_unload_btn" />
    <path
       sodipodi:nodetypes="ccccc"
       inkscape:connector-curvature="0"
       style="display:inline;opacity:0.997;fill:url(#linearGradient4768);fill-opacity:1;stroke:none;stroke-width:4.78552;stroke-miterlimit:4;stroke-dasharray:none"
       d="m 325.00399,288.00435 h 408.3116 v 69.82452 h -408.3116 z"
       id="load_screen_start_stop_btn"
       inkscape:label="#load_screen_start_stop_btn" />
    <path
       id="load_screen_load_btn"
       d="m 325.00399,130.89971 h 408.3116 v 69.82399 h -408.3116 z"
       style="display:inline;opacity:0.997;fill:url(#linearGradient4768);fill-opacity:1;stroke:none;stroke-width:4.78552;stroke-miterlimit:4;stroke-dasharray:none"
       inkscape:connector-curvature="0"
       sodipodi:nodetypes="ccccc" />
    <path
       inkscape:label="#load_screen_continuous"
       sodipodi:nodetypes="ccccc"
       inkscape:connector-curvature="0"
       style="display:inline;opacity:0.997;fill:url(#linearGradient4768);fill-opacity:1;stroke:none;stroke-width:4.78552;stroke-miterlimit:4;stroke-dasharray:none"
       d="m 325.00399,43.61854 h 408.3116 v 69.82452 h -408.3116 z"
       id="load_screen_continuous" />
    <path
       id="load_screen_increment"
       d="M 66.684403,43.61854 H 308.33821 v 69.82452 H 66.684403 Z"
       style="display:inline;opacity:0.997;fill:url(#linearGradient4768);fill-opacity:1;stroke:none;stroke-width:3.68157;stroke-miterlimit:4;stroke-dasharray:none"
       inkscape:connector-curvature="0"
       sodipodi:nodetypes="ccccc" />
  </g>
  <style
     type="text/css"
     id="style13435">
	.st0{fill:#3C2215;}
	.st1{fill:#AC3724;}
	.st2{fill:#F27121;}
	.st3{fill:#BC3E26;}
	.st4{opacity:0.63;fill:#3C2215;}
	.st5{fill:#FFFFFF;stroke:#000000;stroke-width:28;stroke-linecap:round;stroke-linejoin:round;stroke-miterlimit:10;}
	.st6{fill:#FFFFFF;}
	.st7{fill:none;stroke:#3C2215;stroke-width:20;stroke-linecap:round;stroke-linejoin:round;stroke-miterlimit:10;}
	.st8{fill:#E0D1CA;}
	.st9{fill:#3D2113;}
	.st10{fill:#AD3510;}
	.st11{fill:#FB5909;}
	.st12{fill:#F97002;}
	.st13{fill:#514F4F;}
</style>
</svg>
