<?xml version="1.0" encoding="utf-8"?>
<!-- Generator: Adobe Illustrator 25.1.0, SVG Export Plug-In . SVG Version: 6.00 Build 0)  -->
<svg version="1.1" id="Layer_1" xmlns="http://www.w3.org/2000/svg" xmlns:xlink="http://www.w3.org/1999/xlink" x="0px" y="0px"
	 viewBox="0 0 800 800" style="enable-background:new 0 0 800 800;" xml:space="preserve">
<style type="text/css">
	.st0{fill:#3C2215;}
	.st1{fill:#AC3724;}
	.st2{fill:#F27121;}
	.st3{fill:#BC3E26;}
	.st4{opacity:0.63;fill:#3C2215;}
	.st5{fill:#FFFFFF;stroke:#000000;stroke-width:28;stroke-linecap:round;stroke-linejoin:round;stroke-miterlimit:10;}
	.st6{fill:#FFFFFF;}
	.st7{fill:none;stroke:#3C2215;stroke-width:20;stroke-linecap:round;stroke-linejoin:round;stroke-miterlimit:10;}
	.st8{fill:#E0D1CA;}
	.st9{fill:#3D2113;}
	.st10{fill:#AD3510;}
	.st11{fill:#FB5909;}
	.st12{fill:#F97002;}
	.st13{fill:#514F4F;}
</style>
<g>
	<path class="st1" d="M659.82,471.2c0.02,0.27,0.05,0.54,0.07,0.8c0.03,0.2,0.04,0.4,0.05,0.6c0.03,0.52,0.04,1.02,0.06,1.51
		c0,0.04,0,0.09,0,0.13c0.01,0.79-0.01,1.56-0.05,2.29c-0.01,0.16-0.02,0.32-0.03,0.49c-0.01,0.15-0.01,0.31-0.03,0.45
		c-0.01,0.16-0.02,0.33-0.03,0.49c-0.01,0.15-0.01,0.31-0.03,0.45c-0.01,0.17-0.02,0.33-0.03,0.49c0,0.16-0.01,0.32-0.02,0.48
		c-0.01,0.15-0.02,0.31-0.02,0.45c-0.01,0.16-0.02,0.32-0.03,0.49c0,0.15-0.01,0.31-0.03,0.45c-0.01,0.17-0.02,0.33-0.03,0.49
		c0,0.16-0.01,0.31-0.03,0.45c-0.01,0.17-0.02,0.33-0.03,0.49c0,0.16-0.01,0.31-0.02,0.47c-0.01,0.16-0.01,0.32-0.02,0.49
		c-0.01,0.15-0.03,0.3-0.03,0.45c-0.01,0.16-0.02,0.32-0.03,0.48c-0.01,0.16-0.02,0.32-0.03,0.48c0,0.16-0.01,0.32-0.02,0.48
		c-0.01,0.16-0.02,0.32-0.02,0.48c-0.01,0.15-0.02,0.31-0.02,0.45c-0.01,0.16-0.02,0.32-0.03,0.49c-0.01,0.15-0.02,0.31-0.03,0.45
		c-0.01,0.17-0.02,0.33-0.03,0.49c-0.01,0.15-0.01,0.31-0.02,0.45c-0.01,0.16-0.02,0.33-0.03,0.49c0,0.16-0.01,0.32-0.02,0.47
		c-0.01,0.16-0.02,0.32-0.03,0.48c0,0.16-0.01,0.32-0.02,0.47c-0.01,0.16-0.01,0.32-0.02,0.47c-0.01,0.17-0.02,0.33-0.03,0.49
		c0,0.16-0.01,0.31-0.02,0.47s-0.02,0.32-0.03,0.48c0,0.16-0.01,0.31-0.02,0.47c0,0.16-0.01,0.32-0.02,0.49
		c-0.01,0.15-0.02,0.31-0.03,0.47c0,0.16-0.01,0.31-0.02,0.47c-0.01,0.16-0.02,0.32-0.03,0.49c0,0.15-0.01,0.29-0.02,0.45
		c-0.01,0.16-0.01,0.32-0.02,0.48s-0.02,0.32-0.03,0.47c0,0.16-0.01,0.32-0.02,0.48s-0.01,0.31-0.02,0.47
		c-0.01,0.16-0.02,0.32-0.03,0.48s-0.02,0.32-0.02,0.48c-0.01,0.16-0.02,0.31-0.03,0.45c-0.01,0.17-0.02,0.33-0.02,0.51
		c-0.01,0.15-0.02,0.31-0.03,0.45c-0.01,0.16-0.02,0.32-0.03,0.48s-0.01,0.32-0.02,0.47c-0.01,0.17-0.02,0.33-0.03,0.49
		c-0.01,0.16-0.01,0.31-0.02,0.47s-0.02,0.32-0.03,0.48c0,0.16-0.01,0.32-0.02,0.48c-0.01,0.15-0.01,0.31-0.02,0.47
		s-0.02,0.32-0.03,0.48c-0.01,0.16-0.01,0.31-0.03,0.45c-0.01,0.17-0.02,0.33-0.02,0.51c0,0.15-0.01,0.29-0.03,0.45
		s-0.01,0.32-0.02,0.48c-0.01,0.16-0.02,0.31-0.03,0.47c0,0.16-0.01,0.32-0.02,0.49c-0.01,0.15-0.02,0.31-0.03,0.47
		c0,0.16-0.01,0.31-0.02,0.47s-0.02,0.33-0.03,0.49c0,0.15-0.02,0.29-0.03,0.45c0,0.16-0.01,0.32-0.02,0.48s-0.02,0.31-0.02,0.47
		c-0.01,0.16-0.02,0.33-0.03,0.49c-0.01,0.15-0.01,0.31-0.02,0.45c-0.01,0.17-0.02,0.33-0.03,0.49s-0.01,0.32-0.02,0.47
		c-0.01,0.16-0.02,0.32-0.02,0.47c-0.01,0.17-0.02,0.33-0.03,0.49s-0.02,0.31-0.03,0.45c-0.01,0.17-0.02,0.33-0.03,0.49
		c-0.01,0.15-0.01,0.31-0.02,0.47c-0.01,0.16-0.02,0.32-0.03,0.48c0,0.16-0.01,0.31-0.03,0.45c0.01,0.17,0,0.33-0.02,0.49
		c-0.01,0.15-0.02,0.31-0.03,0.47c0,0.16-0.01,0.32-0.02,0.48s-0.02,0.32-0.03,0.48c0,0.15-0.01,0.31-0.02,0.47
		s-0.02,0.32-0.03,0.49c0,0.15-0.01,0.29-0.03,0.45c0,0.16-0.01,0.32-0.02,0.48c-0.01,0.16-0.02,0.32-0.03,0.47
		c0,0.16,0,0.33-0.02,0.49c-0.01,0.15-0.01,0.31-0.03,0.45c-0.01,0.16-0.02,0.33-0.03,0.49c-0.01,0.16-0.02,0.32-0.03,0.48
		c0,0.16-0.01,0.31-0.02,0.47c0,0.16-0.01,0.32-0.02,0.47c-0.01,0.16-0.02,0.32-0.02,0.47c-0.01,0.16-0.02,0.32-0.03,0.48
		c-0.01,0.16-0.01,0.31-0.02,0.47s-0.02,0.33-0.03,0.49c0,0.16-0.01,0.31-0.02,0.47s-0.02,0.32-0.02,0.48
		c-0.01,0.16-0.02,0.32-0.03,0.48c-0.01,0.15-0.01,0.31-0.02,0.47c-0.01,0.16-0.02,0.32-0.03,0.48c0,0.15-0.01,0.31-0.03,0.45
		c-0.01,0.17-0.02,0.33-0.03,0.49c0,0.16-0.01,0.31-0.02,0.47c0,0.16-0.01,0.32-0.02,0.48s-0.02,0.31-0.02,0.47
		c-0.01,0.16-0.02,0.33-0.03,0.49c-0.01,0.16-0.02,0.31-0.03,0.47c0,0.16-0.01,0.31-0.02,0.47s-0.01,0.32-0.02,0.49
		c-0.01,0.15-0.03,0.3-0.04,0.46c0,0.16-0.01,0.32-0.02,0.48c-0.01,0.16-0.01,0.32-0.02,0.47c-0.01,0.16-0.02,0.33-0.03,0.49
		c-0.01,0.15-0.01,0.31-0.03,0.45c-0.01,0.16-0.02,0.33-0.03,0.49s-0.01,0.32-0.02,0.48c-0.01,0.15-0.02,0.29-0.03,0.44
		c-0.01,0.17-0.02,0.33-0.02,0.51c-0.01,0.15-0.01,0.31-0.02,0.45c-0.01,0.17-0.02,0.33-0.03,0.49c-0.01,0.16-0.01,0.31-0.02,0.45
		c-0.01,0.17-0.02,0.33-0.03,0.49c0,0.16-0.01,0.32-0.02,0.47c-0.01,0.16-0.01,0.32-0.03,0.48c0,0.16-0.01,0.32-0.02,0.48
		s-0.01,0.31-0.02,0.47c-0.01,0.16-0.02,0.32-0.03,0.48c0,0.16-0.01,0.31-0.02,0.47s-0.02,0.32-0.03,0.48
		c0,0.16-0.01,0.31-0.02,0.47c0,0.16-0.01,0.32-0.02,0.48c-0.01,0.16-0.02,0.32-0.02,0.47c-0.01,0.16-0.02,0.33-0.03,0.49
		c-0.01,0.16-0.02,0.31-0.02,0.47c-0.01,0.16-0.02,0.31-0.03,0.47c0,0.16,0,0.33-0.02,0.49c-0.01,0.15-0.02,0.31-0.02,0.45
		c-0.01,0.16-0.02,0.33-0.03,0.49c-0.01,0.15-0.01,0.31-0.02,0.45c-0.01,0.17-0.02,0.33-0.03,0.49c0,0.15-0.01,0.31-0.03,0.45
		c-0.01,0.16-0.02,0.33-0.03,0.49c0,0.16-0.01,0.31-0.02,0.47s-0.01,0.32-0.02,0.48s-0.02,0.32-0.03,0.48
		c-0.01,0.16-0.01,0.31-0.03,0.45c-0.01,0.17-0.02,0.33-0.03,0.49c0,0.16-0.01,0.31-0.03,0.45c-0.01,0.17,0,0.33-0.03,0.49
		c0,0.16-0.01,0.31-0.02,0.47c0,0.16-0.01,0.32-0.02,0.48c-0.01,0.16-0.02,0.31-0.02,0.47c-0.01,0.16-0.02,0.32-0.03,0.49
		c-0.01,0.16-0.02,0.32-0.03,0.48c0,0.15-0.01,0.31-0.02,0.47s-0.01,0.32-0.02,0.47c-0.01,0.16-0.02,0.32-0.02,0.47
		c-0.01,0.16-0.02,0.33-0.03,0.49c-0.01,0.15-0.01,0.31-0.03,0.45c-0.01,0.17-0.02,0.33-0.03,0.49s-0.01,0.31-0.02,0.45
		c-0.01,0.17-0.02,0.33-0.03,0.49c-0.01,0.16-0.01,0.32-0.02,0.48s-0.02,0.31-0.03,0.45c-0.01,0.17-0.02,0.33-0.03,0.49
		c0,0.15-0.01,0.31-0.02,0.45c-0.01,0.16-0.02,0.33-0.03,0.49c0,0.16-0.01,0.31-0.03,0.45c-0.01,0.17-0.02,0.33-0.03,0.49
		c0,0.16-0.01,0.31-0.02,0.47c0,0.16-0.01,0.32-0.02,0.48s-0.02,0.32-0.03,0.48c0,0.16-0.01,0.31-0.02,0.47
		c-0.01,0.16-0.02,0.32-0.03,0.48c0,0.16-0.01,0.31-0.02,0.47c0,0.16-0.01,0.32-0.02,0.48s-0.02,0.32-0.03,0.47
		c0,0.16-0.01,0.32-0.02,0.49c-0.01,0.15-0.02,0.31-0.02,0.45c-0.01,0.17-0.02,0.33-0.03,0.49s-0.02,0.32-0.02,0.47
		c-0.01,0.16-0.02,0.31-0.03,0.45c-0.01,0.17-0.02,0.33-0.02,0.51c-0.01,0.15-0.02,0.31-0.03,0.45c-0.01,0.16-0.02,0.32-0.03,0.49
		c-0.01,0.15-0.01,0.31-0.03,0.45c-0.01,0.17-0.02,0.33-0.03,0.49c0,0.16-0.01,0.31-0.03,0.45c-0.01,0.17-0.02,0.33-0.03,0.49
		c0,0.16-0.01,0.32-0.02,0.48s-0.01,0.31-0.02,0.47c-0.01,0.16-0.02,0.32-0.03,0.48c0,0.16-0.01,0.31-0.03,0.45
		c-0.01,0.17-0.02,0.33-0.02,0.51c0,0.15-0.01,0.29-0.02,0.45c-0.01,0.16-0.02,0.32-0.03,0.49c0,0.15-0.01,0.31-0.03,0.45
		c0,0.16-0.01,0.32-0.02,0.49c-0.01,0.15-0.02,0.31-0.03,0.47c0,0.16-0.01,0.31-0.02,0.47s-0.02,0.32-0.03,0.48
		c0,0.16-0.01,0.31-0.01,0.46c-0.01,0.16-0.02,0.32-0.03,0.49c-0.01,0.15-0.02,0.31-0.03,0.45c-0.01,0.16-0.02,0.32-0.03,0.48
		s-0.01,0.31-0.02,0.47s-0.02,0.32-0.03,0.49c-0.01,0.16-0.01,0.32-0.02,0.47c-0.01,0.16-0.02,0.32-0.02,0.47
		c-0.01,0.16-0.02,0.33-0.03,0.49c-0.01,0.15-0.01,0.31-0.02,0.45c-0.01,0.17-0.02,0.33-0.03,0.49s-0.01,0.31-0.02,0.47
		c-0.01,0.16-0.02,0.32-0.03,0.48c0,0.16-0.01,0.31-0.02,0.47s-0.02,0.32-0.03,0.48c0,0.16-0.01,0.31-0.02,0.47
		c0,0.16-0.01,0.32-0.02,0.48c-0.01,0.16-0.02,0.32-0.03,0.48c0,0.16-0.01,0.32-0.02,0.48s-0.02,0.32-0.03,0.48
		c0,0.15-0.01,0.29-0.03,0.44c0.01,0.17,0,0.33-0.01,0.5c-0.01,0.15-0.02,0.31-0.03,0.45c-0.01,0.16-0.02,0.32-0.03,0.48
		s-0.01,0.32-0.02,0.47c-0.01,0.17-0.02,0.33-0.03,0.49s-0.02,0.32-0.02,0.48c-0.01,0.15-0.02,0.31-0.02,0.45
		c-0.01,0.17-0.02,0.33-0.03,0.49c-0.01,0.15-0.02,0.31-0.03,0.45c-0.01,0.17-0.02,0.33-0.03,0.49c-0.01,0.15-0.01,0.31-0.03,0.45
		c-0.01,0.17-0.02,0.33-0.03,0.49c0,0.16-0.01,0.31-0.02,0.47s-0.02,0.32-0.03,0.48c0,0.16-0.01,0.32-0.02,0.48
		c-0.01,0.15-0.01,0.31-0.02,0.47s-0.02,0.32-0.03,0.48c0,0.15-0.01,0.31-0.02,0.47s-0.02,0.32-0.03,0.49
		c0,0.15-0.01,0.29-0.02,0.45c0,0.16-0.01,0.32-0.02,0.48c-0.01,0.16-0.02,0.32-0.03,0.47c0,0.16-0.01,0.33-0.02,0.49
		c-0.01,0.16-0.02,0.31-0.03,0.47c0,0.16-0.01,0.31-0.02,0.47c-0.01,0.16-0.02,0.33-0.03,0.49c0,0.15-0.01,0.31-0.01,0.45
		c-0.01,0.16-0.02,0.33-0.03,0.49s-0.02,0.31-0.02,0.47c-0.02,0.14-0.02,0.28-0.03,0.43c-0.32,9.29-4.95,22.38-24.99,32.51
		c-18.97,9.57-43.86,19.91-74.38,27.95c-34.64,9.13-76.55,15.29-125.25,14.04c-104.44-2.71-189.97-34.51-240.86-89.52
		c-33.87-36.65-50.43-81.71-47.88-130.31l0-0.19c0.01-0.11,0.01-0.21,0.01-0.31c0.01-0.08,0.02-0.18,0.02-0.27l0.03-0.64
		c0-0.09,0.02-0.19,0.02-0.27c0-0.09,0.01-0.17,0.01-0.25l0.02-0.43c0.01-0.12,0.01-0.21,0.02-0.31l-0.01-0.17
		c0-0.09,0.01-0.17,0.02-0.24c0.01-0.08,0-0.19,0.02-0.28c0-0.06,0.01-0.16,0.01-0.27l0.01-0.16c0.01-0.12,0.01-0.21,0.02-0.31
		l0.02-0.37c0-0.1,0-0.21,0.01-0.31c0.01-0.08,0.01-0.17,0.01-0.27l0.03-0.38c0-0.12,0-0.21,0.01-0.32c0.01-0.07,0-0.15,0.01-0.23
		s0.01-0.16,0.02-0.24c0.01-0.07,0.01-0.15,0.02-0.24l0.01-0.2c0-0.1,0.01-0.21,0.01-0.31l0-0.19c0.01-0.07,0.01-0.15,0.02-0.23
		l0.02-0.24c0-0.1,0.01-0.2,0.01-0.29l0-0.19c0.01-0.11,0.01-0.2,0.01-0.29l0.04-0.66c0-0.09,0.02-0.19,0.01-0.29l0.03-0.64
		c0.01-0.11,0.02-0.22,0.02-0.31l0.04-0.67c0-0.09,0-0.19,0.02-0.28l0.01-0.17c0.01-0.08,0.01-0.16,0.02-0.24c0-0.09,0-0.17,0-0.25
		c0.01-0.1,0.02-0.19,0.03-0.28l0-0.19c0-0.11,0.01-0.2,0.02-0.29l0.03-0.67c0-0.09,0-0.19,0.02-0.28l0.02-0.66
		c0.01-0.1,0.02-0.19,0.03-0.28l0.02-0.66c0.01-0.1,0.02-0.19,0.01-0.29l0.02-0.19c0.01-0.07,0-0.15,0.01-0.21
		c0.01-0.08,0.01-0.17,0.01-0.25c0-0.11,0.01-0.2,0.01-0.29l0.02-0.19c-0.01-0.08,0-0.16,0.01-0.24c0-0.12,0-0.24,0.01-0.36
		l0.01-0.35c0.01-0.11,0.01-0.2,0.02-0.29l0.04-0.66c0-0.09,0.01-0.2,0.01-0.29l0.03-0.64c0.01-0.11,0.02-0.22,0.02-0.31l0-0.19
		c0-0.08,0.01-0.15,0.02-0.23c0.01-0.08,0.01-0.16,0.01-0.25c0-0.09,0-0.19,0.02-0.28l0-0.19c0-0.09,0.01-0.17,0.01-0.25
		c0.01-0.12,0.01-0.24,0.02-0.36l0.02-0.33c0-0.09,0.01-0.2,0.01-0.29l0.03-0.64c0.01-0.12,0.01-0.21,0.02-0.31l0.04-0.67
		c0-0.09,0-0.19,0.02-0.28l-0.01-0.17c0.02-0.08,0.02-0.16,0.02-0.24c0-0.09,0.01-0.17,0.01-0.25c0.01-0.1,0.02-0.19,0.02-0.29
		l0.02-0.19c0.01-0.08,0.01-0.16,0.02-0.23c0-0.13,0-0.25,0.01-0.37l0.01,0l0.01-0.35c0-0.09,0-0.19,0.02-0.28l0.02-0.66
		c0.01-0.1,0.02-0.19,0.02-0.28l0.04-0.67c0-0.09,0.02-0.19,0.01-0.29l0.02-0.19c-0.01-0.08,0-0.15,0.01-0.21
		c0.01-0.08,0.01-0.17,0.01-0.25c0-0.11,0.01-0.2,0.01-0.29l0-0.19c0.01-0.08,0.01-0.16,0.02-0.24c0.01-0.12,0.02-0.24,0.02-0.36
		l0.01-0.35c0.01-0.1,0.02-0.19,0.02-0.28l0.04-0.67c0-0.09,0.01-0.2,0.01-0.29l0.03-0.64c0.01-0.12,0.02-0.22,0.02-0.31l0.03-0.67
		c0-0.09,0-0.19,0.02-0.28l0-0.19c0.01-0.08,0.01-0.16,0.02-0.23c-0.01-0.09,0-0.17,0-0.25l0.03-0.48c0-0.09,0-0.19,0.02-0.28
		l0.03-0.64c0.01-0.12,0.01-0.21,0.02-0.31l0.02-0.66c0.01-0.1,0.02-0.19,0.02-0.28l0.04-0.67c0-0.09,0.02-0.19,0.02-0.29l0.02-0.19
		c-0.01-0.08,0-0.15,0.01-0.21c0-0.09,0.01-0.17,0.01-0.25c0-0.11,0.01-0.2,0.01-0.29l0-0.19c0.01-0.1,0.02-0.19,0.03-0.28
		l0.02-0.66c0.01-0.1,0.02-0.19,0.02-0.28l0.03-0.67c0-0.09,0.01-0.2,0.02-0.29l0.04-0.66c0-0.1,0.01-0.2,0.01-0.29l0-0.19
		c0.01-0.08,0.01-0.15,0.02-0.23c0.01-0.08,0.01-0.17,0.01-0.25c0-0.09,0-0.19,0.02-0.28l0-0.19c0-0.11,0.01-0.2,0.02-0.28
		l0.04-0.67c0-0.09,0.01-0.2,0.01-0.29l0.03-0.64c0.01-0.12,0.01-0.21,0.02-0.31l0.02-0.66c0.01-0.1,0.02-0.19,0.03-0.28l0-0.19
		c0.01-0.08,0.01-0.16,0.02-0.24c-0.01-0.08,0-0.16,0-0.24c0.01-0.1,0.02-0.19,0.01-0.29l0.02-0.19c0-0.09,0-0.19,0.02-0.28
		l0.03-0.64c0.01-0.12,0.01-0.21,0.02-0.31l0.02-0.66c0.01-0.1,0.02-0.19,0.02-0.28l0.04-0.67c0-0.09,0.02-0.19,0.01-0.29l0.02-0.19
		c-0.01-0.08,0-0.15,0.01-0.23s0.01-0.16,0.02-0.24c0-0.11,0.01-0.2,0.01-0.29l0-0.19c0.01-0.08,0.01-0.16,0.02-0.24
		c0.01-0.12,0.02-0.24,0.02-0.37l0.02-0.33c0-0.11,0.01-0.2,0.02-0.28l0.03-0.67c0-0.09,0.01-0.2,0.02-0.29l0.03-0.67
		c0-0.09,0-0.19,0.02-0.28l0-0.19c0.01-0.08,0.01-0.15,0.02-0.23c0-0.09,0.01-0.17,0-0.25c0.01-0.1,0.02-0.19,0.03-0.3l0.01-0.17
		c0-0.09,0.01-0.17,0.01-0.24c0-0.12,0-0.24,0.01-0.35l0.02-0.37c0-0.09,0-0.19,0.02-0.28l0.03-0.64c0.01-0.12,0.01-0.21,0.02-0.32
		l0.03-0.65c0.01-0.1,0.01-0.2,0.02-0.28l0.01-0.2c0.01-0.07,0-0.15,0.01-0.23c0.01-0.08,0.01-0.16,0.02-0.24
		c0-0.09,0.02-0.19,0.02-0.29l0.02-0.19c-0.01-0.08,0-0.16,0-0.24c0.01-0.12,0.01-0.24,0.02-0.36l0.02-0.32
		c0.01-0.12,0.01-0.21,0.01-0.32l0.04-0.66c0.01-0.11,0.01-0.2,0.01-0.29l0.04-0.66c0-0.09,0.01-0.2,0.01-0.29l0.04-0.67
		c0-0.09,0.02-0.19,0.02-0.28l0-0.19c0.01-0.08,0.01-0.15,0.02-0.23s0.01-0.17,0.01-0.25l0.02-0.47c0-0.11,0.01-0.2,0.02-0.28
		l0.03-0.68c0-0.09,0-0.19,0.02-0.28l0.03-0.67c0-0.09,0-0.19,0.02-0.28l0.02-0.66c0.01-0.1,0.02-0.19,0.01-0.29l0.02-0.19
		c0.01-0.07,0.01-0.15,0.01-0.23c0.01-0.07,0.01-0.15,0.02-0.23c0-0.11,0.01-0.21,0.01-0.31l0.02-0.19c0-0.09,0-0.19,0.02-0.28
		l0.03-0.64c0.01-0.12,0.01-0.21,0.02-0.32l0.03-0.65c0.01-0.11,0.01-0.2,0.02-0.29l0.04-0.66c0-0.09,0.01-0.2,0.01-0.29l0-0.19
		c0.01-0.07,0.01-0.15,0.02-0.23s0.01-0.16,0.01-0.25c0-0.09,0-0.19,0.02-0.28l0.01-0.17c0-0.1,0.01-0.21,0.01-0.31l0.04-0.66
		c0-0.11,0.01-0.2,0.02-0.29l0.04-0.67c0-0.08,0-0.19,0.02-0.28l0.04-0.67c0-0.09,0-0.19,0.02-0.28l0-0.19
		c0.01-0.08,0.01-0.15,0.02-0.23c0-0.09-0.01-0.17,0-0.25c0.01-0.1,0.02-0.19,0.03-0.3l0-0.19c0-0.09,0.02-0.19,0.02-0.28l0.04-0.67
		c0-0.09,0-0.19,0.02-0.28l0.02-0.66c0.01-0.1,0.01-0.2,0.03-0.3l0.03-0.65c0-0.09,0.02-0.19,0.01-0.29l0.02-0.19
		c0.01-0.08,0-0.15,0.01-0.23c0.01-0.07,0.01-0.15,0.02-0.23c0-0.11,0.01-0.21,0.01-0.31l0-0.19c0.01-0.08,0.01-0.16,0.02-0.24
		s0.01-0.16,0.02-0.24c0-0.04,0.01-0.08,0.01-0.12l0.02-0.32c0.01-0.12,0.01-0.23,0.01-0.32l0.04-0.66c0-0.11,0.01-0.2,0.01-0.29
		l0.04-0.66c0-0.09,0.01-0.2,0.01-0.29l0-0.19c0.01-0.08,0.01-0.15,0.02-0.23s0.01-0.17,0.01-0.25c0-0.09,0-0.19,0.02-0.28
		l0.01-0.17c0-0.09,0.01-0.17,0.01-0.25c0-0.13,0.01-0.25,0.02-0.37l0.02-0.33c0-0.11,0.01-0.2,0.02-0.29l0.04-0.67
		c0-0.09,0-0.19,0.02-0.28l0.02-0.66c0.01-0.1,0.02-0.19,0.02-0.28l0.01-0.17c0.01-0.1,0.02-0.18,0.02-0.24
		c0-0.09,0.01-0.17,0.01-0.25c0.01-0.1,0.02-0.19,0.01-0.29l0.02-0.19c0.01-0.08,0.01-0.16,0.02-0.24c0-0.11,0.01-0.23,0.01-0.35
		l0.02-0.36c0-0.09,0-0.19,0.02-0.28l0.02-0.66c0.01-0.11,0.01-0.2,0.03-0.3l0.03-0.65c0-0.09,0.02-0.19,0.01-0.29l0.03-0.64
		c0.01-0.11,0.02-0.22,0.02-0.31l0-0.19c0.01-0.08,0.01-0.16,0.02-0.24c0.01-0.12,0.02-0.24,0.02-0.37l0.02-0.32
		c0-0.11,0.01-0.21,0.01-0.31l0.04-0.66c0-0.1,0.01-0.2,0.01-0.29l0.04-0.67c0-0.09,0-0.19,0.02-0.28l0.04-0.67
		c0-0.09,0-0.19,0.02-0.28l0-0.17c0.01-0.1,0.02-0.18,0.03-0.24c-0.01-0.09,0-0.17,0-0.25c0.01-0.1,0.02-0.19,0.03-0.3l0-0.19
		c0-0.09,0.02-0.19,0.02-0.28l0.03-0.67c0-0.09,0-0.19,0.02-0.28l0.02-0.66c0.01-0.1,0.02-0.19,0.02-0.28l0.04-0.67
		c0-0.09,0.02-0.19,0.01-0.29l0.02-0.19c-0.01-0.08,0-0.15,0.01-0.23c0.01-0.07,0.01-0.15,0.01-0.23c0.01-0.11,0.02-0.22,0.02-0.31
		l0-0.19c0.01-0.1,0.02-0.19,0.03-0.3l0.03-0.65c0.01-0.11,0.01-0.2,0.02-0.29l0.04-0.66c0-0.09,0.01-0.2,0.02-0.29l0.03-0.64
		c0.01-0.12,0.02-0.22,0.02-0.31l0-0.19c0-0.08,0.01-0.15,0.02-0.23c0.01-0.08,0.01-0.17,0.01-0.25c0-0.09,0-0.19,0.02-0.28l0-0.19
		c0-0.11,0.01-0.2,0.01-0.29l0.04-0.67c0-0.09,0.02-0.19,0.02-0.28l0.04-0.67c0-0.09,0-0.19,0.02-0.28l0.02-0.66
		c0.01-0.1,0.02-0.19,0.02-0.28l0.01-0.17c0-0.09,0.02-0.18,0.01-0.25c0-0.08,0.01-0.16,0.01-0.24c0-0.09,0.02-0.19,0.02-0.29
		l0.02-0.19c0.01-0.08,0.01-0.16,0.02-0.24c0-0.12,0-0.24,0.01-0.36l0.01-0.35c0.01-0.1,0.02-0.19,0.03-0.3l0.03-0.65
		c0.01-0.1,0.02-0.19,0.02-0.28l0.04-0.67c0-0.09,0.01-0.2,0.01-0.29l0-0.19c0.01-0.08,0.01-0.15,0.02-0.23
		c0.01-0.07,0-0.15,0.01-0.23c0.01-0.11,0.02-0.22,0.02-0.31l0-0.19c0.01-0.08,0.01-0.16,0.02-0.24c0.01-0.12,0.01-0.25,0.02-0.37
		l0.02-0.33c0-0.11,0.01-0.2,0.02-0.29l0.04-0.66c0-0.09,0.01-0.2,0.01-0.29l0.03-0.64c0.01-0.12,0.01-0.21,0.02-0.31l0-0.19
		c0-0.08,0.01-0.15,0.02-0.23c0-0.06,0-0.13,0-0.19c0.01-0.03,0-0.05,0.01-0.07c0.1-2.02,0.24-4.03,0.43-6.03l25.13,19.19
		l53.74,41.03L488.6,506.26l140.94-41.13l25.91-7.56C657.9,462.09,659.35,466.65,659.82,471.2z"/>
	<path class="st2" d="M658.23,195c0.15,0.51,0.28,1.01,0.4,1.52l0.09,0.36c0.12,0.57,0.23,1.14,0.33,1.69
		c0.01,0.1,0.04,0.19,0.05,0.28c0.01,0.1,0.03,0.2,0.04,0.31c0.06,0.42,0.11,0.83,0.15,1.25c0.05,0.44,0.08,0.86,0.11,1.3
		c0.01,0.09,0.01,0.19,0.02,0.28c0.07,1.31,0.05,2.62-0.06,3.93c0,0.09,0,0.19-0.02,0.28c0,0.15-0.01,0.31-0.02,0.47
		s-0.02,0.32-0.02,0.48c-0.01,0.16-0.02,0.32-0.03,0.47c0,0.16-0.01,0.32-0.02,0.48c-0.01,0.16-0.02,0.32-0.03,0.47
		c0,0.16-0.01,0.32-0.02,0.48s-0.02,0.32-0.03,0.49c0,0.15-0.01,0.31-0.03,0.45c0,0.16-0.01,0.32-0.02,0.48
		c-0.01,0.16-0.02,0.31-0.03,0.47c0,0.16-0.01,0.32-0.02,0.48s-0.01,0.32-0.02,0.47c-0.01,0.16-0.02,0.33-0.03,0.49
		c-0.01,0.15-0.01,0.31-0.02,0.47c-0.01,0.15-0.02,0.31-0.02,0.47c-0.01,0.16-0.02,0.32-0.03,0.48c-0.01,0.16-0.01,0.32-0.02,0.48
		s-0.02,0.31-0.03,0.47s-0.01,0.32-0.02,0.48c-0.01,0.16-0.02,0.32-0.03,0.48c0,0.15-0.01,0.31-0.02,0.47
		c-0.01,0.16-0.02,0.32-0.03,0.48c0,0.16-0.01,0.31-0.02,0.47c0,0.16-0.01,0.31-0.02,0.47c-0.01,0.16-0.02,0.32-0.03,0.48
		c0,0.16-0.01,0.32-0.02,0.47c-0.01,0.17-0.02,0.33-0.02,0.51c0,0.15-0.01,0.31-0.03,0.45c-0.01,0.16-0.01,0.32-0.02,0.48
		s-0.02,0.32-0.03,0.47c0,0.16-0.01,0.32-0.02,0.48c-0.01,0.16-0.02,0.32-0.02,0.47c-0.01,0.16-0.02,0.32-0.03,0.47
		c0,0.17-0.01,0.33-0.02,0.49c-0.01,0.15-0.02,0.31-0.03,0.47c0,0.16,0,0.33-0.02,0.49c-0.01,0.15-0.02,0.31-0.03,0.45
		c-0.01,0.16-0.02,0.32-0.03,0.49c-0.01,0.15-0.01,0.31-0.03,0.45c-0.01,0.17-0.02,0.33-0.03,0.49c0,0.15-0.01,0.31-0.02,0.47
		s-0.01,0.31-0.02,0.47s-0.02,0.32-0.03,0.48c-0.01,0.16-0.01,0.31-0.02,0.47c-0.01,0.17-0.02,0.33-0.03,0.49
		c-0.01,0.16-0.01,0.31-0.02,0.47s-0.02,0.32-0.03,0.48c0,0.16-0.01,0.31-0.02,0.47c0,0.16-0.01,0.32-0.02,0.48
		s-0.02,0.32-0.03,0.47c0,0.16-0.01,0.32-0.02,0.47c-0.01,0.16-0.02,0.32-0.03,0.49c0,0.15-0.01,0.31-0.03,0.45
		c-0.01,0.17-0.01,0.35-0.02,0.51c0,0.15-0.01,0.31-0.03,0.45c0,0.16-0.01,0.32-0.02,0.48c-0.01,0.16-0.02,0.32-0.03,0.48
		c0,0.15-0.01,0.31-0.02,0.47c-0.01,0.16-0.01,0.32-0.02,0.48s-0.02,0.32-0.03,0.48c0,0.15-0.01,0.31-0.02,0.47
		c-0.01,0.15-0.02,0.31-0.02,0.47c-0.01,0.16-0.02,0.33-0.03,0.49s-0.01,0.31-0.03,0.45c-0.01,0.16-0.02,0.33-0.03,0.49
		c0,0.15-0.01,0.31-0.02,0.47c-0.01,0.16-0.02,0.32-0.03,0.48c0,0.16-0.01,0.31-0.02,0.47c-0.01,0.16-0.02,0.32-0.03,0.48
		c0,0.16-0.01,0.32-0.02,0.47c0,0.16-0.01,0.32-0.02,0.47c-0.01,0.17-0.02,0.33-0.02,0.51c0,0.15-0.01,0.29-0.03,0.45
		c-0.01,0.16-0.02,0.32-0.02,0.48c-0.01,0.16-0.02,0.31-0.03,0.47c0,0.16-0.01,0.32-0.02,0.48c-0.01,0.16-0.02,0.32-0.02,0.47
		c-0.01,0.16-0.02,0.32-0.03,0.48c-0.01,0.16-0.01,0.32-0.02,0.48c-0.01,0.15-0.02,0.31-0.04,0.46c0.01,0.17,0,0.33-0.02,0.49
		c-0.01,0.16-0.02,0.32-0.03,0.47c0,0.16-0.01,0.32-0.02,0.48c-0.01,0.16-0.02,0.32-0.02,0.47c-0.01,0.17-0.02,0.33-0.03,0.49
		c-0.01,0.15-0.01,0.31-0.02,0.47s-0.02,0.32-0.03,0.48c0,0.15-0.01,0.31-0.02,0.47s-0.01,0.31-0.02,0.47s-0.02,0.32-0.03,0.48
		c0,0.16-0.01,0.31-0.02,0.47c-0.01,0.17-0.02,0.33-0.02,0.51c-0.01,0.15-0.01,0.29-0.02,0.45c-0.01,0.16-0.02,0.32-0.03,0.48
		c0,0.16-0.01,0.31-0.02,0.47c0,0.16-0.01,0.32-0.02,0.48c-0.01,0.16-0.02,0.32-0.03,0.47c0,0.16-0.01,0.32-0.02,0.47
		c0,0.16-0.01,0.32-0.02,0.48s-0.02,0.32-0.03,0.48s-0.02,0.33-0.03,0.49c0,0.15-0.01,0.31-0.02,0.45c0,0.16-0.01,0.32-0.02,0.48
		s-0.01,0.32-0.02,0.47c-0.01,0.16-0.02,0.32-0.03,0.48c-0.01,0.16-0.01,0.32-0.02,0.48c-0.01,0.15-0.02,0.31-0.02,0.47
		c-0.01,0.16-0.02,0.32-0.03,0.48c-0.01,0.16-0.01,0.31-0.02,0.47s-0.02,0.33-0.03,0.49s-0.01,0.31-0.02,0.47
		c-0.01,0.16-0.02,0.32-0.03,0.48c0,0.15-0.01,0.31-0.02,0.47s-0.02,0.32-0.03,0.48c0,0.16-0.01,0.31-0.02,0.47
		c0,0.16-0.01,0.31-0.02,0.47c-0.01,0.16-0.02,0.32-0.03,0.48c0,0.16-0.01,0.32-0.02,0.47c-0.01,0.17-0.02,0.33-0.02,0.51
		c0,0.15-0.01,0.31-0.02,0.45c-0.01,0.16-0.01,0.32-0.02,0.48s-0.02,0.31-0.03,0.47c0,0.16-0.01,0.32-0.02,0.48
		c-0.01,0.16-0.02,0.32-0.02,0.47c-0.01,0.16-0.02,0.32-0.03,0.48s-0.01,0.32-0.02,0.47c-0.01,0.16-0.02,0.32-0.02,0.48
		c-0.01,0.16-0.02,0.33-0.03,0.49s-0.02,0.31-0.03,0.45c-0.01,0.16-0.02,0.32-0.03,0.48c-0.01,0.16-0.01,0.32-0.02,0.47
		c-0.01,0.16-0.02,0.32-0.03,0.48c0,0.16-0.01,0.32-0.02,0.48c-0.01,0.16-0.02,0.32-0.03,0.48c0,0.16-0.01,0.31-0.02,0.47
		s-0.01,0.32-0.02,0.47c-0.01,0.17-0.02,0.33-0.02,0.51c-0.01,0.15-0.01,0.29-0.02,0.45s-0.02,0.32-0.03,0.48
		c0,0.16-0.01,0.31-0.02,0.47c-0.01,0.16-0.02,0.32-0.03,0.48c0,0.16-0.01,0.31-0.02,0.47c0,0.16-0.01,0.32-0.02,0.48
		s-0.02,0.32-0.03,0.47c0,0.16-0.01,0.32-0.02,0.48s-0.02,0.32-0.03,0.49c0,0.15-0.01,0.31-0.03,0.45c0,0.16-0.01,0.32-0.02,0.48
		c-0.01,0.16-0.02,0.31-0.02,0.47c-0.01,0.16-0.02,0.32-0.03,0.49c-0.01,0.15-0.01,0.31-0.03,0.45c-0.01,0.16-0.02,0.33-0.03,0.49
		c0,0.15-0.01,0.31-0.03,0.45c-0.01,0.16-0.01,0.32-0.02,0.48s-0.02,0.32-0.03,0.48c-0.01,0.16-0.01,0.32-0.02,0.48
		s-0.02,0.32-0.03,0.48c-0.01,0.16-0.01,0.31-0.02,0.47s-0.02,0.32-0.03,0.48c0,0.15-0.01,0.31-0.02,0.47
		c-0.01,0.16-0.01,0.32-0.02,0.48s-0.02,0.31-0.03,0.47c0,0.16-0.01,0.31-0.02,0.47s-0.02,0.32-0.03,0.48
		c0,0.16-0.01,0.32-0.02,0.47c-0.01,0.17-0.02,0.33-0.02,0.51c0,0.15-0.01,0.31-0.03,0.45c-0.01,0.16-0.01,0.32-0.02,0.48
		s-0.02,0.32-0.03,0.47c0,0.16-0.01,0.32-0.02,0.48s-0.02,0.32-0.02,0.48c-0.01,0.15-0.02,0.31-0.03,0.47
		c0,0.16-0.01,0.32-0.02,0.48c-0.01,0.15-0.02,0.31-0.02,0.47c-0.01,0.16-0.02,0.33-0.03,0.49s-0.02,0.31-0.03,0.45
		c-0.01,0.16-0.02,0.33-0.03,0.49c-0.01,0.15-0.01,0.31-0.03,0.45c-0.01,0.17-0.02,0.33-0.03,0.49c0,0.16-0.01,0.31-0.02,0.47
		c-0.01,0.16-0.01,0.31-0.02,0.47s-0.02,0.32-0.03,0.48c0,0.16-0.01,0.31-0.02,0.47c-0.01,0.17-0.02,0.33-0.02,0.51
		c-0.01,0.15-0.01,0.31-0.02,0.45c-0.01,0.16-0.02,0.32-0.02,0.48c-0.01,0.16-0.02,0.31-0.03,0.47s-0.01,0.32-0.02,0.48
		c-0.01,0.16-0.02,0.32-0.03,0.47c0,0.16-0.01,0.32-0.02,0.47c-0.01,0.16-0.01,0.33-0.03,0.49c0,0.15-0.01,0.31-0.03,0.45
		c0,0.17-0.01,0.33-0.02,0.51c0,0.15-0.01,0.31-0.03,0.45c0,0.16-0.01,0.32-0.02,0.48c-0.01,0.16-0.02,0.32-0.02,0.47
		c-0.01,0.16-0.02,0.32-0.03,0.48s-0.01,0.32-0.02,0.48s-0.02,0.32-0.03,0.48c0,0.15-0.01,0.31-0.02,0.47s-0.01,0.31-0.02,0.47
		c-0.01,0.17-0.02,0.33-0.03,0.49s-0.01,0.31-0.03,0.45c-0.01,0.16-0.02,0.33-0.03,0.49c0,0.15-0.01,0.31-0.03,0.45
		c-0.01,0.17-0.02,0.33-0.03,0.49c0,0.16-0.01,0.31-0.02,0.47s-0.01,0.32-0.02,0.48s-0.02,0.32-0.03,0.47
		c0,0.16-0.01,0.32-0.02,0.47c-0.01,0.17-0.02,0.33-0.02,0.51c-0.01,0.15-0.01,0.31-0.03,0.45c-0.01,0.16-0.01,0.32-0.02,0.48
		s-0.02,0.31-0.03,0.47c0,0.16-0.01,0.32-0.02,0.48s-0.02,0.32-0.02,0.47c-0.01,0.16-0.02,0.32-0.03,0.48s-0.01,0.32-0.02,0.48
		c-0.01,0.15-0.02,0.31-0.03,0.47c0,0.16-0.01,0.32-0.02,0.48s-0.02,0.32-0.03,0.48c0,0.16-0.01,0.32-0.02,0.48
		c-0.01,0.15-0.01,0.31-0.03,0.45c-0.01,0.16-0.02,0.33-0.03,0.48c0,0.16-0.01,0.32-0.02,0.48s-0.02,0.32-0.03,0.48
		c0,0.16-0.01,0.31-0.02,0.47s-0.01,0.32-0.02,0.47c-0.01,0.16-0.02,0.32-0.03,0.48c0,0.16-0.01,0.32-0.02,0.47
		c-0.01,0.17-0.02,0.33-0.02,0.51c0,0.15-0.01,0.29-0.03,0.45c-0.01,0.16-0.02,0.32-0.03,0.48c0,0.16-0.01,0.31-0.02,0.47
		c0,0.16-0.01,0.32-0.02,0.48c-0.01,0.16-0.02,0.32-0.03,0.47c0,0.16-0.01,0.32-0.02,0.47c-0.01,0.16,0,0.33-0.02,0.49
		c-0.01,0.15-0.02,0.31-0.02,0.45c-0.01,0.17-0.02,0.33-0.04,0.51c0,0.16-0.01,0.31-0.02,0.45c0,0.16-0.01,0.32-0.02,0.48
		c-0.01,0.16-0.02,0.32-0.02,0.48c-0.01,0.16-0.02,0.32-0.03,0.48c0,0.15-0.01,0.31-0.02,0.45c-0.01,0.16-0.02,0.32-0.02,0.48
		c-0.01,0.16-0.02,0.32-0.03,0.48c-0.01,0.16-0.01,0.31-0.02,0.47c-0.01,0.17-0.02,0.33-0.02,0.51c-0.01,0.15-0.02,0.29-0.03,0.44
		c-0.01,0.16-0.02,0.33-0.03,0.49c0,0.13-0.01,0.27-0.02,0.39c-0.24,9.33-4.77,18.65-13.46,27.72l-20.23,21.44
		c-18.84,19.86-43.2,23.04-72.44,9.45c-32.9-14.43-65.05-22.14-95.55-22.93c-37-0.96-86.25,4.38-118.41,33.73
		c0.02,0.02,0.05,0.05,0.07,0.07c0.61,0.7,1.24,1.39,1.87,2.06c0.24,0.25,0.47,0.49,0.71,0.75c0.47,0.49,0.95,0.99,1.43,1.47
		c0.25,0.24,0.47,0.47,0.71,0.71c0.66,0.67,1.35,1.32,2.05,1.96c0.26,0.23,0.52,0.48,0.78,0.72c0.52,0.46,1.02,0.93,1.55,1.38
		c0.27,0.23,0.55,0.48,0.82,0.71c0.61,0.52,1.22,1.05,1.86,1.55c0.17,0.14,0.32,0.27,0.49,0.41c4.27,3.45,8.89,6.63,13.83,9.54
		c19.71,11.61,44.59,18.86,73.38,21.22c0.2,0.01,0.38,0.03,0.58,0.05c1.2,0.11,2.41,0.18,3.63,0.27c0.74,0.04,1.48,0.08,2.23,0.12
		c0.84,0.04,1.69,0.1,2.54,0.13c1.69,0.08,3.41,0.14,5.15,0.19c44.13,1.14,82.73-12.03,107.35-23.27
		c37.44-16.98,60.54-4.05,73.34,9.79l20.51,21.68c0.47,0.52,0.92,1.05,1.35,1.57c0.15,0.18,0.3,0.35,0.45,0.54
		c0.29,0.35,0.56,0.69,0.84,1.04c0.16,0.21,0.33,0.41,0.49,0.62c0.33,0.44,0.65,0.87,0.96,1.29c0.25,0.36,0.49,0.71,0.74,1.06
		c0.07,0.1,0.13,0.19,0.2,0.29c0.97,1.42,1.83,2.84,2.59,4.27c2.44,4.52,3.89,9.08,4.37,13.63c0.02,0.27,0.05,0.54,0.07,0.8
		c0.03,0.2,0.04,0.4,0.05,0.6c0.03,0.52,0.04,1.02,0.06,1.51c0,0.04,0,0.09,0,0.13c0.01,0.79-0.01,1.56-0.05,2.29
		c-0.01,0.16-0.02,0.32-0.03,0.49c-0.01,0.15-0.01,0.31-0.03,0.45c-0.01,0.16-0.02,0.33-0.03,0.49c-0.01,0.15-0.01,0.31-0.03,0.45
		c-0.01,0.17-0.02,0.33-0.03,0.49c0,0.16-0.01,0.32-0.02,0.48c-0.01,0.15-0.02,0.31-0.02,0.45c-0.01,0.16-0.02,0.32-0.03,0.49
		c0,0.15-0.01,0.31-0.03,0.45c-0.01,0.17-0.02,0.33-0.03,0.49c0,0.16-0.01,0.31-0.03,0.45c-0.01,0.17-0.02,0.33-0.03,0.49
		c0,0.16-0.01,0.31-0.02,0.47c-0.01,0.16-0.01,0.32-0.02,0.49c-0.01,0.15-0.03,0.3-0.03,0.45c-0.01,0.16-0.02,0.32-0.03,0.48
		c-0.01,0.16-0.02,0.32-0.03,0.48c0,0.11,0,0.21-0.01,0.32l-81.08,37.16l-160.49,15.93l-131.65-24.6l-81.07-57.69l-33.09-50.57
		l-29.95,10.22l0-0.05c0.01-0.1,0.02-0.19,0.02-0.28l0.04-0.67c0-0.09,0.02-0.19,0.02-0.29l0.02-0.19c-0.01-0.08,0-0.15,0.01-0.21
		c0-0.09,0.01-0.17,0.01-0.25c0-0.11,0.01-0.2,0.01-0.29l0-0.19c0.01-0.1,0.02-0.19,0.03-0.28l0.02-0.66
		c0.01-0.1,0.02-0.19,0.02-0.28l0.03-0.67c0-0.09,0.01-0.2,0.02-0.29l0.04-0.66c0-0.1,0.01-0.2,0.01-0.29l0-0.19
		c0.01-0.08,0.01-0.15,0.02-0.23c0.01-0.08,0.01-0.17,0.01-0.25c0-0.09,0-0.19,0.02-0.28l0-0.19c0-0.11,0.01-0.2,0.02-0.28
		l0.04-0.67c0-0.09,0.01-0.2,0.01-0.29l0.03-0.64c0.01-0.12,0.01-0.21,0.02-0.31l0.02-0.66c0.01-0.1,0.02-0.19,0.03-0.28l0-0.19
		c0.01-0.08,0.01-0.16,0.02-0.24c-0.01-0.08,0-0.16,0-0.24c0.01-0.1,0.02-0.19,0.01-0.29l0.02-0.19c0-0.09,0-0.19,0.02-0.28
		l0.03-0.64c0.01-0.12,0.01-0.21,0.02-0.31l0.02-0.66c0.01-0.1,0.02-0.19,0.02-0.28l0.04-0.67c0-0.09,0.02-0.19,0.01-0.29l0.02-0.19
		c-0.01-0.08,0-0.15,0.01-0.23s0.01-0.16,0.02-0.24c0-0.11,0.01-0.2,0.01-0.29l0-0.19c0.01-0.08,0.01-0.16,0.02-0.24
		c0.01-0.12,0.02-0.24,0.02-0.37l0.02-0.33c0-0.11,0.01-0.2,0.02-0.28l0.03-0.67c0-0.09,0.01-0.2,0.02-0.29l0.03-0.67
		c0-0.09,0-0.19,0.02-0.28l0-0.19c0.01-0.08,0.01-0.15,0.02-0.23c0-0.09,0.01-0.17,0-0.25c0.01-0.1,0.02-0.19,0.03-0.3l0.01-0.17
		c0-0.09,0.01-0.17,0.01-0.24c0-0.12,0-0.24,0.01-0.35l0.02-0.37c0-0.09,0-0.19,0.02-0.28l0.03-0.64c0.01-0.12,0.01-0.21,0.02-0.32
		l0.03-0.65c0.01-0.1,0.01-0.2,0.02-0.28l0.01-0.2c0.01-0.07,0-0.15,0.01-0.23c0.01-0.08,0.01-0.16,0.02-0.24
		c0-0.09,0.02-0.19,0.02-0.29l0.02-0.19c-0.01-0.08,0-0.16,0-0.24c0.01-0.12,0.01-0.24,0.02-0.36l0.02-0.32
		c0.01-0.12,0.01-0.21,0.01-0.32l0.04-0.66c0.01-0.11,0.01-0.2,0.01-0.29l0.04-0.66c0-0.09,0.01-0.2,0.01-0.29l0.04-0.67
		c0-0.09,0.02-0.19,0.02-0.28l0-0.19c0.01-0.08,0.01-0.15,0.02-0.23s0.01-0.17,0.01-0.25l0.02-0.47c0-0.11,0.01-0.2,0.02-0.28
		l0.03-0.68c0-0.09,0-0.19,0.02-0.28l0.03-0.67c0-0.09,0-0.19,0.02-0.28l0.02-0.66c0.01-0.1,0.02-0.19,0.01-0.29l0.02-0.19
		c0.01-0.07,0.01-0.15,0.01-0.23c0.01-0.07,0.01-0.15,0.02-0.23c0-0.11,0.01-0.21,0.01-0.31l0.02-0.19c0-0.09,0-0.19,0.02-0.28
		l0.03-0.64c0.01-0.12,0.01-0.21,0.02-0.32l0.03-0.65c0.01-0.11,0.01-0.2,0.02-0.29l0.04-0.66c0-0.09,0.01-0.2,0.01-0.29l0-0.19
		c0.01-0.07,0.01-0.15,0.02-0.23s0.01-0.16,0.01-0.25c0-0.09,0-0.19,0.02-0.28l0.01-0.17c0-0.1,0.01-0.21,0.01-0.31l0.04-0.66
		c0-0.11,0.01-0.2,0.02-0.29l0.04-0.67c0-0.08,0-0.19,0.02-0.28l0.04-0.67c0-0.09,0-0.19,0.02-0.28l0-0.19
		c0.01-0.08,0.01-0.15,0.02-0.23c0-0.09-0.01-0.17,0-0.25c0.01-0.1,0.02-0.19,0.03-0.3l0-0.19c0-0.09,0.02-0.19,0.02-0.28l0.04-0.67
		c0-0.09,0-0.19,0.02-0.28l0.02-0.66c0.01-0.1,0.01-0.2,0.03-0.3l0.03-0.65c0-0.09,0.02-0.19,0.01-0.29l0.02-0.19
		c0.01-0.08,0-0.15,0.01-0.23c0.01-0.07,0.01-0.15,0.02-0.23c0-0.11,0.01-0.21,0.01-0.31l0-0.19c0.01-0.08,0.01-0.16,0.02-0.24
		s0.01-0.16,0.02-0.24c0-0.04,0.01-0.08,0.01-0.12l0.02-0.32c0.01-0.12,0.01-0.23,0.01-0.32l0.04-0.66c0-0.11,0.01-0.2,0.01-0.29
		l0.04-0.66c0-0.09,0.01-0.2,0.01-0.29l0-0.19c0.01-0.08,0.01-0.15,0.02-0.23s0.01-0.17,0.01-0.25c0-0.09,0-0.19,0.02-0.28
		l0.01-0.17c0-0.09,0.01-0.17,0.01-0.25c0-0.13,0.01-0.25,0.02-0.37l0.02-0.33c0-0.11,0.01-0.2,0.02-0.29l0.04-0.67
		c0-0.09,0-0.19,0.02-0.28l0.02-0.66c0.01-0.1,0.02-0.19,0.02-0.28l0.01-0.17c0.01-0.1,0.02-0.18,0.02-0.24
		c0-0.09,0.01-0.17,0.01-0.25c0.01-0.1,0.02-0.19,0.01-0.29l0.02-0.19c0.01-0.08,0.01-0.16,0.02-0.24c0-0.11,0.01-0.23,0.01-0.35
		l0.02-0.36c0-0.09,0-0.19,0.02-0.28l0.02-0.66c0.01-0.11,0.01-0.2,0.03-0.3l0.03-0.65c0-0.09,0.02-0.19,0.01-0.29l0.03-0.64
		c0.01-0.11,0.02-0.22,0.02-0.31l0-0.19c0.01-0.08,0.01-0.16,0.02-0.24c0.01-0.12,0.02-0.24,0.02-0.37l0.02-0.32
		c0-0.11,0.01-0.21,0.01-0.31l0.04-0.66c0-0.1,0.01-0.2,0.01-0.29l0.04-0.67c0-0.09,0-0.19,0.02-0.28l0.04-0.67
		c0-0.09,0-0.19,0.02-0.28l0-0.17c0.01-0.1,0.02-0.18,0.03-0.24c-0.01-0.09,0-0.17,0-0.25c0.01-0.1,0.02-0.19,0.03-0.3l0-0.19
		c0-0.09,0.02-0.19,0.02-0.28l0.03-0.67c0-0.09,0-0.19,0.02-0.28l0.02-0.66c0.01-0.1,0.02-0.19,0.02-0.28l0.04-0.67
		c0-0.09,0.02-0.19,0.01-0.29l0.02-0.19c-0.01-0.08,0-0.15,0.01-0.23c0.01-0.07,0.01-0.15,0.01-0.23c0.01-0.11,0.02-0.22,0.02-0.31
		l0-0.19c0.01-0.1,0.02-0.19,0.03-0.3l0.03-0.65c0.01-0.11,0.01-0.2,0.02-0.29l0.04-0.66c0-0.09,0.01-0.2,0.02-0.29l0.03-0.64
		c0.01-0.12,0.02-0.22,0.02-0.31l0-0.19c0-0.08,0.01-0.15,0.02-0.23c0.01-0.08,0.01-0.17,0.01-0.25c0-0.09,0-0.19,0.02-0.28l0-0.19
		c0-0.11,0.01-0.2,0.01-0.29l0.04-0.67c0-0.09,0.02-0.19,0.02-0.28l0.04-0.67c0-0.09,0-0.19,0.02-0.28l0.02-0.66
		c0.01-0.1,0.02-0.19,0.02-0.28l0.01-0.17c0-0.09,0.02-0.18,0.01-0.25c0-0.08,0.01-0.16,0.01-0.24c0-0.09,0.02-0.19,0.02-0.29
		l0.02-0.19c0.01-0.08,0.01-0.16,0.02-0.24c0-0.12,0-0.24,0.01-0.36l0.01-0.35c0.01-0.1,0.02-0.19,0.03-0.3l0.03-0.65
		c0.01-0.1,0.02-0.19,0.02-0.28l0.04-0.67c0-0.09,0.01-0.2,0.01-0.29l0-0.19c0.01-0.08,0.01-0.15,0.02-0.23
		c0.01-0.07,0-0.15,0.01-0.23c0.01-0.11,0.02-0.22,0.02-0.31l0-0.19c0.01-0.08,0.01-0.16,0.02-0.24c0.01-0.12,0.01-0.25,0.02-0.37
		l0.02-0.33c0-0.11,0.01-0.2,0.02-0.29l0.04-0.66c0-0.09,0.01-0.2,0.01-0.29l0.03-0.64c0.01-0.12,0.01-0.21,0.02-0.31l0-0.19
		c0-0.08,0.01-0.15,0.02-0.23c0-0.06,0-0.13,0-0.19c0.01-0.03,0-0.05,0.01-0.07c0.1-2.02,0.24-4.03,0.43-6.03
		c4.15-47.17,27.83-90.2,67.8-123.97c7.72-6.51,16.04-12.7,24.95-18.48c5.58-3.63,11.35-7.09,17.3-10.35
		c23.71-13.07,50.33-23.36,79.38-30.66c37.4-9.41,77.88-13.63,120.32-12.52c84.93,2.2,144.09,24.29,178.77,42.44l0.15,0.08
		c0.77,0.43,1.52,0.85,2.24,1.27c0.22,0.14,0.44,0.27,0.66,0.39c0.52,0.31,1.01,0.62,1.5,0.94c0.24,0.15,0.47,0.3,0.71,0.45
		c0.6,0.39,1.2,0.79,1.76,1.2c0.31,0.22,0.62,0.44,0.91,0.67c0.28,0.2,0.55,0.41,0.82,0.61c0.36,0.26,0.71,0.54,1.06,0.82
		c0.12,0.09,0.22,0.19,0.34,0.28c0.79,0.64,1.52,1.27,2.23,1.93c0.02,0.02,0.05,0.04,0.07,0.06c4,3.68,6.95,7.69,8.85,12.04
		c0.11,0.22,0.2,0.45,0.3,0.67c0.16,0.39,0.31,0.79,0.46,1.18c0.14,0.37,0.26,0.75,0.38,1.11C658.1,194.56,658.17,194.77,658.23,195
		z"/>
	<polygon class="st3" points="314.13,394.12 298.23,358.79 309.56,276.75 360.13,243.67 409.41,230.68 516.08,235.52 581.26,257.87 
		648.69,213.75 640.94,334.37 593.62,379.78 565.73,373.95 477.2,337.98 370.86,359.41 321.91,398.66 	"/>
	<path class="st0" d="M658.03,194.34c-0.12-0.36-0.25-0.74-0.38-1.11c-0.14-0.4-0.3-0.79-0.46-1.18c-0.1-0.22-0.18-0.45-0.3-0.67
		c-1.9-4.35-4.85-8.37-8.85-12.04c-0.02-0.02-0.05-0.04-0.07-0.06c-0.71-0.66-1.45-1.29-2.23-1.93c-0.12-0.09-0.22-0.19-0.34-0.28
		c-0.35-0.28-0.7-0.55-1.06-0.82c-0.27-0.21-0.54-0.41-0.82-0.61c-0.3-0.22-0.61-0.45-0.91-0.67c-0.57-0.4-1.16-0.8-1.76-1.2
		c-0.24-0.15-0.47-0.3-0.71-0.45c-0.49-0.32-0.98-0.62-1.5-0.94c-0.22-0.13-0.44-0.25-0.66-0.39c-0.73-0.41-1.47-0.84-2.24-1.27
		l-0.15-0.08c-34.68-18.15-93.84-40.24-178.77-42.44c-42.44-1.11-82.92,3.11-120.32,12.52c-29.05,7.3-55.67,17.59-79.38,30.66
		c-5.95,3.27-11.72,6.72-17.3,10.35c-8.91,5.79-17.23,11.97-24.95,18.48c-39.97,33.77-63.65,76.81-67.8,123.97
		c-0.18,2-0.33,4.01-0.43,6.03c-0.01,0.02,0,0.04-0.01,0.07c0,0.05-0.01,0.12,0,0.19c-0.01,0.08-0.01,0.15-0.02,0.23l0,0.19
		c-0.01,0.1-0.02,0.19-0.02,0.31l-0.03,0.64c0,0.09-0.01,0.2-0.01,0.29l-0.04,0.66c0,0.09-0.02,0.19-0.02,0.29l-0.02,0.33
		c-0.01,0.12-0.01,0.25-0.02,0.37c-0.01,0.08-0.01,0.16-0.02,0.24l0,0.19c0,0.09-0.01,0.2-0.02,0.31c-0.01,0.08,0,0.16-0.01,0.23
		c-0.01,0.08-0.01,0.15-0.02,0.23l0,0.19c0,0.09-0.01,0.2-0.01,0.29l-0.04,0.67c0,0.09,0,0.19-0.02,0.28l-0.03,0.65
		c-0.01,0.11-0.01,0.2-0.03,0.3l-0.01,0.35c-0.01,0.12-0.02,0.24-0.01,0.36c-0.01,0.08-0.01,0.16-0.02,0.24l-0.02,0.19
		c0,0.11-0.01,0.2-0.02,0.29c-0.01,0.08-0.01,0.16-0.01,0.24c0.01,0.08-0.01,0.16-0.01,0.25l-0.01,0.17c0,0.09,0,0.19-0.02,0.28
		l-0.02,0.66c-0.01,0.1-0.02,0.19-0.02,0.28l-0.04,0.67c0,0.09-0.02,0.19-0.02,0.28l-0.04,0.67c0,0.09-0.02,0.19-0.01,0.29l0,0.19
		c-0.01,0.1-0.02,0.19-0.02,0.28c-0.01,0.08-0.01,0.17-0.01,0.25c0,0.08-0.01,0.15-0.02,0.23l0,0.19c0,0.09-0.02,0.19-0.02,0.31
		l-0.03,0.64c0,0.09-0.01,0.2-0.02,0.29l-0.04,0.66c0,0.09,0,0.19-0.02,0.29l-0.03,0.65c-0.01,0.11-0.01,0.2-0.03,0.3l0,0.19
		c0,0.09-0.01,0.2-0.02,0.31c0.01,0.08,0,0.16-0.01,0.23c-0.01,0.08-0.01,0.15-0.01,0.23l-0.02,0.19c0,0.11-0.01,0.2-0.01,0.29
		l-0.04,0.67c0,0.09,0,0.19-0.02,0.28l-0.02,0.66c-0.01,0.1-0.02,0.19-0.02,0.28l-0.03,0.67c0,0.09-0.02,0.19-0.02,0.28l0,0.19
		c-0.01,0.11-0.01,0.2-0.03,0.3c0,0.08-0.01,0.16,0,0.25c-0.01,0.07-0.01,0.15-0.03,0.24l0,0.17c-0.01,0.1-0.02,0.19-0.02,0.28
		l-0.04,0.67c-0.01,0.1-0.02,0.19-0.02,0.28l-0.04,0.67c0,0.09-0.02,0.19-0.01,0.29l-0.04,0.66c0,0.09-0.01,0.2-0.01,0.31
		l-0.02,0.32c0,0.13-0.01,0.25-0.02,0.37c-0.01,0.08-0.01,0.16-0.02,0.24l0,0.19c0,0.09-0.01,0.2-0.02,0.31l-0.03,0.64
		c0,0.11-0.01,0.2-0.01,0.29l-0.03,0.65c-0.01,0.1-0.02,0.19-0.03,0.3l-0.02,0.66c-0.01,0.1-0.02,0.19-0.02,0.28l-0.02,0.36
		c-0.01,0.12-0.02,0.24-0.01,0.35c-0.01,0.08-0.01,0.16-0.02,0.24l-0.02,0.19c0,0.1,0,0.2-0.01,0.29c-0.01,0.08-0.01,0.16-0.01,0.25
		c0,0.06,0,0.15-0.02,0.24l-0.01,0.17c0,0.09,0,0.19-0.02,0.28l-0.02,0.66c-0.01,0.1-0.02,0.19-0.02,0.28l-0.04,0.67
		c0,0.09-0.02,0.19-0.02,0.29l-0.02,0.33c-0.01,0.12-0.01,0.24-0.02,0.37c-0.01,0.08-0.01,0.16-0.01,0.25l-0.01,0.17
		c-0.01,0.1-0.02,0.19-0.02,0.28c-0.01,0.08-0.01,0.17-0.01,0.25s-0.01,0.15-0.02,0.23l0,0.19c0,0.09-0.01,0.2-0.01,0.29l-0.04,0.66
		c0,0.09-0.02,0.19-0.01,0.29l-0.04,0.66c0,0.09,0,0.2-0.01,0.32l-0.02,0.32c0,0.04-0.01,0.08-0.01,0.12
		c-0.01,0.08-0.01,0.16-0.02,0.24s-0.01,0.16-0.02,0.24l0,0.19c0,0.09-0.01,0.2-0.01,0.31c-0.01,0.08-0.01,0.16-0.02,0.23
		c-0.01,0.08,0,0.15-0.01,0.23l-0.02,0.19c0,0.11-0.01,0.2-0.01,0.29l-0.03,0.65c-0.01,0.1-0.01,0.2-0.03,0.3l-0.02,0.66
		c-0.01,0.1-0.02,0.19-0.02,0.28l-0.04,0.67c0,0.09-0.02,0.19-0.02,0.28l0,0.19c-0.01,0.11-0.01,0.2-0.03,0.3
		c-0.01,0.08,0,0.16,0,0.25c-0.01,0.08-0.01,0.15-0.02,0.23l0,0.19c-0.01,0.1-0.02,0.19-0.02,0.28l-0.04,0.67
		c-0.01,0.1-0.01,0.2-0.02,0.28l-0.04,0.67c0,0.09-0.02,0.19-0.02,0.29l-0.04,0.66c0,0.09-0.01,0.2-0.01,0.31l-0.01,0.17
		c-0.01,0.1-0.02,0.19-0.02,0.28c0,0.09-0.01,0.17-0.01,0.25s-0.01,0.16-0.02,0.23l0,0.19c0,0.09-0.01,0.2-0.01,0.29l-0.04,0.66
		c0,0.09,0,0.19-0.02,0.29l-0.03,0.65c-0.01,0.11-0.01,0.2-0.02,0.32l-0.03,0.64c-0.01,0.1-0.02,0.19-0.02,0.28l-0.02,0.19
		c0,0.09-0.01,0.2-0.01,0.31c-0.01,0.08-0.01,0.16-0.02,0.23c0.01,0.08,0,0.16-0.01,0.23l-0.02,0.19c0,0.11,0,0.2-0.01,0.29
		l-0.02,0.66c-0.01,0.1-0.02,0.19-0.02,0.28l-0.03,0.67c-0.01,0.1-0.02,0.19-0.02,0.28l-0.03,0.68c0,0.08-0.02,0.18-0.02,0.28
		l-0.02,0.47c-0.01,0.08-0.01,0.17-0.01,0.25s-0.01,0.15-0.02,0.23l0,0.19c0,0.09-0.02,0.19-0.02,0.28l-0.04,0.67
		c0,0.09-0.01,0.2-0.01,0.29l-0.04,0.66c0,0.09,0,0.19-0.01,0.29l-0.04,0.66c0,0.11,0,0.2-0.01,0.32l-0.02,0.32
		c-0.01,0.12-0.02,0.24-0.02,0.36c-0.01,0.08-0.01,0.16,0,0.24l-0.02,0.19c0,0.11-0.01,0.2-0.02,0.29
		c-0.01,0.08-0.01,0.16-0.02,0.24c0,0.08,0,0.16-0.01,0.23l-0.01,0.2c-0.01,0.08,0,0.19-0.02,0.28l-0.03,0.65
		c-0.01,0.11-0.01,0.2-0.02,0.32l-0.03,0.64c-0.01,0.1-0.02,0.19-0.02,0.28l-0.02,0.37c-0.01,0.11-0.02,0.23-0.01,0.35
		c-0.01,0.07-0.01,0.15-0.01,0.24l-0.01,0.17c-0.01,0.11-0.01,0.2-0.03,0.3c0.01,0.08,0,0.16,0,0.25c-0.01,0.08-0.01,0.15-0.02,0.23
		l0,0.19c-0.01,0.1-0.02,0.19-0.02,0.28l-0.03,0.67c0,0.09-0.01,0.2-0.02,0.29l-0.03,0.67c-0.01,0.08-0.02,0.18-0.02,0.28
		l-0.02,0.33c0,0.13-0.01,0.25-0.02,0.37c-0.01,0.08-0.01,0.16-0.02,0.24l0,0.19c0,0.09-0.02,0.19-0.01,0.29
		c-0.01,0.08-0.01,0.16-0.02,0.24s-0.01,0.15-0.01,0.23l-0.02,0.19c0,0.11-0.01,0.2-0.01,0.29l-0.04,0.67c0,0.09,0,0.19-0.02,0.28
		l-0.02,0.66c-0.01,0.1-0.02,0.19-0.02,0.31l-0.03,0.64c-0.01,0.1-0.02,0.19-0.02,0.28l-0.02,0.19c0,0.11,0,0.2-0.01,0.29
		c-0.01,0.08-0.01,0.16,0,0.24c-0.01,0.08-0.01,0.16-0.02,0.24l0,0.19c-0.01,0.1-0.02,0.19-0.03,0.28l-0.02,0.66
		c-0.01,0.1-0.02,0.19-0.02,0.31l-0.03,0.64c0,0.09-0.01,0.2-0.01,0.29l-0.04,0.67c-0.01,0.08-0.02,0.18-0.02,0.28l0,0.19
		c-0.01,0.1-0.02,0.19-0.02,0.28c0,0.08-0.01,0.17-0.01,0.25c-0.01,0.08-0.01,0.15-0.02,0.23l0,0.19c0,0.09-0.02,0.19-0.01,0.29
		l-0.04,0.66c0,0.09-0.01,0.2-0.02,0.29l-0.03,0.67c0,0.09,0,0.19-0.02,0.28l-0.02,0.66c-0.01,0.1-0.02,0.19-0.03,0.28l0,0.19
		c0,0.09-0.02,0.19-0.01,0.29c-0.01,0.08-0.01,0.16-0.01,0.25c-0.01,0.07-0.02,0.14-0.01,0.21l-0.02,0.19c0,0.11-0.01,0.2-0.02,0.29
		l-0.04,0.67c0,0.09,0,0.19-0.02,0.28l0,0.05l-0.02,0.61c-0.01,0.1-0.02,0.19-0.02,0.31l-0.03,0.64c-0.01,0.1-0.02,0.19-0.02,0.28
		l-0.03,0.48c-0.01,0.08-0.01,0.16,0,0.25c-0.01,0.07-0.01,0.15-0.02,0.23l0,0.19c-0.01,0.1-0.02,0.19-0.02,0.28l-0.03,0.67
		c0,0.09-0.02,0.19-0.02,0.31l-0.03,0.64c0,0.09-0.01,0.2-0.01,0.29l-0.04,0.67c0,0.09,0,0.19-0.02,0.28l-0.01,0.35
		c-0.01,0.12-0.02,0.24-0.02,0.36c-0.01,0.08-0.01,0.16-0.02,0.24l0,0.19c0,0.09-0.02,0.19-0.01,0.29
		c-0.01,0.08-0.01,0.17-0.01,0.25c-0.01,0.07-0.02,0.14-0.01,0.21l-0.02,0.19c0,0.11-0.01,0.2-0.01,0.29l-0.04,0.67
		c0,0.09,0,0.19-0.02,0.28l-0.02,0.66c-0.01,0.1-0.02,0.19-0.02,0.28l-0.01,0.35l-0.01,0c-0.01,0.12,0,0.24-0.01,0.37
		c-0.01,0.07-0.01,0.15-0.02,0.23l-0.02,0.19c0,0.11,0,0.2-0.02,0.29c-0.01,0.08-0.01,0.16-0.01,0.25c0.01,0.08,0,0.16-0.02,0.24
		l0.01,0.17c-0.01,0.1-0.02,0.19-0.02,0.28l-0.04,0.67c-0.01,0.1-0.02,0.19-0.02,0.31l-0.03,0.64c0,0.09-0.01,0.2-0.01,0.29
		l-0.02,0.33c-0.01,0.12-0.02,0.24-0.02,0.36c-0.01,0.08-0.01,0.16-0.01,0.25l0,0.19c-0.01,0.1-0.02,0.19-0.02,0.28
		c0,0.09-0.01,0.17-0.01,0.25c0,0.08-0.01,0.15-0.02,0.23l0,0.19c0,0.09-0.01,0.2-0.02,0.31l-0.03,0.64c0,0.09-0.01,0.2-0.01,0.29
		l-0.04,0.66c0,0.09,0,0.19-0.02,0.29l-0.01,0.35c-0.01,0.12-0.01,0.24-0.01,0.36c-0.02,0.08-0.02,0.16-0.01,0.24l-0.02,0.19
		c0,0.09-0.02,0.19-0.01,0.29c-0.01,0.08-0.01,0.17-0.01,0.25c-0.01,0.07,0,0.15-0.01,0.21l-0.02,0.19c0,0.1,0,0.2-0.01,0.29
		l-0.02,0.66c-0.01,0.1-0.02,0.19-0.03,0.28l-0.02,0.66c-0.01,0.1-0.02,0.19-0.02,0.28l-0.03,0.67c0,0.09-0.02,0.19-0.02,0.29
		l0,0.19c-0.01,0.1-0.02,0.19-0.03,0.28c0,0.08,0,0.16,0,0.25c-0.01,0.08-0.01,0.16-0.02,0.24l-0.01,0.17
		c-0.01,0.1-0.02,0.19-0.02,0.28l-0.04,0.67c0,0.09-0.01,0.2-0.02,0.31l-0.03,0.64c0,0.11-0.01,0.2-0.01,0.29l-0.04,0.66
		c0,0.09,0,0.19-0.01,0.29l0,0.19c0,0.09-0.02,0.19-0.01,0.29l-0.02,0.24c0,0.08-0.01,0.16-0.02,0.23l0,0.19
		c0,0.09-0.01,0.2-0.01,0.31l-0.01,0.2c0,0.09-0.01,0.17-0.02,0.24c-0.01,0.08-0.01,0.16-0.02,0.24s0,0.16-0.01,0.23
		c-0.01,0.11-0.01,0.2-0.01,0.32l-0.03,0.38c0,0.09,0,0.19-0.01,0.27c-0.01,0.1-0.01,0.2-0.01,0.31l-0.02,0.37
		c-0.01,0.1-0.02,0.19-0.02,0.31l-0.01,0.16c0,0.11-0.01,0.2-0.01,0.27c-0.01,0.1-0.01,0.2-0.02,0.28
		c-0.01,0.07-0.01,0.15-0.02,0.24l0.01,0.17c-0.01,0.1-0.02,0.19-0.02,0.31l-0.02,0.43c-0.01,0.08-0.01,0.16-0.01,0.25
		c-0.01,0.08-0.02,0.18-0.02,0.27l-0.03,0.64c0,0.09-0.02,0.19-0.02,0.27c0,0.09,0,0.2-0.01,0.31l0,0.19
		c-2.56,48.6,14,93.66,47.88,130.31c50.88,55.01,136.41,86.81,240.86,89.52c48.7,1.25,90.6-4.91,125.25-14.04
		c30.52-8.04,55.41-18.38,74.38-27.95c20.04-10.13,24.67-23.22,24.99-32.51c0.01-0.15,0.01-0.29,0.03-0.43
		c0-0.16,0.01-0.31,0.02-0.47s0.02-0.33,0.03-0.49c0-0.15,0.01-0.31,0.01-0.45c0.01-0.16,0.02-0.33,0.03-0.49
		c0.01-0.16,0.02-0.31,0.02-0.47c0.01-0.16,0.02-0.31,0.03-0.47c0.01-0.16,0.02-0.33,0.02-0.49c0.01-0.15,0.02-0.31,0.03-0.47
		c0.01-0.16,0.02-0.32,0.02-0.48c0.01-0.16,0.02-0.31,0.02-0.45c0.01-0.17,0.02-0.33,0.03-0.49s0.02-0.32,0.02-0.47
		c0.01-0.16,0.02-0.32,0.03-0.48s0.01-0.32,0.02-0.47c0.01-0.16,0.02-0.32,0.02-0.48c0.01-0.16,0.02-0.32,0.03-0.48
		s0.02-0.31,0.02-0.47c0.01-0.16,0.02-0.32,0.03-0.49c0.01-0.15,0.01-0.31,0.03-0.45c0.01-0.16,0.02-0.32,0.03-0.49
		c0-0.15,0.01-0.31,0.03-0.45c0.01-0.16,0.02-0.32,0.03-0.49c0-0.15,0.01-0.31,0.02-0.45c0-0.16,0.01-0.32,0.02-0.48
		s0.02-0.32,0.03-0.49c0.01-0.15,0.01-0.31,0.02-0.47s0.02-0.32,0.03-0.48c0-0.15,0.01-0.31,0.03-0.45c0.01-0.17,0.02-0.33,0.01-0.5
		c0.01-0.15,0.03-0.3,0.03-0.44c0.01-0.16,0.02-0.32,0.03-0.48s0.02-0.32,0.02-0.48c0.01-0.16,0.02-0.32,0.03-0.48
		c0.01-0.16,0.02-0.32,0.02-0.48c0.01-0.16,0.02-0.31,0.02-0.47c0.01-0.16,0.02-0.32,0.03-0.48s0.02-0.31,0.02-0.47
		c0.01-0.16,0.02-0.32,0.03-0.48c0.01-0.16,0.01-0.31,0.02-0.47s0.02-0.32,0.03-0.49c0.01-0.15,0.01-0.31,0.02-0.45
		c0.01-0.16,0.02-0.33,0.03-0.49c0-0.15,0.01-0.31,0.02-0.47c0.01-0.15,0.01-0.31,0.02-0.47c0.01-0.17,0.02-0.33,0.03-0.49
		s0.01-0.31,0.02-0.47s0.02-0.32,0.03-0.48c0-0.15,0.01-0.31,0.03-0.45c0.01-0.17,0.02-0.33,0.03-0.49c0-0.16,0.01-0.31,0.01-0.46
		c0.01-0.16,0.02-0.32,0.03-0.48s0.02-0.31,0.02-0.47c0.01-0.16,0.02-0.32,0.03-0.47c0.01-0.17,0.02-0.33,0.02-0.49
		c0.01-0.15,0.02-0.31,0.03-0.45c0.01-0.17,0.02-0.33,0.03-0.49c0.01-0.16,0.02-0.31,0.02-0.45c0.01-0.17,0.02-0.33,0.02-0.51
		c0.01-0.15,0.03-0.3,0.03-0.45c0.01-0.16,0.02-0.32,0.03-0.48c0.01-0.16,0.01-0.31,0.02-0.47s0.02-0.32,0.02-0.48
		c0.01-0.16,0.02-0.32,0.03-0.49c0.01-0.15,0.03-0.3,0.03-0.45c0.01-0.16,0.02-0.32,0.03-0.49c0.01-0.15,0.01-0.31,0.03-0.45
		c0.01-0.17,0.02-0.33,0.03-0.49c0-0.15,0.01-0.31,0.03-0.45c0.01-0.17,0.02-0.33,0.02-0.51c0-0.15,0.02-0.29,0.03-0.45
		c0-0.15,0.01-0.31,0.02-0.47s0.02-0.32,0.03-0.49c0-0.15,0.01-0.31,0.02-0.45c0.01-0.17,0.02-0.33,0.02-0.49
		c0.01-0.15,0.02-0.31,0.03-0.47s0.02-0.32,0.02-0.48c0.01-0.16,0.02-0.31,0.02-0.47c0.01-0.16,0.02-0.32,0.03-0.48
		c0.01-0.16,0.02-0.31,0.02-0.47c0.01-0.16,0.02-0.32,0.03-0.48s0.02-0.32,0.02-0.48c0.01-0.16,0.02-0.31,0.02-0.47
		c0.01-0.16,0.02-0.32,0.03-0.49c0.01-0.15,0.03-0.3,0.03-0.45c0.01-0.16,0.02-0.33,0.03-0.49c0.01-0.15,0.02-0.31,0.02-0.45
		c0.01-0.16,0.02-0.32,0.03-0.49c0-0.15,0.01-0.29,0.03-0.45s0.01-0.32,0.02-0.48c0.01-0.16,0.02-0.32,0.03-0.49
		c0.01-0.15,0.01-0.29,0.02-0.45s0.02-0.32,0.03-0.49c0.01-0.15,0.01-0.31,0.03-0.45c0.01-0.16,0.02-0.33,0.03-0.49
		c0-0.15,0.01-0.31,0.02-0.47c0.01-0.15,0.01-0.31,0.02-0.47s0.02-0.32,0.02-0.47c0.01-0.16,0.02-0.32,0.03-0.48
		c0.01-0.17,0.02-0.33,0.03-0.49c0-0.16,0.01-0.31,0.02-0.47c0.01-0.16,0.02-0.32,0.02-0.48c0.01-0.16,0.02-0.31,0.02-0.47
		c0.02-0.16,0.02-0.32,0.03-0.49c0.01-0.15,0.03-0.3,0.03-0.45c0.01-0.16,0.02-0.32,0.03-0.49c0.01-0.15,0.02-0.29,0.03-0.45
		c0.01-0.16,0.02-0.32,0.03-0.48s0.01-0.32,0.02-0.48s0.02-0.31,0.02-0.47c0.01-0.16,0.02-0.33,0.03-0.49
		c0.01-0.15,0.02-0.31,0.03-0.45c0.01-0.16,0.02-0.32,0.03-0.49c0.01-0.15,0.01-0.31,0.02-0.45c0.01-0.16,0.02-0.33,0.03-0.49
		c0-0.15,0.01-0.31,0.02-0.45c0.01-0.16,0.02-0.33,0.02-0.49c0.01-0.16,0.02-0.31,0.03-0.47c0-0.16,0.01-0.31,0.02-0.47
		c0.01-0.16,0.02-0.33,0.03-0.49c0-0.15,0.01-0.31,0.02-0.47c0.01-0.16,0.02-0.32,0.02-0.48c0.01-0.16,0.02-0.31,0.02-0.47
		c0.01-0.16,0.02-0.32,0.03-0.48s0.02-0.31,0.02-0.47c0.01-0.16,0.02-0.32,0.03-0.48c0.01-0.16,0.01-0.31,0.02-0.47
		s0.02-0.32,0.02-0.48c0.02-0.16,0.02-0.32,0.03-0.48c0.01-0.15,0.02-0.31,0.02-0.47c0.01-0.16,0.02-0.32,0.03-0.49
		c0.01-0.15,0.02-0.29,0.02-0.45c0.01-0.16,0.02-0.32,0.03-0.49c0.01-0.15,0.01-0.31,0.02-0.45c0.01-0.17,0.02-0.33,0.02-0.51
		c0.01-0.15,0.02-0.29,0.03-0.44c0.01-0.16,0.01-0.32,0.02-0.48s0.02-0.33,0.03-0.49c0.01-0.15,0.01-0.31,0.03-0.45
		c0.01-0.16,0.02-0.33,0.03-0.49c0.01-0.15,0.01-0.31,0.02-0.47c0.01-0.16,0.02-0.32,0.02-0.48c0.01-0.16,0.02-0.31,0.04-0.46
		c0.01-0.17,0-0.33,0.02-0.49s0.02-0.31,0.02-0.47c0.01-0.16,0.02-0.31,0.03-0.47c0.01-0.16,0.02-0.33,0.03-0.49
		c0-0.16,0.01-0.31,0.02-0.47s0.02-0.32,0.02-0.48c0.01-0.16,0.02-0.31,0.02-0.47c0.01-0.16,0.02-0.32,0.03-0.49
		c0.01-0.15,0.02-0.31,0.03-0.45c0.01-0.16,0.02-0.32,0.03-0.48c0.01-0.16,0.01-0.32,0.02-0.47c0.01-0.16,0.02-0.32,0.03-0.48
		c0-0.16,0.01-0.32,0.02-0.48s0.02-0.31,0.02-0.47c0.01-0.16,0.02-0.33,0.03-0.49s0.01-0.31,0.02-0.47
		c0.01-0.16,0.02-0.32,0.03-0.48c0-0.15,0.01-0.31,0.02-0.47c0.01-0.15,0.02-0.31,0.02-0.47c0.01-0.16,0.02-0.31,0.02-0.47
		c0.01-0.16,0.02-0.32,0.03-0.48c0.01-0.16,0.02-0.33,0.03-0.49c0.01-0.15,0.01-0.31,0.03-0.45c0.01-0.16,0.02-0.33,0.02-0.49
		c0.01-0.15,0.02-0.31,0.03-0.47c0.01-0.16,0.02-0.32,0.02-0.48c0.01-0.16,0.02-0.31,0.03-0.45c0.01-0.17,0.02-0.33,0.03-0.49
		s0.02-0.32,0.02-0.47c0.01-0.16,0.02-0.32,0.03-0.48s0.02-0.32,0.02-0.48c0.01-0.16,0.02-0.32,0.03-0.47
		c0.01-0.16,0.02-0.32,0.02-0.49c0.01-0.15,0.03-0.3,0.03-0.45c0.01-0.16,0.02-0.32,0.03-0.48c0.01-0.16,0.01-0.32,0.02-0.47
		c0.01-0.16,0.02-0.32,0.03-0.49c0-0.15,0.02-0.29,0.03-0.45s0.02-0.32,0.03-0.49c0-0.15,0.01-0.31,0.02-0.47
		c0.01-0.15,0.01-0.31,0.02-0.47s0.02-0.32,0.03-0.49c0.01-0.15,0.01-0.31,0.02-0.45c0.01-0.16,0.02-0.33,0.03-0.49
		c0-0.16,0.01-0.31,0.02-0.47s0.02-0.32,0.02-0.48c0.01-0.16,0.02-0.31,0.03-0.45c0.01-0.16,0.02-0.33,0.03-0.49
		s0.02-0.31,0.02-0.47c0.01-0.16,0.02-0.32,0.03-0.47c0.01-0.17,0.02-0.33,0.02-0.49c0.01-0.16,0.02-0.31,0.03-0.47
		c0.01-0.16,0.01-0.32,0.02-0.48s0.02-0.31,0.03-0.45c0.01-0.17,0.02-0.33,0.02-0.51c0.01-0.15,0.01-0.29,0.03-0.45
		c0.01-0.16,0.02-0.32,0.03-0.48s0.01-0.32,0.02-0.47c0.01-0.16,0.02-0.32,0.02-0.48c0.01-0.16,0.02-0.32,0.03-0.48
		s0.01-0.31,0.02-0.47c0.01-0.16,0.02-0.32,0.03-0.49c0.01-0.15,0.01-0.31,0.02-0.47s0.02-0.32,0.03-0.48
		c0-0.15,0.01-0.31,0.03-0.45c0.01-0.17,0.02-0.33,0.02-0.51c0-0.15,0.02-0.29,0.03-0.45c0-0.16,0.01-0.32,0.02-0.48
		s0.02-0.32,0.03-0.48c0.01-0.16,0.01-0.31,0.02-0.47s0.02-0.32,0.02-0.48c0.01-0.15,0.02-0.31,0.03-0.47s0.01-0.32,0.02-0.48
		c0.01-0.16,0.02-0.31,0.02-0.45c0.01-0.17,0.02-0.33,0.03-0.49c0.01-0.16,0.02-0.31,0.02-0.47c0.01-0.16,0.02-0.32,0.03-0.47
		c0.01-0.17,0.02-0.33,0.02-0.49c0.01-0.16,0.02-0.31,0.02-0.47c0.01-0.16,0.02-0.32,0.03-0.48s0.02-0.31,0.02-0.47
		c0.01-0.16,0.02-0.32,0.03-0.49c0.01-0.15,0.01-0.31,0.02-0.47c0.01-0.15,0.02-0.31,0.02-0.47c0.01-0.16,0.02-0.32,0.03-0.48
		c0.01-0.15,0.02-0.31,0.02-0.47c0.01-0.16,0.02-0.33,0.03-0.49c0.01-0.15,0.01-0.31,0.02-0.45c0.01-0.16,0.02-0.32,0.03-0.49
		c0-0.15,0.01-0.31,0.03-0.45c0.01-0.17,0.02-0.33,0.03-0.49c0-0.15,0.01-0.31,0.02-0.45c0-0.16,0.01-0.32,0.02-0.48
		c0-0.05,0.01-0.11,0.01-0.16c0.01-0.11,0.01-0.21,0.01-0.32c0.01-0.16,0.02-0.32,0.03-0.48c0.01-0.16,0.02-0.32,0.03-0.48
		c0-0.16,0.01-0.31,0.03-0.45c0.01-0.17,0-0.33,0.02-0.49c0.01-0.16,0.02-0.31,0.02-0.47c0.01-0.16,0.02-0.32,0.03-0.49
		c0.01-0.15,0.03-0.3,0.03-0.45c0.01-0.16,0.02-0.32,0.03-0.49c0.01-0.15,0.02-0.31,0.03-0.45c0.01-0.17,0.02-0.33,0.03-0.49
		c0-0.15,0.01-0.31,0.02-0.45c0.01-0.16,0.02-0.32,0.02-0.48c0.01-0.16,0.02-0.32,0.03-0.49c0.01-0.15,0.01-0.31,0.03-0.45
		c0.01-0.16,0.02-0.33,0.03-0.49c0.01-0.15,0.01-0.31,0.03-0.45c0.01-0.17,0.02-0.33,0.03-0.49c0.04-0.74,0.06-1.51,0.05-2.29
		c0-0.04,0-0.09,0-0.13c-0.01-0.5-0.02-0.99-0.06-1.51c-0.02-0.21-0.03-0.4-0.05-0.6c-0.02-0.26-0.05-0.53-0.07-0.8
		c-0.47-4.55-1.93-9.11-4.37-13.63c-0.76-1.43-1.62-2.85-2.59-4.27c-0.07-0.1-0.13-0.19-0.2-0.29c-0.25-0.34-0.49-0.7-0.74-1.06
		c-0.31-0.42-0.63-0.85-0.96-1.29c-0.16-0.21-0.33-0.41-0.49-0.62c-0.28-0.35-0.55-0.7-0.84-1.04c-0.14-0.19-0.29-0.36-0.45-0.54
		c-0.43-0.52-0.88-1.05-1.35-1.57l-20.51-21.68c-12.8-13.85-35.91-26.77-73.34-9.79c-24.61,11.24-63.21,24.41-107.35,23.27
		c-1.74-0.04-3.45-0.1-5.15-0.19c-0.85-0.04-1.7-0.09-2.54-0.13c-0.75-0.04-1.5-0.08-2.23-0.12c-1.22-0.09-2.43-0.16-3.63-0.27
		c-0.2-0.01-0.38-0.03-0.58-0.05c-28.79-2.36-53.67-9.62-73.38-21.22c-2.79-1.65-5.48-3.38-8.05-5.19c-2-1.4-3.93-2.85-5.78-4.35
		c-0.17-0.14-0.32-0.27-0.49-0.41c-0.63-0.5-1.25-1.03-1.86-1.55c-0.27-0.23-0.55-0.48-0.82-0.71c-0.53-0.45-1.03-0.93-1.55-1.38
		c-0.26-0.23-0.52-0.48-0.78-0.72c-0.7-0.65-1.38-1.3-2.05-1.96c-0.25-0.24-0.47-0.47-0.71-0.71c-0.48-0.48-0.96-0.97-1.43-1.47
		c-0.24-0.25-0.47-0.49-0.71-0.75c-0.64-0.67-1.27-1.37-1.87-2.06c-0.02-0.02-0.05-0.05-0.07-0.07
		c13.56-12.36,30.13-20.47,47.54-25.63c23.94-7.1,49.46-8.66,70.87-8.09c30.5,0.79,62.65,8.5,95.55,22.93
		c29.23,13.59,53.6,10.41,72.44-9.45l20.23-21.44c8.69-9.07,13.22-18.4,13.46-27.72c0.01-0.12,0.01-0.25,0.02-0.39
		c0.01-0.16,0.02-0.33,0.03-0.49c0.01-0.15,0.02-0.29,0.03-0.44c0.01-0.17,0.02-0.33,0.02-0.51c0.01-0.16,0.01-0.31,0.02-0.47
		c0.01-0.16,0.02-0.32,0.03-0.48c0-0.16,0.01-0.32,0.02-0.48c0.01-0.15,0.02-0.31,0.02-0.45c0.01-0.16,0.02-0.32,0.03-0.48
		c0-0.16,0.01-0.32,0.02-0.48c0.01-0.16,0.02-0.32,0.02-0.48c0.01-0.15,0.03-0.3,0.02-0.45c0.02-0.18,0.03-0.34,0.04-0.51
		c0-0.15,0.01-0.31,0.02-0.45c0.01-0.16,0.01-0.33,0.02-0.49c0.01-0.15,0.02-0.31,0.02-0.47c0.01-0.15,0.02-0.31,0.03-0.47
		c0.01-0.16,0.02-0.32,0.02-0.48c0.01-0.16,0.02-0.31,0.02-0.47c0.01-0.16,0.02-0.32,0.03-0.48c0.01-0.16,0.02-0.31,0.03-0.45
		c0.01-0.17,0.02-0.33,0.02-0.51c0.01-0.15,0.02-0.31,0.02-0.47c0.01-0.16,0.02-0.32,0.03-0.48c0.01-0.15,0.01-0.31,0.02-0.47
		s0.02-0.31,0.02-0.47c0.01-0.16,0.02-0.32,0.03-0.48s0.02-0.32,0.02-0.48c0.01-0.15,0.02-0.32,0.03-0.48
		c0.01-0.15,0.01-0.31,0.03-0.45c0.01-0.16,0.02-0.32,0.02-0.48c0.01-0.16,0.02-0.32,0.03-0.48s0.02-0.32,0.02-0.48
		c0.01-0.16,0.02-0.32,0.03-0.47c0.01-0.16,0.01-0.32,0.02-0.48s0.02-0.32,0.03-0.48c0-0.15,0.01-0.31,0.02-0.47
		s0.02-0.32,0.02-0.48c0.01-0.16,0.02-0.31,0.03-0.47s0.01-0.32,0.02-0.48c0.01-0.15,0.01-0.31,0.03-0.45
		c0.01-0.17,0.02-0.33,0.02-0.51c0.01-0.15,0.02-0.31,0.02-0.47c0.01-0.15,0.02-0.31,0.03-0.47s0.01-0.32,0.02-0.48
		s0.02-0.31,0.02-0.47c0.01-0.16,0.02-0.32,0.03-0.49c0.01-0.15,0.02-0.31,0.03-0.45c0.01-0.16,0.02-0.33,0.03-0.49
		c0.01-0.15,0.01-0.29,0.03-0.45s0.02-0.32,0.03-0.49c0.01-0.16,0.01-0.31,0.02-0.47s0.02-0.32,0.02-0.47
		c0.01-0.16,0.02-0.32,0.03-0.48s0.01-0.32,0.02-0.48s0.02-0.32,0.03-0.48c0-0.15,0.01-0.31,0.02-0.47
		c0.01-0.16,0.02-0.32,0.02-0.48c0.01-0.15,0.02-0.31,0.03-0.45c0.02-0.18,0.03-0.34,0.02-0.51c0.01-0.15,0.02-0.31,0.03-0.45
		c0.02-0.16,0.02-0.33,0.03-0.49c0.01-0.15,0.02-0.31,0.02-0.47c0.01-0.15,0.02-0.31,0.03-0.47c0.01-0.16,0.01-0.32,0.02-0.48
		s0.02-0.31,0.03-0.47c0-0.16,0.01-0.32,0.02-0.48c0.01-0.15,0.01-0.31,0.02-0.45c0.01-0.17,0.02-0.33,0.02-0.51
		c0.01-0.16,0.02-0.31,0.02-0.47c0.01-0.16,0.02-0.32,0.03-0.48s0.01-0.31,0.02-0.47c0.01-0.16,0.02-0.31,0.02-0.47
		c0.01-0.16,0.02-0.32,0.03-0.49c0.01-0.15,0.01-0.31,0.03-0.45c0.01-0.16,0.02-0.33,0.03-0.49c0-0.15,0.01-0.29,0.03-0.45
		s0.02-0.33,0.03-0.49c0-0.16,0.01-0.32,0.02-0.47c0.01-0.16,0.02-0.32,0.02-0.48c0.01-0.16,0.02-0.32,0.03-0.47
		c0-0.16,0.01-0.32,0.02-0.48s0.02-0.32,0.02-0.48c0.01-0.15,0.02-0.31,0.03-0.47s0.01-0.32,0.02-0.48
		c0.01-0.15,0.02-0.31,0.03-0.45c0.01-0.17,0.02-0.33,0.02-0.51c0.01-0.15,0.02-0.31,0.02-0.47c0.01-0.16,0.02-0.32,0.03-0.48
		s0.02-0.31,0.02-0.47c0.01-0.16,0.02-0.31,0.03-0.47s0.01-0.32,0.02-0.48c0.01-0.16,0.02-0.32,0.02-0.47
		c0.01-0.16,0.02-0.32,0.03-0.48s0.01-0.31,0.02-0.47c0.01-0.16,0.02-0.32,0.03-0.48s0.01-0.32,0.02-0.48
		c0.01-0.16,0.02-0.32,0.03-0.48s0.01-0.32,0.02-0.48c0.01-0.15,0.02-0.31,0.03-0.45c0.01-0.16,0.02-0.33,0.03-0.49
		c0.01-0.15,0.01-0.31,0.03-0.45c0.01-0.17,0.02-0.33,0.03-0.49c0-0.16,0.01-0.31,0.02-0.47c0.01-0.16,0.02-0.32,0.02-0.48
		c0.01-0.15,0.02-0.31,0.03-0.45c0.01-0.17,0.02-0.33,0.03-0.49s0.02-0.32,0.02-0.48c0.01-0.15,0.02-0.31,0.03-0.47
		s0.02-0.32,0.02-0.48c0.01-0.16,0.02-0.31,0.02-0.47c0.01-0.16,0.02-0.32,0.03-0.48c0.01-0.16,0.02-0.31,0.02-0.47
		c0.01-0.16,0.02-0.32,0.03-0.48s0.01-0.31,0.02-0.45c0.01-0.17,0.02-0.33,0.02-0.51c0.01-0.15,0.01-0.31,0.02-0.47
		s0.02-0.31,0.02-0.47c0.01-0.16,0.02-0.32,0.03-0.48c0.01-0.16,0.02-0.32,0.02-0.48c0.01-0.16,0.02-0.32,0.03-0.48
		c0.01-0.15,0.01-0.31,0.02-0.47c0.01-0.16,0.02-0.32,0.03-0.48c0-0.15,0.01-0.29,0.03-0.45s0.02-0.33,0.03-0.49
		c0-0.16,0.01-0.32,0.02-0.48c0.01-0.15,0.01-0.31,0.02-0.47s0.02-0.32,0.03-0.48c0-0.15,0.01-0.31,0.02-0.47
		c0.01-0.16,0.02-0.32,0.02-0.48c0.01-0.16,0.02-0.31,0.03-0.47s0.01-0.32,0.02-0.48c0.01-0.15,0.02-0.31,0.02-0.45
		c0.01-0.17,0.02-0.33,0.02-0.51c0.01-0.15,0.02-0.31,0.02-0.47c0.01-0.16,0.02-0.32,0.03-0.48c0.01-0.16,0.02-0.31,0.02-0.47
		c0.01-0.16,0.02-0.31,0.02-0.47c0.01-0.16,0.02-0.32,0.03-0.48s0.02-0.32,0.02-0.47c0.01-0.16,0.02-0.32,0.03-0.48
		c0.01-0.16,0.01-0.31,0.02-0.47s0.02-0.33,0.03-0.49s0.01-0.31,0.02-0.47c0.01-0.16,0.02-0.32,0.03-0.48
		c0-0.16,0.01-0.32,0.02-0.47c0.01-0.16,0.01-0.32,0.02-0.48c0.01-0.16,0.02-0.32,0.03-0.48c0.01-0.15,0.01-0.31,0.02-0.47
		s0.02-0.32,0.02-0.48c0.01-0.15,0.02-0.31,0.02-0.45c0.01-0.16,0.02-0.33,0.03-0.49s0.02-0.32,0.03-0.48s0.02-0.32,0.02-0.48
		c0.01-0.15,0.02-0.31,0.02-0.47c0.01-0.15,0.02-0.31,0.03-0.47c0.01-0.16,0.02-0.32,0.02-0.48c0.01-0.16,0.02-0.31,0.02-0.47
		c0.01-0.16,0.02-0.32,0.03-0.48c0.01-0.16,0.01-0.31,0.02-0.45c0.01-0.17,0.02-0.33,0.02-0.51c0.01-0.16,0.02-0.31,0.02-0.47
		c0.01-0.16,0.02-0.32,0.03-0.48s0.01-0.31,0.02-0.47s0.02-0.32,0.02-0.47c0.01-0.16,0.02-0.32,0.03-0.48s0.01-0.32,0.02-0.47
		c0.01-0.16,0.02-0.32,0.03-0.49c0-0.15,0.01-0.31,0.02-0.47c0.01-0.16,0.02-0.32,0.02-0.48c0.01-0.15,0.02-0.31,0.03-0.47
		c0.01-0.16,0.02-0.32,0.02-0.49c0.01-0.15,0.02-0.31,0.04-0.46c0.01-0.16,0.01-0.32,0.02-0.48c0.01-0.16,0.02-0.32,0.03-0.48
		c0-0.15,0.01-0.31,0.02-0.47c0.01-0.16,0.02-0.32,0.02-0.48c0.01-0.16,0.02-0.31,0.03-0.47c0-0.16,0.01-0.32,0.02-0.48
		c0.01-0.16,0.02-0.31,0.03-0.45c0.01-0.17,0.02-0.33,0.02-0.51c0.01-0.15,0.02-0.31,0.02-0.47c0.01-0.15,0.02-0.31,0.02-0.47
		c0.01-0.16,0.02-0.32,0.03-0.48c0.01-0.16,0.02-0.31,0.02-0.47c0.01-0.16,0.02-0.32,0.03-0.48c0.01-0.16,0.02-0.32,0.02-0.47
		c0.01-0.16,0.02-0.33,0.03-0.49c0.01-0.15,0.02-0.29,0.03-0.45s0.02-0.33,0.03-0.49c0-0.16,0.01-0.32,0.02-0.47
		c0.01-0.16,0.02-0.32,0.02-0.47c0.01-0.16,0.02-0.32,0.03-0.48s0.01-0.32,0.02-0.48c0.01-0.16,0.02-0.32,0.02-0.47
		c0.01-0.16,0.02-0.32,0.03-0.48c0.01-0.16,0.02-0.32,0.02-0.48c0.01-0.15,0.02-0.31,0.03-0.45c0.01-0.16,0.02-0.33,0.02-0.51
		c0.01-0.15,0.02-0.31,0.03-0.45c0.01-0.17,0.02-0.33,0.03-0.49c0.01-0.15,0.02-0.31,0.02-0.47c0.01-0.15,0.02-0.31,0.03-0.47
		s0.02-0.32,0.02-0.48c0.01-0.16,0.02-0.31,0.02-0.47c0.01-0.16,0.02-0.32,0.03-0.48s0.01-0.31,0.02-0.47
		c0.01-0.16,0.02-0.32,0.03-0.49c0.01-0.16,0.01-0.31,0.02-0.47c0.01-0.16,0.02-0.32,0.03-0.48s0.01-0.31,0.02-0.47
		s0.02-0.32,0.02-0.47c0.01-0.16,0.02-0.32,0.03-0.49c0.01-0.15,0.01-0.31,0.03-0.45c0.01-0.17,0.02-0.33,0.03-0.49
		c0-0.15,0.01-0.31,0.03-0.45c0.01-0.16,0.02-0.33,0.02-0.49c0.01-0.16,0.02-0.32,0.03-0.47c0.01-0.16,0.02-0.32,0.02-0.49
		c0.01-0.15,0.02-0.31,0.03-0.47c0-0.15,0.01-0.31,0.02-0.47c0.01-0.16,0.02-0.32,0.02-0.48c0.01-0.15,0.02-0.31,0.03-0.47
		s0.01-0.32,0.02-0.48c0.01-0.15,0.02-0.31,0.03-0.45c0.01-0.17,0.02-0.33,0.02-0.51c0.01-0.15,0.02-0.31,0.02-0.47
		c0.01-0.16,0.02-0.32,0.03-0.48c0.01-0.16,0.02-0.31,0.02-0.47c0.01-0.16,0.02-0.31,0.02-0.47c0.01-0.16,0.02-0.32,0.03-0.48
		c0.01-0.16,0.02-0.32,0.02-0.47c0.01-0.16,0.02-0.32,0.03-0.48c0.01-0.16,0.01-0.32,0.02-0.48s0.02-0.31,0.03-0.47
		s0.01-0.32,0.02-0.48c0.01-0.16,0.02-0.32,0.03-0.48c0-0.16,0.01-0.32,0.02-0.47c0.01-0.16,0.01-0.32,0.02-0.47
		c0.01-0.16,0.02-0.33,0.03-0.49c0.01-0.15,0.01-0.31,0.02-0.47s0.02-0.32,0.02-0.48c0.01-0.16,0.02-0.31,0.03-0.47
		c0.01-0.16,0.02-0.32,0.02-0.48c0.01-0.15,0.02-0.31,0.03-0.45c0.01-0.17,0.02-0.33,0.03-0.49s0.02-0.32,0.02-0.48
		c0.01-0.15,0.02-0.31,0.03-0.47c0.01-0.16,0.02-0.32,0.02-0.48c0.01-0.15,0.02-0.31,0.03-0.47c0-0.16,0.01-0.32,0.02-0.48
		s0.02-0.32,0.02-0.47c0.01-0.1,0.02-0.19,0.02-0.28c0.1-1.31,0.13-2.62,0.06-3.93c-0.01-0.09-0.01-0.19-0.02-0.28
		c-0.02-0.44-0.06-0.87-0.11-1.3c-0.03-0.43-0.09-0.83-0.15-1.25c-0.01-0.1-0.03-0.2-0.04-0.31c-0.01-0.09-0.03-0.18-0.05-0.28
		c-0.09-0.56-0.2-1.12-0.33-1.69l-0.09-0.36c-0.12-0.51-0.25-1-0.4-1.52C658.17,194.77,658.1,194.56,658.03,194.34z M632.35,510.28
		l-0.09,1.8l-0.05,0.95l-0.07,1.43l-0.05,1.05l-0.1,1.88l-0.05,0.87l-0.04,0.56l-0.05,0.96l-0.14,2.75l-0.02,0.51l-0.05,0.92
		l-0.05,1.05l-0.1,1.88l-0.01-0.09l-0.02,0.58l-0.03,0.47l-0.02,0.37l0,0.01l-0.01,0.07l-0.04,0.96l-0.01-0.09l-0.11,2.41
		l-0.03,0.44l-0.07,1.43l-0.05,1.05l-0.07,1.43l-0.03,0.45l-0.01-0.09l-0.07,1.43l-0.04,1.04l-0.01-0.09l-0.07,1.47l-0.05,1.01
		l-0.09,1.8l-0.05,1.05l-0.07,1.32l-0.15,2.94l-0.01-0.09l-0.05,1.05l-0.02,0.41l-0.05,1.01l-0.09,1.8l-0.05,1.05l-0.03,0.45
		l-0.01-0.04l-0.04,0.91l-0.16,2.94l-0.02,0.49l-0.03,0.47l-0.02,0.37l-0.05,1.05l-0.09,1.8l-0.03,0.58l-0.02,0.37l-0.02,0.56
		l-0.01-0.09l-0.04,0.96l-0.14,2.47l-0.02,0.37l-0.07,1.43l-0.05,1.05l-0.07,1.43l-0.02,0.37l-0.12,2.38l-0.05,0.95l-0.02,0.56
		l-0.01-0.04l-0.05,1l-0.09,1.8l-0.05,1.05l-0.08,1.36l-0.15,2.9l-0.05,0.87l-0.03,0.52l-0.05,1l-0.09,1.8l-0.05,0.95l-0.02,0.51
		l-0.05,0.92l-0.15,2.94l-0.03,0.49l-0.02,0.37l-0.04,0.56l-0.05,0.96l-0.05,0.97c-0.09,3.17-4.04,6.97-10.85,10.41
		c-37.87,19.13-101.12,41.46-187.33,39.24c-97.42-2.53-176.48-31.38-222.59-81.25c-29.04-31.41-43.23-69.94-41.07-111.42l0.03-0.45
		c0-0.09,0.01-0.2,0.02-0.31l0.02-0.44c0.01-0.08,0.01-0.16,0.02-0.24c0-0.09,0.01-0.17,0.01-0.28l0.03-0.43c0-0.08,0-0.16,0-0.24
		s0.01-0.16,0.02-0.24c0.01-0.08,0.01-0.17,0.01-0.25l0.02-0.47c0.01-0.08,0.01-0.15,0.02-0.23s0.01-0.16,0.02-0.24
		c0-0.09,0.01-0.17,0.01-0.28l0.04-0.64c0-0.09,0.01-0.17,0.01-0.27c0.01-0.1,0.01-0.2,0.01-0.31l0.02-0.37
		c0.01-0.1,0.02-0.19,0.02-0.31l0.02-0.43c0.01-0.08,0.01-0.16,0.01-0.25c0.01-0.08,0.01-0.16,0.01-0.25l0.04-0.7
		c0.01-0.08,0.01-0.17,0.02-0.27l-0.01-0.17c0.01-0.1,0.02-0.19,0.02-0.28l0.04-0.67c0.01-0.1,0.02-0.19,0.02-0.29l0.03-0.67
		c0.01-0.08,0.02-0.18,0.02-0.28l0.04-0.66c0-0.09,0.01-0.2,0.01-0.31l0.04-0.7c0.01-0.08,0.01-0.16,0.02-0.24l0-0.19
		c0-0.09,0.02-0.19,0.01-0.29l0.04-0.67c0.01-0.08,0.01-0.17,0.02-0.28l0.03-0.65c0.01-0.11,0.01-0.2,0.02-0.32l0.03-0.64
		c0.01-0.1,0.02-0.19,0.02-0.28l0.04-0.71c0.01-0.08,0.01-0.16,0.02-0.24l0.01-0.2c0-0.09,0-0.19,0.02-0.28c0-0.09,0-0.19,0.01-0.28
		l0.02-0.39c0.01-0.1,0.02-0.19,0.02-0.31l0.03-0.64c0.01-0.1,0.02-0.19,0.02-0.28l0.04-0.67c0-0.09,0.02-0.19,0.01-0.29l0.04-0.7
		c0.01-0.08,0.01-0.17,0.01-0.27l0.01-0.17c0.01-0.1,0.02-0.19,0.02-0.28c0.01-0.1,0.02-0.19,0.02-0.29l0.02-0.37
		c0-0.09,0.02-0.19,0.02-0.29l0.03-0.67c0-0.09,0.02-0.19,0.02-0.28l0.04-0.66c0-0.09,0-0.2,0.01-0.32l0.03-0.68
		c0.02-0.08,0.01-0.16,0.03-0.24l0-0.19c0-0.09,0.02-0.19,0.02-0.29c0-0.09,0-0.19,0.01-0.28l0.03-0.39c0-0.09,0-0.19,0.02-0.28
		l0.02-0.66c0.01-0.1,0.02-0.19,0.02-0.31l0.03-0.64c0.01-0.1,0.02-0.19,0.02-0.28l0.04-0.71c0.01-0.08,0.01-0.16,0.01-0.25l0-0.19
		c0.01-0.1,0.02-0.19,0.03-0.28c0-0.09,0-0.19,0.01-0.28l0-0.05c7.21,13.16,16.2,25.64,26.96,37.26
		c50.87,55.03,136.4,86.82,240.84,89.52c48.71,1.25,90.6-4.91,125.25-14.04c29.15-7.68,53.15-17.45,71.78-26.66L632.35,510.28z
		 M631.35,247.45c0,0.13-0.01,0.27-0.01,0.4l-0.01,0.03c-0.01,0.16-0.01,0.31-0.02,0.45l-0.03,0.58c-0.01,0.12,0,0.24-0.01,0.36
		l-0.03,0.6c-0.02,0.12-0.02,0.24-0.02,0.36l-0.04,0.6c-0.01,0.12,0,0.24-0.01,0.35l0,0.04c0,0.15-0.02,0.29-0.03,0.44l0,0.06
		c0,0.13-0.02,0.27-0.02,0.41l0.01,0.02c-0.01,0.15-0.03,0.3-0.03,0.44l-0.03,0.59c-0.01,0.12-0.02,0.24-0.02,0.36l-0.03,0.6
		c-0.01,0.12-0.02,0.24-0.02,0.36l-0.03,0.58c-0.01,0.12-0.02,0.24-0.01,0.36l-0.01,0.06c0,0.13-0.02,0.28-0.02,0.43l-0.01,0.08
		c0,0.13-0.01,0.27-0.03,0.4l0.01,0.02c-0.01,0.15-0.01,0.31-0.03,0.45l-0.03,0.58c0,0.13-0.01,0.25-0.02,0.37l-0.03,0.58
		c-0.01,0.12-0.01,0.24-0.01,0.36l-0.04,0.6c-0.01,0.12,0,0.24-0.01,0.36l-0.01,0.03c-0.01,0.15-0.01,0.31-0.03,0.45l0,0.06
		c-0.02,0.14-0.02,0.27-0.03,0.4l0,0.04c-0.01,0.15-0.01,0.29-0.03,0.44l-0.02,0.57c-0.01,0.12-0.02,0.24-0.02,0.36l-0.03,0.6
		c-0.01,0.12-0.02,0.24-0.02,0.36l-0.04,0.6c0,0.12,0,0.24-0.01,0.36l-0.03,0.58c-0.01,0.12-0.01,0.25-0.02,0.37l0,0.01
		c-0.01,0.16-0.02,0.31-0.03,0.45l-0.03,0.59c-0.01,0.12-0.02,0.24-0.02,0.37l-0.03,0.59c-0.01,0.12-0.02,0.24-0.02,0.36l-0.03,0.58
		c-0.01,0.12,0,0.24-0.01,0.36l-0.04,0.6c-0.01,0.12-0.02,0.24-0.01,0.36l0,0.04c-0.01,0.15-0.02,0.29-0.03,0.44l-0.03,0.59
		c-0.01,0.12-0.02,0.24-0.02,0.36l-0.03,0.58c0,0.12,0,0.24-0.01,0.36l-0.03,0.59c0,0.13-0.01,0.25-0.02,0.37l-0.03,0.58
		c0,0.13-0.01,0.25-0.02,0.37l0,0.04c0,0.15-0.01,0.29-0.02,0.44l-0.03,0.59c-0.01,0.11-0.02,0.23-0.03,0.35l-0.03,0.6
		c-0.01,0.12-0.02,0.24-0.02,0.36l-0.03,0.6c-0.01,0.12-0.02,0.24-0.02,0.36l-0.03,0.59c-0.01,0.12-0.02,0.24-0.02,0.36l0.01,0.02
		c-0.01,0.15-0.03,0.3-0.03,0.44l-0.01,0.08c0,0.13-0.01,0.27-0.01,0.4l-0.01,0.03c-0.01,0.15-0.01,0.31-0.03,0.45l-0.03,0.59
		c-0.01,0.12-0.01,0.24-0.02,0.36l-0.03,0.58c0,0.12,0,0.24-0.01,0.36l-0.03,0.6c-0.01,0.12-0.02,0.24-0.02,0.36l0,0.04
		c-0.01,0.15-0.02,0.29-0.03,0.44l0,0.05c-0.01,0.15-0.02,0.28-0.02,0.41l0,0.04c0,0.15-0.01,0.29-0.02,0.44l-0.03,0.59
		c-0.01,0.12-0.02,0.24-0.03,0.35l-0.03,0.6c-0.01,0.12-0.02,0.24-0.02,0.36l-0.03,0.59c-0.01,0.12-0.02,0.24-0.02,0.37l-0.01,0.03
		c0,0.15-0.01,0.29-0.02,0.44l-0.01,0.08c0,0.13-0.02,0.27-0.03,0.4l0.01,0.02c-0.01,0.15-0.02,0.29-0.03,0.44l-0.03,0.59
		c-0.01,0.12-0.02,0.24-0.02,0.37l-0.03,0.6c-0.01,0.11-0.02,0.23-0.03,0.35l-0.03,0.59c-0.01,0.12-0.02,0.24-0.02,0.36l0.01,0.02
		c-0.01,0.15-0.02,0.29-0.03,0.45l-0.01,0.07c0,0.13-0.01,0.27-0.01,0.4l0,0.04c-0.01,0.15-0.01,0.29-0.03,0.44l-0.03,0.6
		c-0.01,0.11-0.02,0.23-0.03,0.35l-0.02,0.57c-0.01,0.12-0.02,0.24-0.02,0.36l-0.03,0.6c-0.01,0.12-0.02,0.24-0.02,0.36l0,0.04
		c-0.01,0.15-0.01,0.29-0.03,0.44l0,0.06c0,0.13-0.02,0.27-0.03,0.4l0,0.04c0,0.15-0.01,0.29-0.02,0.44l-0.03,0.58
		c-0.01,0.12-0.02,0.24-0.02,0.37l-0.03,0.59c-0.01,0.12-0.01,0.24-0.02,0.37l-0.03,0.58c-0.01,0.12-0.02,0.24-0.02,0.37l-0.03,0.59
		c-0.01,0.12-0.01,0.24-0.02,0.36l0.01,0.02c-0.01,0.15-0.01,0.29-0.03,0.44l-0.03,0.59c0,0.13-0.01,0.25-0.02,0.37l-0.03,0.6
		c-0.01,0.11-0.02,0.23-0.03,0.35l-0.02,0.57c0,0.13-0.01,0.25-0.02,0.37l-0.04,0.59c0,0.12,0,0.24-0.01,0.36l0,0.04
		c-0.01,0.15-0.02,0.29-0.03,0.44l-0.03,0.6c-0.01,0.11-0.02,0.23-0.01,0.35l-0.03,0.58c-0.01,0.12-0.02,0.24-0.02,0.36l-0.03,0.6
		c-0.01,0.12-0.02,0.24-0.02,0.37l-0.03,0.58c-0.01,0.12-0.02,0.24-0.02,0.36l0,0.04c0,0.15-0.01,0.29-0.02,0.44l-0.01,0.07
		c0,0.15-0.01,0.28-0.02,0.41l0.01,0.02c-0.01,0.15-0.02,0.29-0.03,0.44l-0.03,0.59c0,0.13-0.01,0.25-0.02,0.37l-0.03,0.58
		c-0.01,0.12-0.01,0.25-0.02,0.37l-0.03,0.59c-0.01,0.12-0.01,0.24-0.01,0.36l-0.01,0.03c-0.01,0.15-0.01,0.29-0.03,0.44l-0.01,0.08
		c0,0.13-0.01,0.27-0.01,0.4l-0.01,0.03c-0.01,0.16-0.01,0.31-0.03,0.45l-0.03,0.6c-0.01,0.12-0.02,0.23-0.01,0.35l-0.03,0.59
		c-0.01,0.12-0.02,0.24-0.02,0.36l-0.03,0.59c-0.01,0.12-0.02,0.24-0.02,0.36l0,0.04c-0.01,0.15-0.01,0.31-0.03,0.45l0,0.05
		c0,0.13-0.01,0.27-0.03,0.4l0,0.04c0,0.16-0.01,0.31-0.03,0.45l0.01,0.04c-0.01,0.12-0.02,0.24-0.02,0.36l-0.01,0.16
		c-0.01,0.12-0.02,0.24-0.02,0.37l-0.03,0.58c-0.01,0.12-0.01,0.25-0.02,0.37l-0.02,0.61c-0.01,0.12-0.02,0.24-0.02,0.36l0,0.01
		c-0.01,0.15-0.02,0.29-0.03,0.44l0,0.08c0,0.13-0.01,0.25-0.02,0.39l0,0.05c-0.01,0.15-0.03,0.3-0.03,0.44l-0.03,0.59
		c-0.01,0.12-0.02,0.23-0.01,0.35l-0.03,0.58c0,0.13-0.01,0.25-0.02,0.37l-0.01,0.35c-0.02,1.23-0.68,4.74-6.33,10.63l-20.32,21.55
		c-13.76,14.52-29.43,10.03-42.94,3.74l-0.27-0.13c-36.02-15.81-71.48-24.28-105.37-25.15c-33.01-0.86-59.59,3.16-80.95,9.81
		c-23.02,7.16-39.96,17.39-52.38,27.92c-5.88-12.67-8.63-26.5-7.89-40.58c1.34-25.62,13.81-48.65,35.1-64.85
		c11.35-8.63,25.11-15.35,40.98-20.07c20.41-6.1,44.27-8.9,70.84-8.2c30.5,0.79,62.65,8.5,95.55,22.93
		c29.25,13.59,53.6,10.41,72.44-9.45l5.6-5.94L631.35,247.45z M633.66,203.6l-0.02,0.32c-0.27,2.57-2.54,6.27-6.3,10.18
		l-20.32,21.55c-13.76,14.52-29.43,10.03-42.94,3.74l-0.27-0.13c-36.02-15.81-71.48-24.28-105.37-25.15
		c-8.74-0.23-17.25-0.11-25.49,0.38c-41.88,2.36-77.02,13.66-102.62,33.15c-27.42,20.86-43.48,50.7-45.23,84.02
		c-1.13,21.66,4.02,42.8,14.72,61.48l-0.3,0.36l5.77,8.28c0.13,0.18,0.26,0.35,0.39,0.53c0.61,0.88,1.24,1.74,1.88,2.59
		c0.15,0.21,0.31,0.42,0.47,0.63c0.75,0.99,1.52,1.97,2.31,2.95c0.23,0.29,0.48,0.58,0.72,0.89c0.66,0.8,1.33,1.6,2.02,2.38
		c0.18,0.22,0.36,0.43,0.55,0.65c0.65,0.75,1.31,1.49,1.99,2.22c0.2,0.22,0.42,0.46,0.64,0.69c0.14,0.15,0.29,0.31,0.42,0.46
		c0.86,0.89,1.73,1.78,2.63,2.69c0.02,0.01,0.02,0.02,0.03,0.03c0.18,0.19,0.37,0.36,0.57,0.55c0.85,0.83,1.72,1.67,2.64,2.51
		c0.19,0.19,0.38,0.36,0.58,0.55c0.43,0.39,0.85,0.78,1.29,1.16c0.52,0.46,1.03,0.91,1.57,1.38c0.12,0.1,0.24,0.21,0.36,0.31
		c1.07,0.92,2.18,1.84,3.34,2.76c0.02,0.01,0.03,0.02,0.05,0.03c21.72,17.36,56.36,34.03,110.27,36.52c0.05,0,0.11,0.01,0.16,0.01
		c1.92,0.09,3.85,0.16,5.81,0.21c26.07,0.67,50.3-3.1,71.35-8.64c14.86-3.91,28.13-8.7,39.33-13.43c2.8-1.18,5.48-2.37,8.01-3.52
		c1.23-0.56,2.51-1.11,3.81-1.64c9.08-3.7,19.46-6.19,29.21-2.19c3.71,1.54,7.34,4,10.75,7.71l20.29,21.44
		c0.28,0.32,0.55,0.63,0.82,0.94c0.17,0.2,0.34,0.41,0.51,0.62c0.22,0.27,0.41,0.54,0.59,0.81c0.18,0.23,0.38,0.48,0.54,0.71
		c0.23,0.33,0.43,0.65,0.65,0.97c0.09,0.16,0.21,0.33,0.3,0.48c0.22,0.35,0.4,0.68,0.58,1.01c0.08,0.14,0.15,0.28,0.21,0.41
		c0.16,0.33,0.31,0.64,0.45,0.95c0.05,0.13,0.11,0.26,0.17,0.39c0.11,0.3,0.21,0.58,0.29,0.86c0.04,0.15,0.09,0.29,0.13,0.43
		c0.07,0.26,0.12,0.5,0.15,0.74c0.03,0.15,0.04,0.31,0.05,0.45c0.03,0.22,0.04,0.44,0.04,0.65c-0.01,0.27-0.02,0.53-0.06,0.78
		c-0.56,2.94-4.58,6.56-10.78,9.68c-37.87,19.13-101.12,41.46-187.33,39.24c-97.42-2.53-176.48-31.38-222.59-81.25
		c-26.26-28.42-40.39-62.65-41.25-99.65c-0.08-3.91-0.03-7.85,0.18-11.81c0.05-1.11,0.15-2.2,0.22-3.3c0.03-0.47,0.07-0.95,0.1-1.42
		c0.08-0.96,0.2-1.91,0.29-2.86c0.06-0.61,0.11-1.22,0.19-1.82c0.1-0.82,0.21-1.64,0.33-2.45c0.1-0.74,0.19-1.47,0.3-2.2
		c0.1-0.68,0.23-1.38,0.35-2.07c0.13-0.84,0.27-1.69,0.43-2.54c0.1-0.55,0.23-1.12,0.35-1.67c0.19-0.97,0.37-1.94,0.58-2.89
		c0.1-0.43,0.21-0.85,0.31-1.27c0.25-1.09,0.5-2.19,0.77-3.27c0.09-0.31,0.18-0.63,0.27-0.94c0.31-1.19,0.63-2.38,0.97-3.56
		c0.05-0.2,0.13-0.4,0.18-0.61c0.39-1.29,0.77-2.57,1.2-3.85c0.03-0.09,0.06-0.17,0.09-0.26c0.45-1.4,0.93-2.77,1.43-4.16
		c0.01-0.03,0.01-0.06,0.03-0.09c8.51-23.41,23.2-45.07,43.41-63.91c0.05-0.05,0.12-0.11,0.18-0.17c1.21-1.12,2.43-2.25,3.68-3.34
		c0.29-0.26,0.59-0.51,0.89-0.77c1.02-0.89,2.04-1.79,3.09-2.67c0.53-0.44,1.07-0.88,1.62-1.32c0.84-0.68,1.65-1.37,2.51-2.04
		c0.8-0.63,1.62-1.26,2.43-1.89c0.6-0.46,1.2-0.95,1.8-1.41c1.13-0.85,2.29-1.7,3.44-2.54c0.31-0.23,0.62-0.45,0.93-0.68
		c0.92-0.66,1.86-1.32,2.8-1.98c0.2-0.14,0.4-0.28,0.6-0.42c0.37-0.24,0.74-0.51,1.1-0.76c1.52-1.03,3.05-2.07,4.62-3.07
		c1.57-1.03,3.18-2.04,4.79-3.04c0.53-0.33,1.07-0.64,1.6-0.96c1.09-0.66,2.19-1.33,3.3-1.98c0.65-0.38,1.3-0.75,1.95-1.12
		c1.02-0.58,2.04-1.17,3.07-1.74c0.7-0.38,1.41-0.77,2.11-1.15c1-0.54,2-1.08,3.01-1.61c0.73-0.39,1.47-0.77,2.21-1.15
		c1-0.51,2-1.03,3-1.53c0.76-0.38,1.53-0.76,2.3-1.13c1-0.49,2.01-0.98,3.02-1.45c0.79-0.37,1.57-0.73,2.36-1.1
		c1.02-0.47,2.03-0.93,3.07-1.39c0.79-0.35,1.59-0.71,2.39-1.07c1.03-0.44,2.07-0.89,3.11-1.33c0.81-0.34,1.63-0.68,2.43-1.01
		c1.06-0.44,2.12-0.87,3.18-1.3c0.82-0.32,1.65-0.65,2.46-0.96c1.09-0.42,2.17-0.83,3.26-1.24c0.83-0.31,1.64-0.62,2.47-0.93
		c1.12-0.41,2.23-0.8,3.35-1.2c0.82-0.29,1.64-0.58,2.46-0.87c1.15-0.39,2.31-0.78,3.46-1.16c0.81-0.27,1.63-0.53,2.44-0.8
		c1.21-0.4,2.43-0.77,3.65-1.15c0.78-0.24,1.54-0.5,2.32-0.73c1.33-0.4,2.69-0.8,4.04-1.18c0.67-0.2,1.33-0.39,2.01-0.58
		c1.83-0.52,3.67-1.02,5.52-1.52l0.6-0.16c0.32-0.08,0.64-0.17,0.96-0.24c1.86-0.49,3.74-0.97,5.63-1.43
		c0.79-0.2,1.59-0.37,2.38-0.56c1.43-0.34,2.85-0.67,4.3-1c0.91-0.2,1.83-0.39,2.74-0.59c1.33-0.29,2.67-0.57,4.02-0.85
		c0.96-0.2,1.94-0.39,2.9-0.58c1.32-0.25,2.62-0.51,3.94-0.76c0.99-0.18,2-0.36,3.01-0.53c1.3-0.24,2.59-0.46,3.9-0.69
		c1.02-0.16,2.05-0.33,3.08-0.5c1.29-0.21,2.59-0.41,3.9-0.61c1.04-0.16,2.09-0.3,3.13-0.46c1.31-0.17,2.62-0.36,3.93-0.53l3.17-0.4
		c1.31-0.16,2.63-0.32,3.95-0.47c1.08-0.11,2.14-0.23,3.2-0.34c1.33-0.14,2.67-0.28,4-0.41c1.07-0.1,2.14-0.21,3.22-0.29
		c1.35-0.13,2.69-0.23,4.05-0.34c1.07-0.08,2.15-0.17,3.23-0.24c1.37-0.11,2.73-0.19,4.1-0.28c1.07-0.07,2.15-0.14,3.23-0.2
		c1.39-0.08,2.78-0.14,4.18-0.19c1.07-0.06,2.13-0.11,3.2-0.15c1.43-0.06,2.86-0.09,4.3-0.14c1.05-0.03,2.08-0.06,3.13-0.09
		c1.5-0.04,3.02-0.06,4.51-0.07c0.99-0.01,1.98-0.03,2.97-0.04c1.67-0.01,3.35,0,5.02,0.01c0.83,0,1.66,0,2.49,0
		c2.51,0.02,5.04,0.07,7.56,0.13c79.91,2.08,135.13,22.61,167.4,39.48c0.38,0.2,0.77,0.42,1.13,0.63l0.34,0.2
		c0.25,0.16,0.5,0.3,0.75,0.45c0.11,0.08,0.22,0.14,0.33,0.22c0.24,0.15,0.47,0.3,0.7,0.45c0.09,0.05,0.17,0.11,0.27,0.18
		c0.25,0.16,0.5,0.33,0.74,0.5c0.05,0.03,0.1,0.07,0.15,0.11C631.67,198.83,633.74,201.47,633.66,203.6z"/>
	<path class="st4" d="M452.53,219.32c-15.62,7.37-15.23,17.19-39.87,23.68c-28.02,7.38-59.89,48.43-25.27,79.12
		c17.19,15.23,18.13,25.3,22.06,33.71c-17.41,5.17-62.92,27.17-76.48,39.53c0.02,0.02,0.05,0.05,0.07,0.07
		c0.61,0.7,1.24,1.39,1.87,2.06c0.24,0.25,0.47,0.49,0.71,0.75c0.47,0.49,0.95,0.99,1.43,1.47c0.25,0.24,0.47,0.47,0.71,0.71
		c0.66,0.67,1.35,1.32,2.05,1.96c0.26,0.23,0.52,0.48,0.78,0.72c0.52,0.46,1.02,0.93,1.55,1.38c0.27,0.23,0.55,0.48,0.82,0.71
		c0.61,0.52,1.22,1.05,1.86,1.55c0.17,0.14,0.32,0.27,0.49,0.41c1.86,1.5,3.78,2.96,5.78,4.35l-26.67,11.73
		c-0.44-0.38-0.86-0.77-1.29-1.16c-0.19-0.19-0.38-0.36-0.58-0.55c-0.92-0.84-1.79-1.68-2.64-2.51c-0.19-0.19-0.38-0.36-0.57-0.55
		c-0.02-0.01-0.02-0.02-0.03-0.03c-0.9-0.91-1.78-1.8-2.63-2.69c-0.13-0.15-0.28-0.31-0.42-0.46c-0.22-0.23-0.44-0.46-0.64-0.69
		c-0.68-0.73-1.35-1.46-1.99-2.22c-0.19-0.21-0.38-0.43-0.55-0.65c-0.69-0.78-1.36-1.58-2.02-2.38c-0.24-0.31-0.49-0.6-0.72-0.89
		c-0.79-0.98-1.56-1.96-2.31-2.95c-0.16-0.21-0.32-0.42-0.47-0.63c-0.64-0.84-1.27-1.71-1.88-2.59c-0.13-0.18-0.26-0.35-0.39-0.53
		l-5.77-8.28l0.3-0.36c-10.71-18.68-15.86-39.83-14.72-61.48c1.75-33.32,17.81-63.16,45.23-84.02
		C355.93,228.16,410.65,221.69,452.53,219.32z"/>
	<path class="st4" d="M262.97,624.99c68.02,21.11-68.13-133.57,35.63-114.79l-45.07-21.06l-73.62-79.42l-16.86,11.03l-7.12,47.99
		l0.66,52.53l37.62,42.79l20.43,27.55C214.65,591.61,205.57,607.18,262.97,624.99z"/>
	<path class="st4" d="M553.41,377.19c0,0,84.62-28.88,10.66-134.56l32.75,24.31l50.24-59.35l-4.5,132.94l-48.95,39.25L553.41,377.19
		z"/>
	<path class="st4" d="M553.78,528.61c0,0,67.46,81.04,33.75,103.1l53.82-20.77l7.75-120.62L553.78,528.61z"/>
</g>
</svg>
